{
.appVersion = "1192";
customParameters = (
{
name = Axes;
value = (
{
Name = Weight;
Tag = wght;
}
);
}
);
date = "2019-02-08 22:16:01 +0000";
familyName = "League Script";
featurePrefixes = (
{
automatic = 1;
code = "languagesystem DFLT dflt;\012";
name = Languagesystems;
}
);
features = (
{
code = "sub f i by fi;\012sub f l by fl;\012sub s s by ss;\012sub o t by ot;\012sub r t by rt;\012sub w s by ws;\012sub s r by sr;\012sub r s by rs;\012sub r r by rr;\012sub r s t by rst;\012sub v s by vs;\012sub s t by st;\012sub v e by ve;\012sub e r by er;\012sub s v by sv;\012sub b t by bt;\012sub o v by ov;\012sub b r by br;\012sub f r by fr;";
name = liga;
}
);
fontMaster = (
{
ascender = 750;
capHeight = 700;
descender = -250;
id = master01;
userData = {
GSOffsetHorizontal = 9;
GSOffsetMakeStroke = 1;
GSOffsetPosition = 1;
GSOffsetVertical = 9;
};
weightValue = 18;
widthValue = 5;
xHeight = 500;
},
{
ascender = 800;
capHeight = 700;
descender = -200;
id = "AF956123-A183-4F86-8774-5A4F8E572774";
userData = {
GSCornerRadius = 55;
GSOffsetHorizontal = 49;
GSOffsetMakeStroke = 1;
GSOffsetPosition = 1;
GSOffsetVertical = 49;
};
weight = Bold;
weightValue = 84;
xHeight = 422;
}
);
glyphs = (
{
glyphname = A;
lastChange = "2019-02-08 21:29:00 +0000";
layers = (
{
layerId = master01;
paths = (
{
closed = 1;
nodes = (
"177 -79 OFFCURVE",
"291 -34 OFFCURVE",
"354 26 CURVE SMOOTH",
"410 78 OFFCURVE",
"462 154 OFFCURVE",
"517 240 CURVE SMOOTH",
"528 258 OFFCURVE",
"539 275 OFFCURVE",
"550 293 CURVE",
"594 280 OFFCURVE",
"652 271 OFFCURVE",
"729 268 CURVE SMOOTH",
"773 266 OFFCURVE",
"812 268 OFFCURVE",
"852 271 CURVE",
"869 228 OFFCURVE",
"881 183 OFFCURVE",
"889 142 CURVE SMOOTH",
"898 93 OFFCURVE",
"904 46 OFFCURVE",
"904 0 CURVE",
"922 0 LINE",
"922 20 OFFCURVE",
"922 31 OFFCURVE",
"922 42 CURVE SMOOTH",
"922 130 OFFCURVE",
"930 211 OFFCURVE",
"943 287 CURVE",
"1063 315 OFFCURVE",
"1122 363 OFFCURVE",
"1122 364 CURVE",
"1126 367 OFFCURVE",
"1127 373 OFFCURVE",
"1124 377 CURVE SMOOTH",
"1120 382 OFFCURVE",
"1115 381 OFFCURVE",
"1111 378 CURVE",
"1111 378 OFFCURVE",
"1111 378 OFFCURVE",
"1111 378 CURVE",
"1109 376 OFFCURVE",
"1056 333 OFFCURVE",
"947 306 CURVE",
"988 513 OFFCURVE",
"1072 671 OFFCURVE",
"1157 784 CURVE SMOOTH",
"1216 863 OFFCURVE",
"1275 920 OFFCURVE",
"1319 957 CURVE SMOOTH",
"1341 976 OFFCURVE",
"1359 990 OFFCURVE",
"1372 999 CURVE SMOOTH",
"1375 1001 OFFCURVE",
"1389 1011 OFFCURVE",
"1392 1013 CURVE",
"1438 1010 OFFCURVE",
"1489 997 OFFCURVE",
"1534 966 CURVE",
"1538 963 OFFCURVE",
"1544 963 OFFCURVE",
"1547 967 CURVE SMOOTH",
"1550 971 OFFCURVE",
"1548 977 OFFCURVE",
"1544 980 CURVE SMOOTH",
"1488 1020 OFFCURVE",
"1426 1030 OFFCURVE",
"1372 1030 CURVE SMOOTH",
"1343 1030 OFFCURVE",
"1315 1028 OFFCURVE",
"1293 1024 CURVE SMOOTH",
"1176 1004 OFFCURVE",
"1072 944 OFFCURVE",
"972 857 CURVE SMOOTH",
"873 770 OFFCURVE",
"779 655 OFFCURVE",
"682 524 CURVE SMOOTH",
"674 513 OFFCURVE",
"666 502 OFFCURVE",
"659 491 CURVE",
"632 499 OFFCURVE",
"606 501 OFFCURVE",
"581 501 CURVE SMOOTH",
"542 501 OFFCURVE",
"502 496 OFFCURVE",
"474 472 CURVE SMOOTH",
"451 453 OFFCURVE",
"442 425 OFFCURVE",
"442 400 CURVE SMOOTH",
"442 384 OFFCURVE",
"446 368 OFFCURVE",
"457 353 CURVE",
"471 332 OFFCURVE",
"495 314 OFFCURVE",
"533 299 CURVE",
"504 253 OFFCURVE",
"476 209 OFFCURVE",
"448 168 CURVE SMOOTH",
"413 117 OFFCURVE",
"378 72 OFFCURVE",
"342 39 CURVE SMOOTH",
"278 -22 OFFCURVE",
"177 -54 OFFCURVE",
"104 -4 CURVE SMOOTH",
"74 18 OFFCURVE",
"59 52 OFFCURVE",
"50 81 CURVE",
"42 111 OFFCURVE",
"42 136 OFFCURVE",
"42 139 CURVE SMOOTH",
"42 140 OFFCURVE",
"42 140 OFFCURVE",
"42 140 CURVE",
"42 145 OFFCURVE",
"38 149 OFFCURVE",
"33 149 CURVE SMOOTH",
"28 149 OFFCURVE",
"24 145 OFFCURVE",
"24 140 CURVE",
"24 140 OFFCURVE",
"24 140 OFFCURVE",
"24 139 CURVE SMOOTH",
"24 133 OFFCURVE",
"25 88 OFFCURVE",
"45 43 CURVE SMOOTH",
"55 21 OFFCURVE",
"71 -1 OFFCURVE",
"94 -18 CURVE SMOOTH"
);
},
{
closed = 1;
nodes = (
"504 330 OFFCURVE",
"460 356 OFFCURVE",
"460 400 CURVE SMOOTH",
"460 423 OFFCURVE",
"470 445 OFFCURVE",
"486 458 CURVE SMOOTH",
"512 480 OFFCURVE",
"550 484 OFFCURVE",
"581 484 CURVE SMOOTH",
"606 484 OFFCURVE",
"628 481 OFFCURVE",
"648 476 CURVE",
"610 422 OFFCURVE",
"576 367 OFFCURVE",
"543 315 CURVE"
);
},
{
closed = 1;
nodes = (
"656 288 OFFCURVE",
"601 297 OFFCURVE",
"560 309 CURVE",
"594 362 OFFCURVE",
"628 417 OFFCURVE",
"666 470 CURVE",
"715 454 OFFCURVE",
"753 425 OFFCURVE",
"784 388 CURVE SMOOTH",
"809 359 OFFCURVE",
"829 325 OFFCURVE",
"845 289 CURVE",
"797 285 OFFCURVE",
"764 285 OFFCURVE",
"730 286 CURVE SMOOTH"
);
},
{
closed = 1;
nodes = (
"902 170 OFFCURVE",
"895 200 OFFCURVE",
"885 231 CURVE SMOOTH",
"881 245 OFFCURVE",
"876 259 OFFCURVE",
"870 273 CURVE",
"889 276 OFFCURVE",
"907 279 OFFCURVE",
"924 282 CURVE",
"916 238 OFFCURVE",
"910 191 OFFCURVE",
"907 141 CURVE"
);
},
{
closed = 1;
nodes = (
"847 330 OFFCURVE",
"825 367 OFFCURVE",
"798 400 CURVE SMOOTH",
"767 437 OFFCURVE",
"727 468 OFFCURVE",
"677 486 CURVE",
"683 495 OFFCURVE",
"690 504 OFFCURVE",
"697 513 CURVE SMOOTH",
"793 644 OFFCURVE",
"887 758 OFFCURVE",
"984 843 CURVE SMOOTH",
"1082 929 OFFCURVE",
"1183 987 OFFCURVE",
"1297 1007 CURVE SMOOTH",
"1315 1010 OFFCURVE",
"1337 1012 OFFCURVE",
"1361 1013 CURVE",
"1321 985 OFFCURVE",
"1232 914 OFFCURVE",
"1143 795 CURVE SMOOTH",
"1055 678 OFFCURVE",
"968 516 OFFCURVE",
"928 301 CURVE",
"908 297 OFFCURVE",
"886 294 OFFCURVE",
"863 291 CURVE"
);
}
);
width = 1208;
},
{
layerId = "AF956123-A183-4F86-8774-5A4F8E572774";
paths = (
{
closed = 1;
nodes = (
"216 -79 OFFCURVE",
"322 -34 OFFCURVE",
"375 26 CURVE SMOOTH",
"431 88 OFFCURVE",
"501 241 OFFCURVE",
"558 363 CURVE SMOOTH",
"624 504 OFFCURVE",
"725 703 OFFCURVE",
"861 843 CURVE SMOOTH",
"972 959 OFFCURVE",
"1096 1013 OFFCURVE",
"1208 1013 CURVE SMOOTH",
"1256 1013 OFFCURVE",
"1310 1001 OFFCURVE",
"1364 978 CURVE SMOOTH",
"1392 966 OFFCURVE",
"1420 969 OFFCURVE",
"1436 992 CURVE SMOOTH",
"1452 1015 OFFCURVE",
"1443 1050 OFFCURVE",
"1411 1064 CURVE SMOOTH",
"1344 1094 OFFCURVE",
"1271 1111 OFFCURVE",
"1208 1111 CURVE SMOOTH",
"1062 1111 OFFCURVE",
"913 1039 OFFCURVE",
"790 911 CURVE SMOOTH",
"644 760 OFFCURVE",
"536 547 OFFCURVE",
"469 405 CURVE SMOOTH",
"412 282 OFFCURVE",
"348 142 OFFCURVE",
"302 91 CURVE SMOOTH",
"267 51 OFFCURVE",
"213 40 OFFCURVE",
"176 64 CURVE SMOOTH",
"154 79 OFFCURVE",
"134 107 OFFCURVE",
"123 140 CURVE SMOOTH",
"112 172 OFFCURVE",
"102 197 OFFCURVE",
"74 197 CURVE SMOOTH",
"46 197 OFFCURVE",
"20 173 OFFCURVE",
"25 140 CURVE SMOOTH",
"36 71 OFFCURVE",
"75 13 OFFCURVE",
"123 -18 CURVE SMOOTH"
);
},
{
closed = 1;
nodes = (
"868 0 LINE",
"1009 0 LINE",
"999 58 OFFCURVE",
"979 117 OFFCURVE",
"958 173 CURVE SMOOTH",
"914 290 OFFCURVE",
"849 387 OFFCURVE",
"763 462 CURVE SMOOTH",
"671 543 OFFCURVE",
"569 582 OFFCURVE",
"459 582 CURVE SMOOTH",
"326 582 OFFCURVE",
"240 517 OFFCURVE",
"261 400 CURVE SMOOTH",
"288 249 OFFCURVE",
"480 194 OFFCURVE",
"688 188 CURVE SMOOTH",
"723 187 OFFCURVE",
"765 186 OFFCURVE",
"818 190 CURVE SMOOTH",
"956 200 OFFCURVE",
"1095 238 OFFCURVE",
"1197 287 CURVE SMOOTH",
"1228 302 OFFCURVE",
"1241 333 OFFCURVE",
"1227 357 CURVE SMOOTH",
"1212 383 OFFCURVE",
"1183 389 OFFCURVE",
"1154 375 CURVE SMOOTH",
"1057 328 OFFCURVE",
"933 297 OFFCURVE",
"811 288 CURVE SMOOTH",
"762 284 OFFCURVE",
"726 285 OFFCURVE",
"691 286 CURVE SMOOTH",
"488 292 OFFCURVE",
"371 344 OFFCURVE",
"357 417 CURVE SMOOTH",
"350 461 OFFCURVE",
"375 484 OFFCURVE",
"459 484 CURVE SMOOTH",
"547 484 OFFCURVE",
"625 453 OFFCURVE",
"698 388 CURVE SMOOTH",
"773 324 OFFCURVE",
"827 243 OFFCURVE",
"866 139 CURVE SMOOTH",
"897 58 OFFCURVE",
"909 9 OFFCURVE",
"915 -40 CURVE"
);
},
{
closed = 1;
nodes = (
"868 0 LINE",
"1009 0 LINE",
"994 85 OFFCURVE",
"979 186 OFFCURVE",
"978 306 CURVE",
"978 514 OFFCURVE",
"1039 671 OFFCURVE",
"1104 784 CURVE SMOOTH",
"1165 889 OFFCURVE",
"1212 938 OFFCURVE",
"1299 1013 CURVE",
"1235 1087 LINE",
"1144 1009 OFFCURVE",
"1086 948 OFFCURVE",
"1019 833 CURVE SMOOTH",
"927 673 OFFCURVE",
"880 494 OFFCURVE",
"880 306 CURVE SMOOTH",
"881 167 OFFCURVE",
"900 49 OFFCURVE",
"916 -40 CURVE"
);
}
);
width = 1204;
},
{
associatedMasterId = "AF956123-A183-4F86-8774-5A4F8E572774";
layerId = "3FA0F449-DE1A-4714-8E52-47F9BB7BB308";
name = "Feb 7 19, 00:08";
paths = (
{
closed = 1;
nodes = (
"177 -79 OFFCURVE",
"291 -34 OFFCURVE",
"354 26 CURVE SMOOTH",
"421 88 OFFCURVE",
"518 241 OFFCURVE",
"597 363 CURVE SMOOTH",
"687 504 OFFCURVE",
"824 703 OFFCURVE",
"984 843 CURVE SMOOTH",
"1116 959 OFFCURVE",
"1249 1013 OFFCURVE",
"1361 1013 CURVE SMOOTH",
"1411 1013 OFFCURVE",
"1466 1000 OFFCURVE",
"1517 975 CURVE SMOOTH",
"1544 961 OFFCURVE",
"1573 966 OFFCURVE",
"1589 989 CURVE SMOOTH",
"1605 1012 OFFCURVE",
"1595 1045 OFFCURVE",
"1564 1061 CURVE SMOOTH",
"1500 1093 OFFCURVE",
"1426 1111 OFFCURVE",
"1361 1111 CURVE SMOOTH",
"1218 1111 OFFCURVE",
"1061 1041 OFFCURVE",
"919 917 CURVE SMOOTH",
"750 769 OFFCURVE",
"605 558 OFFCURVE",
"515 416 CURVE SMOOTH",
"435 293 OFFCURVE",
"344 150 OFFCURVE",
"287 97 CURVE SMOOTH",
"242 54 OFFCURVE",
"181 40 OFFCURVE",
"152 61 CURVE SMOOTH",
"135 74 OFFCURVE",
"122 103 OFFCURVE",
"122 140 CURVE SMOOTH",
"122 173 OFFCURVE",
"101 197 OFFCURVE",
"73 197 CURVE SMOOTH",
"45 197 OFFCURVE",
"24 173 OFFCURVE",
"24 140 CURVE SMOOTH",
"24 71 OFFCURVE",
"52 13 OFFCURVE",
"94 -18 CURVE SMOOTH"
);
},
{
closed = 1;
nodes = (
"984 0 LINE",
"984 58 OFFCURVE",
"974 117 OFFCURVE",
"963 173 CURVE SMOOTH",
"939 290 OFFCURVE",
"892 387 OFFCURVE",
"819 462 CURVE SMOOTH",
"740 542 OFFCURVE",
"646 582 OFFCURVE",
"536 582 CURVE SMOOTH",
"403 582 OFFCURVE",
"306 517 OFFCURVE",
"306 400 CURVE SMOOTH",
"306 249 OFFCURVE",
"489 194 OFFCURVE",
"696 188 CURVE SMOOTH",
"731 187 OFFCURVE",
"772 186 OFFCURVE",
"826 190 CURVE SMOOTH",
"966 202 OFFCURVE",
"1113 238 OFFCURVE",
"1222 287 CURVE SMOOTH",
"1254 301 OFFCURVE",
"1266 333 OFFCURVE",
"1252 357 CURVE SMOOTH",
"1238 383 OFFCURVE",
"1209 389 OFFCURVE",
"1180 376 CURVE SMOOTH",
"1065 325 OFFCURVE",
"920 297 OFFCURVE",
"818 288 CURVE SMOOTH",
"769 284 OFFCURVE",
"734 285 OFFCURVE",
"699 286 CURVE SMOOTH",
"586 289 OFFCURVE",
"404 313 OFFCURVE",
"404 400 CURVE SMOOTH",
"404 459 OFFCURVE",
"460 484 OFFCURVE",
"536 484 CURVE SMOOTH",
"614 484 OFFCURVE",
"683 460 OFFCURVE",
"749 393 CURVE SMOOTH",
"815 325 OFFCURVE",
"849 243 OFFCURVE",
"867 153 CURVE SMOOTH",
"878 99 OFFCURVE",
"886 50 OFFCURVE",
"886 0 CURVE"
);
},
{
closed = 1;
nodes = (
"984 0 LINE",
"984 85 OFFCURVE",
"986 186 OFFCURVE",
"1007 306 CURVE SMOOTH",
"1043 514 OFFCURVE",
"1132 671 OFFCURVE",
"1217 784 CURVE SMOOTH",
"1296 889 OFFCURVE",
"1352 938 OFFCURVE",
"1452 1013 CURVE",
"1393 1091 LINE",
"1290 1014 OFFCURVE",
"1224 956 OFFCURVE",
"1139 843 CURVE SMOOTH",
"1020 685 OFFCURVE",
"943 509 OFFCURVE",
"910 323 CURVE SMOOTH",
"887 195 OFFCURVE",
"886 86 OFFCURVE",
"886 0 CURVE"
);
}
);
width = 1357;
}
);
unicode = 0041;
},
{
glyphname = Aacute;
lastChange = "2019-02-07 00:31:01 +0000";
layers = (
{
layerId = master01;
paths = (
{
closed = 1;
nodes = (
"177 -79 OFFCURVE",
"291 -34 OFFCURVE",
"354 26 CURVE SMOOTH",
"410 78 OFFCURVE",
"462 154 OFFCURVE",
"517 240 CURVE SMOOTH",
"528 258 OFFCURVE",
"539 275 OFFCURVE",
"550 293 CURVE",
"594 280 OFFCURVE",
"652 271 OFFCURVE",
"729 268 CURVE SMOOTH",
"773 266 OFFCURVE",
"812 268 OFFCURVE",
"852 271 CURVE",
"869 228 OFFCURVE",
"881 183 OFFCURVE",
"889 142 CURVE SMOOTH",
"898 93 OFFCURVE",
"904 46 OFFCURVE",
"904 0 CURVE",
"922 0 LINE",
"922 20 OFFCURVE",
"922 31 OFFCURVE",
"922 42 CURVE SMOOTH",
"922 130 OFFCURVE",
"930 211 OFFCURVE",
"943 287 CURVE",
"1063 315 OFFCURVE",
"1122 363 OFFCURVE",
"1122 364 CURVE",
"1126 367 OFFCURVE",
"1127 373 OFFCURVE",
"1124 377 CURVE SMOOTH",
"1120 382 OFFCURVE",
"1115 381 OFFCURVE",
"1111 378 CURVE",
"1111 378 OFFCURVE",
"1111 378 OFFCURVE",
"1111 378 CURVE",
"1109 376 OFFCURVE",
"1056 333 OFFCURVE",
"947 306 CURVE",
"988 513 OFFCURVE",
"1072 671 OFFCURVE",
"1157 784 CURVE SMOOTH",
"1216 863 OFFCURVE",
"1275 920 OFFCURVE",
"1319 957 CURVE SMOOTH",
"1341 976 OFFCURVE",
"1359 990 OFFCURVE",
"1372 999 CURVE SMOOTH",
"1375 1001 OFFCURVE",
"1389 1011 OFFCURVE",
"1392 1013 CURVE",
"1438 1010 OFFCURVE",
"1489 997 OFFCURVE",
"1534 966 CURVE",
"1538 963 OFFCURVE",
"1544 963 OFFCURVE",
"1547 967 CURVE SMOOTH",
"1550 971 OFFCURVE",
"1548 977 OFFCURVE",
"1544 980 CURVE SMOOTH",
"1488 1020 OFFCURVE",
"1426 1030 OFFCURVE",
"1372 1030 CURVE SMOOTH",
"1343 1030 OFFCURVE",
"1315 1028 OFFCURVE",
"1293 1024 CURVE SMOOTH",
"1176 1004 OFFCURVE",
"1072 944 OFFCURVE",
"972 857 CURVE SMOOTH",
"873 770 OFFCURVE",
"779 655 OFFCURVE",
"682 524 CURVE SMOOTH",
"674 513 OFFCURVE",
"666 502 OFFCURVE",
"659 491 CURVE",
"632 499 OFFCURVE",
"606 501 OFFCURVE",
"581 501 CURVE SMOOTH",
"542 501 OFFCURVE",
"502 496 OFFCURVE",
"474 472 CURVE SMOOTH",
"451 453 OFFCURVE",
"442 425 OFFCURVE",
"442 400 CURVE SMOOTH",
"442 384 OFFCURVE",
"446 368 OFFCURVE",
"457 353 CURVE",
"471 332 OFFCURVE",
"495 314 OFFCURVE",
"533 299 CURVE",
"504 253 OFFCURVE",
"476 209 OFFCURVE",
"448 168 CURVE SMOOTH",
"413 117 OFFCURVE",
"378 72 OFFCURVE",
"342 39 CURVE SMOOTH",
"278 -22 OFFCURVE",
"177 -54 OFFCURVE",
"104 -4 CURVE SMOOTH",
"74 18 OFFCURVE",
"59 52 OFFCURVE",
"50 81 CURVE",
"42 111 OFFCURVE",
"42 136 OFFCURVE",
"42 139 CURVE SMOOTH",
"42 140 OFFCURVE",
"42 140 OFFCURVE",
"42 140 CURVE",
"42 145 OFFCURVE",
"38 149 OFFCURVE",
"33 149 CURVE SMOOTH",
"28 149 OFFCURVE",
"24 145 OFFCURVE",
"24 140 CURVE",
"24 140 OFFCURVE",
"24 140 OFFCURVE",
"24 139 CURVE SMOOTH",
"24 133 OFFCURVE",
"25 88 OFFCURVE",
"45 43 CURVE SMOOTH",
"55 21 OFFCURVE",
"71 -1 OFFCURVE",
"94 -18 CURVE SMOOTH"
);
},
{
closed = 1;
nodes = (
"504 330 OFFCURVE",
"460 356 OFFCURVE",
"460 400 CURVE SMOOTH",
"460 423 OFFCURVE",
"470 445 OFFCURVE",
"486 458 CURVE SMOOTH",
"512 480 OFFCURVE",
"550 484 OFFCURVE",
"581 484 CURVE SMOOTH",
"606 484 OFFCURVE",
"628 481 OFFCURVE",
"648 476 CURVE",
"610 422 OFFCURVE",
"576 367 OFFCURVE",
"543 315 CURVE"
);
},
{
closed = 1;
nodes = (
"656 288 OFFCURVE",
"601 297 OFFCURVE",
"560 309 CURVE",
"594 362 OFFCURVE",
"628 417 OFFCURVE",
"666 470 CURVE",
"715 454 OFFCURVE",
"753 425 OFFCURVE",
"784 388 CURVE SMOOTH",
"809 359 OFFCURVE",
"829 325 OFFCURVE",
"845 289 CURVE",
"797 285 OFFCURVE",
"764 285 OFFCURVE",
"730 286 CURVE SMOOTH"
);
},
{
closed = 1;
nodes = (
"902 170 OFFCURVE",
"895 200 OFFCURVE",
"885 231 CURVE SMOOTH",
"881 245 OFFCURVE",
"876 259 OFFCURVE",
"870 273 CURVE",
"889 276 OFFCURVE",
"907 279 OFFCURVE",
"924 282 CURVE",
"916 238 OFFCURVE",
"910 191 OFFCURVE",
"907 141 CURVE"
);
},
{
closed = 1;
nodes = (
"847 330 OFFCURVE",
"825 367 OFFCURVE",
"798 400 CURVE SMOOTH",
"767 437 OFFCURVE",
"727 468 OFFCURVE",
"677 486 CURVE",
"683 495 OFFCURVE",
"690 504 OFFCURVE",
"697 513 CURVE SMOOTH",
"793 644 OFFCURVE",
"887 758 OFFCURVE",
"984 843 CURVE SMOOTH",
"1082 929 OFFCURVE",
"1183 987 OFFCURVE",
"1297 1007 CURVE SMOOTH",
"1315 1010 OFFCURVE",
"1337 1012 OFFCURVE",
"1361 1013 CURVE",
"1321 985 OFFCURVE",
"1232 914 OFFCURVE",
"1143 795 CURVE SMOOTH",
"1055 678 OFFCURVE",
"968 516 OFFCURVE",
"928 301 CURVE",
"908 297 OFFCURVE",
"886 294 OFFCURVE",
"863 291 CURVE"
);
},
{
closed = 1;
nodes = (
"1318 1051 OFFCURVE",
"1479 1097 OFFCURVE",
"1624 1189 CURVE",
"1628 1192 OFFCURVE",
"1630 1197 OFFCURVE",
"1627 1202 CURVE",
"1624 1206 OFFCURVE",
"1619 1207 OFFCURVE",
"1614 1204 CURVE SMOOTH",
"1487 1122 OFFCURVE",
"1313 1066 OFFCURVE",
"1159 1086 CURVE",
"1154 1087 OFFCURVE",
"1150 1083 OFFCURVE",
"1149 1079 CURVE",
"1148 1074 OFFCURVE",
"1151 1069 OFFCURVE",
"1156 1068 CURVE"
);
}
);
width = 1208;
},
{
components = (
{
name = A;
},
{
name = acute;
transform = "{1, 0, 0, 1, 1086, 386}";
}
);
layerId = "AF956123-A183-4F86-8774-5A4F8E572774";
width = 1537;
}
);
unicode = 00C1;
},
{
glyphname = Acircumflex;
lastChange = "2019-02-07 00:31:05 +0000";
layers = (
{
layerId = master01;
paths = (
{
closed = 1;
nodes = (
"177 -79 OFFCURVE",
"291 -34 OFFCURVE",
"354 26 CURVE SMOOTH",
"410 78 OFFCURVE",
"462 154 OFFCURVE",
"517 240 CURVE SMOOTH",
"528 258 OFFCURVE",
"539 275 OFFCURVE",
"550 293 CURVE",
"594 280 OFFCURVE",
"652 271 OFFCURVE",
"729 268 CURVE SMOOTH",
"773 266 OFFCURVE",
"812 268 OFFCURVE",
"852 271 CURVE",
"869 228 OFFCURVE",
"881 183 OFFCURVE",
"889 142 CURVE SMOOTH",
"898 93 OFFCURVE",
"904 46 OFFCURVE",
"904 0 CURVE",
"922 0 LINE",
"922 20 OFFCURVE",
"922 31 OFFCURVE",
"922 42 CURVE SMOOTH",
"922 130 OFFCURVE",
"930 211 OFFCURVE",
"943 287 CURVE",
"1063 315 OFFCURVE",
"1122 363 OFFCURVE",
"1122 364 CURVE",
"1126 367 OFFCURVE",
"1127 373 OFFCURVE",
"1124 377 CURVE SMOOTH",
"1120 382 OFFCURVE",
"1115 381 OFFCURVE",
"1111 378 CURVE",
"1111 378 OFFCURVE",
"1111 378 OFFCURVE",
"1111 378 CURVE",
"1109 376 OFFCURVE",
"1056 333 OFFCURVE",
"947 306 CURVE",
"988 513 OFFCURVE",
"1072 671 OFFCURVE",
"1157 784 CURVE SMOOTH",
"1216 863 OFFCURVE",
"1275 920 OFFCURVE",
"1319 957 CURVE SMOOTH",
"1341 976 OFFCURVE",
"1359 990 OFFCURVE",
"1372 999 CURVE SMOOTH",
"1375 1001 OFFCURVE",
"1389 1011 OFFCURVE",
"1392 1013 CURVE",
"1438 1010 OFFCURVE",
"1489 997 OFFCURVE",
"1534 966 CURVE",
"1538 963 OFFCURVE",
"1544 963 OFFCURVE",
"1547 967 CURVE SMOOTH",
"1550 971 OFFCURVE",
"1548 977 OFFCURVE",
"1544 980 CURVE SMOOTH",
"1488 1020 OFFCURVE",
"1426 1030 OFFCURVE",
"1372 1030 CURVE SMOOTH",
"1343 1030 OFFCURVE",
"1315 1028 OFFCURVE",
"1293 1024 CURVE SMOOTH",
"1176 1004 OFFCURVE",
"1072 944 OFFCURVE",
"972 857 CURVE SMOOTH",
"873 770 OFFCURVE",
"779 655 OFFCURVE",
"682 524 CURVE SMOOTH",
"674 513 OFFCURVE",
"666 502 OFFCURVE",
"659 491 CURVE",
"632 499 OFFCURVE",
"606 501 OFFCURVE",
"581 501 CURVE SMOOTH",
"542 501 OFFCURVE",
"502 496 OFFCURVE",
"474 472 CURVE SMOOTH",
"451 453 OFFCURVE",
"442 425 OFFCURVE",
"442 400 CURVE SMOOTH",
"442 384 OFFCURVE",
"446 368 OFFCURVE",
"457 353 CURVE",
"471 332 OFFCURVE",
"495 314 OFFCURVE",
"533 299 CURVE",
"504 253 OFFCURVE",
"476 209 OFFCURVE",
"448 168 CURVE SMOOTH",
"413 117 OFFCURVE",
"378 72 OFFCURVE",
"342 39 CURVE SMOOTH",
"278 -22 OFFCURVE",
"177 -54 OFFCURVE",
"104 -4 CURVE SMOOTH",
"74 18 OFFCURVE",
"59 52 OFFCURVE",
"50 81 CURVE",
"42 111 OFFCURVE",
"42 136 OFFCURVE",
"42 139 CURVE SMOOTH",
"42 140 OFFCURVE",
"42 140 OFFCURVE",
"42 140 CURVE",
"42 145 OFFCURVE",
"38 149 OFFCURVE",
"33 149 CURVE SMOOTH",
"28 149 OFFCURVE",
"24 145 OFFCURVE",
"24 140 CURVE",
"24 140 OFFCURVE",
"24 140 OFFCURVE",
"24 139 CURVE SMOOTH",
"24 133 OFFCURVE",
"25 88 OFFCURVE",
"45 43 CURVE SMOOTH",
"55 21 OFFCURVE",
"71 -1 OFFCURVE",
"94 -18 CURVE SMOOTH"
);
},
{
closed = 1;
nodes = (
"504 330 OFFCURVE",
"460 356 OFFCURVE",
"460 400 CURVE SMOOTH",
"460 423 OFFCURVE",
"470 445 OFFCURVE",
"486 458 CURVE SMOOTH",
"512 480 OFFCURVE",
"550 484 OFFCURVE",
"581 484 CURVE SMOOTH",
"606 484 OFFCURVE",
"628 481 OFFCURVE",
"648 476 CURVE",
"610 422 OFFCURVE",
"576 367 OFFCURVE",
"543 315 CURVE"
);
},
{
closed = 1;
nodes = (
"656 288 OFFCURVE",
"601 297 OFFCURVE",
"560 309 CURVE",
"594 362 OFFCURVE",
"628 417 OFFCURVE",
"666 470 CURVE",
"715 454 OFFCURVE",
"753 425 OFFCURVE",
"784 388 CURVE SMOOTH",
"809 359 OFFCURVE",
"829 325 OFFCURVE",
"845 289 CURVE",
"797 285 OFFCURVE",
"764 285 OFFCURVE",
"730 286 CURVE SMOOTH"
);
},
{
closed = 1;
nodes = (
"902 170 OFFCURVE",
"895 200 OFFCURVE",
"885 231 CURVE SMOOTH",
"881 245 OFFCURVE",
"876 259 OFFCURVE",
"870 273 CURVE",
"889 276 OFFCURVE",
"907 279 OFFCURVE",
"924 282 CURVE",
"916 238 OFFCURVE",
"910 191 OFFCURVE",
"907 141 CURVE"
);
},
{
closed = 1;
nodes = (
"847 330 OFFCURVE",
"825 367 OFFCURVE",
"798 400 CURVE SMOOTH",
"767 437 OFFCURVE",
"727 468 OFFCURVE",
"677 486 CURVE",
"683 495 OFFCURVE",
"690 504 OFFCURVE",
"697 513 CURVE SMOOTH",
"793 644 OFFCURVE",
"887 758 OFFCURVE",
"984 843 CURVE SMOOTH",
"1082 929 OFFCURVE",
"1183 987 OFFCURVE",
"1297 1007 CURVE SMOOTH",
"1315 1010 OFFCURVE",
"1337 1012 OFFCURVE",
"1361 1013 CURVE",
"1321 985 OFFCURVE",
"1232 914 OFFCURVE",
"1143 795 CURVE SMOOTH",
"1055 678 OFFCURVE",
"968 516 OFFCURVE",
"928 301 CURVE",
"908 297 OFFCURVE",
"886 294 OFFCURVE",
"863 291 CURVE"
);
},
{
closed = 1;
nodes = (
"1622 1054 OFFCURVE",
"1626 1058 OFFCURVE",
"1626 1063 CURVE SMOOTH",
"1626 1068 OFFCURVE",
"1622 1072 OFFCURVE",
"1617 1072 CURVE SMOOTH",
"1571 1072 OFFCURVE",
"1539 1093 OFFCURVE",
"1520 1135 CURVE SMOOTH",
"1506 1167 OFFCURVE",
"1506 1200 OFFCURVE",
"1506 1201 CURVE SMOOTH",
"1506 1208 OFFCURVE",
"1497 1212 OFFCURVE",
"1492 1209 CURVE SMOOTH",
"1369 1133 OFFCURVE",
"1259 1112 OFFCURVE",
"1188 1105 CURVE SMOOTH",
"1111 1097 OFFCURVE",
"1061 1108 OFFCURVE",
"1061 1108 CURVE",
"1056 1109 OFFCURVE",
"1051 1106 OFFCURVE",
"1050 1101 CURVE SMOOTH",
"1049 1096 OFFCURVE",
"1052 1091 OFFCURVE",
"1057 1090 CURVE",
"1059 1090 OFFCURVE",
"1109 1079 OFFCURVE",
"1189 1087 CURVE SMOOTH",
"1236 1091 OFFCURVE",
"1283 1101 OFFCURVE",
"1330 1116 CURVE SMOOTH",
"1384 1132 OFFCURVE",
"1437 1156 OFFCURVE",
"1489 1186 CURVE",
"1490 1172 OFFCURVE",
"1494 1150 OFFCURVE",
"1504 1128 CURVE SMOOTH",
"1525 1080 OFFCURVE",
"1564 1054 OFFCURVE",
"1617 1054 CURVE SMOOTH"
);
}
);
width = 1208;
},
{
components = (
{
name = A;
},
{
name = circumflex;
transform = "{1, 0, 0, 1, 954, 461}";
}
);
layerId = "AF956123-A183-4F86-8774-5A4F8E572774";
width = 1537;
}
);
unicode = 00C2;
},
{
glyphname = Adieresis;
lastChange = "2019-02-07 00:31:12 +0000";
layers = (
{
layerId = master01;
paths = (
{
closed = 1;
nodes = (
"177 -79 OFFCURVE",
"291 -34 OFFCURVE",
"354 26 CURVE SMOOTH",
"410 78 OFFCURVE",
"462 154 OFFCURVE",
"517 240 CURVE SMOOTH",
"528 258 OFFCURVE",
"539 275 OFFCURVE",
"550 293 CURVE",
"594 280 OFFCURVE",
"652 271 OFFCURVE",
"729 268 CURVE SMOOTH",
"773 266 OFFCURVE",
"812 268 OFFCURVE",
"852 271 CURVE",
"869 228 OFFCURVE",
"881 183 OFFCURVE",
"889 142 CURVE SMOOTH",
"898 93 OFFCURVE",
"904 46 OFFCURVE",
"904 0 CURVE",
"922 0 LINE",
"922 20 OFFCURVE",
"922 31 OFFCURVE",
"922 42 CURVE SMOOTH",
"922 130 OFFCURVE",
"930 211 OFFCURVE",
"943 287 CURVE",
"1063 315 OFFCURVE",
"1122 363 OFFCURVE",
"1122 364 CURVE",
"1126 367 OFFCURVE",
"1127 373 OFFCURVE",
"1124 377 CURVE SMOOTH",
"1120 382 OFFCURVE",
"1115 381 OFFCURVE",
"1111 378 CURVE",
"1111 378 OFFCURVE",
"1111 378 OFFCURVE",
"1111 378 CURVE",
"1109 376 OFFCURVE",
"1056 333 OFFCURVE",
"947 306 CURVE",
"988 513 OFFCURVE",
"1072 671 OFFCURVE",
"1157 784 CURVE SMOOTH",
"1216 863 OFFCURVE",
"1275 920 OFFCURVE",
"1319 957 CURVE SMOOTH",
"1341 976 OFFCURVE",
"1359 990 OFFCURVE",
"1372 999 CURVE SMOOTH",
"1375 1001 OFFCURVE",
"1389 1011 OFFCURVE",
"1392 1013 CURVE",
"1438 1010 OFFCURVE",
"1489 997 OFFCURVE",
"1534 966 CURVE",
"1538 963 OFFCURVE",
"1544 963 OFFCURVE",
"1547 967 CURVE SMOOTH",
"1550 971 OFFCURVE",
"1548 977 OFFCURVE",
"1544 980 CURVE SMOOTH",
"1488 1020 OFFCURVE",
"1426 1030 OFFCURVE",
"1372 1030 CURVE SMOOTH",
"1343 1030 OFFCURVE",
"1315 1028 OFFCURVE",
"1293 1024 CURVE SMOOTH",
"1176 1004 OFFCURVE",
"1072 944 OFFCURVE",
"972 857 CURVE SMOOTH",
"873 770 OFFCURVE",
"779 655 OFFCURVE",
"682 524 CURVE SMOOTH",
"674 513 OFFCURVE",
"666 502 OFFCURVE",
"659 491 CURVE",
"632 499 OFFCURVE",
"606 501 OFFCURVE",
"581 501 CURVE SMOOTH",
"542 501 OFFCURVE",
"502 496 OFFCURVE",
"474 472 CURVE SMOOTH",
"451 453 OFFCURVE",
"442 425 OFFCURVE",
"442 400 CURVE SMOOTH",
"442 384 OFFCURVE",
"446 368 OFFCURVE",
"457 353 CURVE",
"471 332 OFFCURVE",
"495 314 OFFCURVE",
"533 299 CURVE",
"504 253 OFFCURVE",
"476 209 OFFCURVE",
"448 168 CURVE SMOOTH",
"413 117 OFFCURVE",
"378 72 OFFCURVE",
"342 39 CURVE SMOOTH",
"278 -22 OFFCURVE",
"177 -54 OFFCURVE",
"104 -4 CURVE SMOOTH",
"74 18 OFFCURVE",
"59 52 OFFCURVE",
"50 81 CURVE",
"42 111 OFFCURVE",
"42 136 OFFCURVE",
"42 139 CURVE SMOOTH",
"42 140 OFFCURVE",
"42 140 OFFCURVE",
"42 140 CURVE",
"42 145 OFFCURVE",
"38 149 OFFCURVE",
"33 149 CURVE SMOOTH",
"28 149 OFFCURVE",
"24 145 OFFCURVE",
"24 140 CURVE",
"24 140 OFFCURVE",
"24 140 OFFCURVE",
"24 139 CURVE SMOOTH",
"24 133 OFFCURVE",
"25 88 OFFCURVE",
"45 43 CURVE SMOOTH",
"55 21 OFFCURVE",
"71 -1 OFFCURVE",
"94 -18 CURVE SMOOTH"
);
},
{
closed = 1;
nodes = (
"504 330 OFFCURVE",
"460 356 OFFCURVE",
"460 400 CURVE SMOOTH",
"460 423 OFFCURVE",
"470 445 OFFCURVE",
"486 458 CURVE SMOOTH",
"512 480 OFFCURVE",
"550 484 OFFCURVE",
"581 484 CURVE SMOOTH",
"606 484 OFFCURVE",
"628 481 OFFCURVE",
"648 476 CURVE",
"610 422 OFFCURVE",
"576 367 OFFCURVE",
"543 315 CURVE"
);
},
{
closed = 1;
nodes = (
"656 288 OFFCURVE",
"601 297 OFFCURVE",
"560 309 CURVE",
"594 362 OFFCURVE",
"628 417 OFFCURVE",
"666 470 CURVE",
"715 454 OFFCURVE",
"753 425 OFFCURVE",
"784 388 CURVE SMOOTH",
"809 359 OFFCURVE",
"829 325 OFFCURVE",
"845 289 CURVE",
"797 285 OFFCURVE",
"764 285 OFFCURVE",
"730 286 CURVE SMOOTH"
);
},
{
closed = 1;
nodes = (
"902 170 OFFCURVE",
"895 200 OFFCURVE",
"885 231 CURVE SMOOTH",
"881 245 OFFCURVE",
"876 259 OFFCURVE",
"870 273 CURVE",
"889 276 OFFCURVE",
"907 279 OFFCURVE",
"924 282 CURVE",
"916 238 OFFCURVE",
"910 191 OFFCURVE",
"907 141 CURVE"
);
},
{
closed = 1;
nodes = (
"847 330 OFFCURVE",
"825 367 OFFCURVE",
"798 400 CURVE SMOOTH",
"767 437 OFFCURVE",
"727 468 OFFCURVE",
"677 486 CURVE",
"683 495 OFFCURVE",
"690 504 OFFCURVE",
"697 513 CURVE SMOOTH",
"793 644 OFFCURVE",
"887 758 OFFCURVE",
"984 843 CURVE SMOOTH",
"1082 929 OFFCURVE",
"1183 987 OFFCURVE",
"1297 1007 CURVE SMOOTH",
"1315 1010 OFFCURVE",
"1337 1012 OFFCURVE",
"1361 1013 CURVE",
"1321 985 OFFCURVE",
"1232 914 OFFCURVE",
"1143 795 CURVE SMOOTH",
"1055 678 OFFCURVE",
"968 516 OFFCURVE",
"928 301 CURVE",
"908 297 OFFCURVE",
"886 294 OFFCURVE",
"863 291 CURVE"
);
},
{
closed = 1;
nodes = (
"1322 1066 OFFCURVE",
"1346 1090 OFFCURVE",
"1346 1120 CURVE SMOOTH",
"1346 1150 OFFCURVE",
"1322 1174 OFFCURVE",
"1292 1174 CURVE SMOOTH",
"1262 1174 OFFCURVE",
"1238 1150 OFFCURVE",
"1238 1120 CURVE SMOOTH",
"1238 1090 OFFCURVE",
"1262 1066 OFFCURVE",
"1292 1066 CURVE SMOOTH"
);
},
{
closed = 1;
nodes = (
"1484 1066 OFFCURVE",
"1508 1090 OFFCURVE",
"1508 1120 CURVE SMOOTH",
"1508 1150 OFFCURVE",
"1484 1174 OFFCURVE",
"1454 1174 CURVE SMOOTH",
"1424 1174 OFFCURVE",
"1400 1150 OFFCURVE",
"1400 1120 CURVE SMOOTH",
"1400 1090 OFFCURVE",
"1424 1066 OFFCURVE",
"1454 1066 CURVE SMOOTH"
);
}
);
width = 1208;
},
{
components = (
{
name = A;
},
{
name = dieresis;
transform = "{1, 0, 0, 1, 916, 452}";
}
);
layerId = "AF956123-A183-4F86-8774-5A4F8E572774";
width = 1357;
}
);
unicode = 00C4;
},
{
glyphname = Agrave;
lastChange = "2019-02-07 00:31:18 +0000";
layers = (
{
layerId = master01;
paths = (
{
closed = 1;
nodes = (
"177 -79 OFFCURVE",
"291 -34 OFFCURVE",
"354 26 CURVE SMOOTH",
"410 78 OFFCURVE",
"462 154 OFFCURVE",
"517 240 CURVE SMOOTH",
"528 258 OFFCURVE",
"539 275 OFFCURVE",
"550 293 CURVE",
"594 280 OFFCURVE",
"652 271 OFFCURVE",
"729 268 CURVE SMOOTH",
"773 266 OFFCURVE",
"812 268 OFFCURVE",
"852 271 CURVE",
"869 228 OFFCURVE",
"881 183 OFFCURVE",
"889 142 CURVE SMOOTH",
"898 93 OFFCURVE",
"904 46 OFFCURVE",
"904 0 CURVE",
"922 0 LINE",
"922 20 OFFCURVE",
"922 31 OFFCURVE",
"922 42 CURVE SMOOTH",
"922 130 OFFCURVE",
"930 211 OFFCURVE",
"943 287 CURVE",
"1063 315 OFFCURVE",
"1122 363 OFFCURVE",
"1122 364 CURVE",
"1126 367 OFFCURVE",
"1127 373 OFFCURVE",
"1124 377 CURVE SMOOTH",
"1120 382 OFFCURVE",
"1115 381 OFFCURVE",
"1111 378 CURVE",
"1111 378 OFFCURVE",
"1111 378 OFFCURVE",
"1111 378 CURVE",
"1109 376 OFFCURVE",
"1056 333 OFFCURVE",
"947 306 CURVE",
"988 513 OFFCURVE",
"1072 671 OFFCURVE",
"1157 784 CURVE SMOOTH",
"1216 863 OFFCURVE",
"1275 920 OFFCURVE",
"1319 957 CURVE SMOOTH",
"1341 976 OFFCURVE",
"1359 990 OFFCURVE",
"1372 999 CURVE SMOOTH",
"1375 1001 OFFCURVE",
"1389 1011 OFFCURVE",
"1392 1013 CURVE",
"1438 1010 OFFCURVE",
"1489 997 OFFCURVE",
"1534 966 CURVE",
"1538 963 OFFCURVE",
"1544 963 OFFCURVE",
"1547 967 CURVE SMOOTH",
"1550 971 OFFCURVE",
"1548 977 OFFCURVE",
"1544 980 CURVE SMOOTH",
"1488 1020 OFFCURVE",
"1426 1030 OFFCURVE",
"1372 1030 CURVE SMOOTH",
"1343 1030 OFFCURVE",
"1315 1028 OFFCURVE",
"1293 1024 CURVE SMOOTH",
"1176 1004 OFFCURVE",
"1072 944 OFFCURVE",
"972 857 CURVE SMOOTH",
"873 770 OFFCURVE",
"779 655 OFFCURVE",
"682 524 CURVE SMOOTH",
"674 513 OFFCURVE",
"666 502 OFFCURVE",
"659 491 CURVE",
"632 499 OFFCURVE",
"606 501 OFFCURVE",
"581 501 CURVE SMOOTH",
"542 501 OFFCURVE",
"502 496 OFFCURVE",
"474 472 CURVE SMOOTH",
"451 453 OFFCURVE",
"442 425 OFFCURVE",
"442 400 CURVE SMOOTH",
"442 384 OFFCURVE",
"446 368 OFFCURVE",
"457 353 CURVE",
"471 332 OFFCURVE",
"495 314 OFFCURVE",
"533 299 CURVE",
"504 253 OFFCURVE",
"476 209 OFFCURVE",
"448 168 CURVE SMOOTH",
"413 117 OFFCURVE",
"378 72 OFFCURVE",
"342 39 CURVE SMOOTH",
"278 -22 OFFCURVE",
"177 -54 OFFCURVE",
"104 -4 CURVE SMOOTH",
"74 18 OFFCURVE",
"59 52 OFFCURVE",
"50 81 CURVE",
"42 111 OFFCURVE",
"42 136 OFFCURVE",
"42 139 CURVE SMOOTH",
"42 140 OFFCURVE",
"42 140 OFFCURVE",
"42 140 CURVE",
"42 145 OFFCURVE",
"38 149 OFFCURVE",
"33 149 CURVE SMOOTH",
"28 149 OFFCURVE",
"24 145 OFFCURVE",
"24 140 CURVE",
"24 140 OFFCURVE",
"24 140 OFFCURVE",
"24 139 CURVE SMOOTH",
"24 133 OFFCURVE",
"25 88 OFFCURVE",
"45 43 CURVE SMOOTH",
"55 21 OFFCURVE",
"71 -1 OFFCURVE",
"94 -18 CURVE SMOOTH"
);
},
{
closed = 1;
nodes = (
"504 330 OFFCURVE",
"460 356 OFFCURVE",
"460 400 CURVE SMOOTH",
"460 423 OFFCURVE",
"470 445 OFFCURVE",
"486 458 CURVE SMOOTH",
"512 480 OFFCURVE",
"550 484 OFFCURVE",
"581 484 CURVE SMOOTH",
"606 484 OFFCURVE",
"628 481 OFFCURVE",
"648 476 CURVE",
"610 422 OFFCURVE",
"576 367 OFFCURVE",
"543 315 CURVE"
);
},
{
closed = 1;
nodes = (
"656 288 OFFCURVE",
"601 297 OFFCURVE",
"560 309 CURVE",
"594 362 OFFCURVE",
"628 417 OFFCURVE",
"666 470 CURVE",
"715 454 OFFCURVE",
"753 425 OFFCURVE",
"784 388 CURVE SMOOTH",
"809 359 OFFCURVE",
"829 325 OFFCURVE",
"845 289 CURVE",
"797 285 OFFCURVE",
"764 285 OFFCURVE",
"730 286 CURVE SMOOTH"
);
},
{
closed = 1;
nodes = (
"902 170 OFFCURVE",
"895 200 OFFCURVE",
"885 231 CURVE SMOOTH",
"881 245 OFFCURVE",
"876 259 OFFCURVE",
"870 273 CURVE",
"889 276 OFFCURVE",
"907 279 OFFCURVE",
"924 282 CURVE",
"916 238 OFFCURVE",
"910 191 OFFCURVE",
"907 141 CURVE"
);
},
{
closed = 1;
nodes = (
"847 330 OFFCURVE",
"825 367 OFFCURVE",
"798 400 CURVE SMOOTH",
"767 437 OFFCURVE",
"727 468 OFFCURVE",
"677 486 CURVE",
"683 495 OFFCURVE",
"690 504 OFFCURVE",
"697 513 CURVE SMOOTH",
"793 644 OFFCURVE",
"887 758 OFFCURVE",
"984 843 CURVE SMOOTH",
"1082 929 OFFCURVE",
"1183 987 OFFCURVE",
"1297 1007 CURVE SMOOTH",
"1315 1010 OFFCURVE",
"1337 1012 OFFCURVE",
"1361 1013 CURVE",
"1321 985 OFFCURVE",
"1232 914 OFFCURVE",
"1143 795 CURVE SMOOTH",
"1055 678 OFFCURVE",
"968 516 OFFCURVE",
"928 301 CURVE",
"908 297 OFFCURVE",
"886 294 OFFCURVE",
"863 291 CURVE"
);
},
{
closed = 1;
nodes = (
"1461 1078 OFFCURVE",
"1481 1079 OFFCURVE",
"1501 1081 CURVE",
"1506 1081 OFFCURVE",
"1510 1086 OFFCURVE",
"1510 1091 CURVE",
"1509 1096 OFFCURVE",
"1505 1099 OFFCURVE",
"1500 1099 CURVE",
"1367 1088 OFFCURVE",
"1201 1112 OFFCURVE",
"1152 1259 CURVE SMOOTH",
"1144 1286 OFFCURVE",
"1144 1306 OFFCURVE",
"1144 1306 CURVE",
"1144 1311 OFFCURVE",
"1140 1315 OFFCURVE",
"1135 1315 CURVE SMOOTH",
"1130 1315 OFFCURVE",
"1126 1311 OFFCURVE",
"1126 1306 CURVE SMOOTH",
"1126 1305 OFFCURVE",
"1126 1284 OFFCURVE",
"1135 1255 CURVE SMOOTH",
"1173 1126 OFFCURVE",
"1311 1078 OFFCURVE",
"1441 1078 CURVE SMOOTH"
);
}
);
width = 1208;
},
{
components = (
{
name = A;
},
{
name = grave;
transform = "{1, 0, 0, 1, 978, 440}";
}
);
layerId = "AF956123-A183-4F86-8774-5A4F8E572774";
width = 1357;
}
);
unicode = 00C0;
},
{
glyphname = Aring;
lastChange = "2019-02-07 00:31:21 +0000";
layers = (
{
layerId = master01;
paths = (
{
closed = 1;
nodes = (
"177 -79 OFFCURVE",
"291 -34 OFFCURVE",
"354 26 CURVE SMOOTH",
"410 78 OFFCURVE",
"462 154 OFFCURVE",
"517 240 CURVE SMOOTH",
"528 258 OFFCURVE",
"539 275 OFFCURVE",
"550 293 CURVE",
"594 280 OFFCURVE",
"652 271 OFFCURVE",
"729 268 CURVE SMOOTH",
"773 266 OFFCURVE",
"812 268 OFFCURVE",
"852 271 CURVE",
"869 228 OFFCURVE",
"881 183 OFFCURVE",
"889 142 CURVE SMOOTH",
"898 93 OFFCURVE",
"904 46 OFFCURVE",
"904 0 CURVE",
"922 0 LINE",
"922 20 OFFCURVE",
"922 31 OFFCURVE",
"922 42 CURVE SMOOTH",
"922 130 OFFCURVE",
"930 211 OFFCURVE",
"943 287 CURVE",
"1063 315 OFFCURVE",
"1122 363 OFFCURVE",
"1122 364 CURVE",
"1126 367 OFFCURVE",
"1127 373 OFFCURVE",
"1124 377 CURVE SMOOTH",
"1120 382 OFFCURVE",
"1115 381 OFFCURVE",
"1111 378 CURVE",
"1111 378 OFFCURVE",
"1111 378 OFFCURVE",
"1111 378 CURVE",
"1109 376 OFFCURVE",
"1056 333 OFFCURVE",
"947 306 CURVE",
"988 513 OFFCURVE",
"1072 671 OFFCURVE",
"1157 784 CURVE SMOOTH",
"1216 863 OFFCURVE",
"1275 920 OFFCURVE",
"1319 957 CURVE SMOOTH",
"1341 976 OFFCURVE",
"1359 990 OFFCURVE",
"1372 999 CURVE SMOOTH",
"1375 1001 OFFCURVE",
"1389 1011 OFFCURVE",
"1392 1013 CURVE",
"1438 1010 OFFCURVE",
"1489 997 OFFCURVE",
"1534 966 CURVE",
"1538 963 OFFCURVE",
"1544 963 OFFCURVE",
"1547 967 CURVE SMOOTH",
"1550 971 OFFCURVE",
"1548 977 OFFCURVE",
"1544 980 CURVE SMOOTH",
"1488 1020 OFFCURVE",
"1426 1030 OFFCURVE",
"1372 1030 CURVE SMOOTH",
"1343 1030 OFFCURVE",
"1315 1028 OFFCURVE",
"1293 1024 CURVE SMOOTH",
"1176 1004 OFFCURVE",
"1072 944 OFFCURVE",
"972 857 CURVE SMOOTH",
"873 770 OFFCURVE",
"779 655 OFFCURVE",
"682 524 CURVE SMOOTH",
"674 513 OFFCURVE",
"666 502 OFFCURVE",
"659 491 CURVE",
"632 499 OFFCURVE",
"606 501 OFFCURVE",
"581 501 CURVE SMOOTH",
"542 501 OFFCURVE",
"502 496 OFFCURVE",
"474 472 CURVE SMOOTH",
"451 453 OFFCURVE",
"442 425 OFFCURVE",
"442 400 CURVE SMOOTH",
"442 384 OFFCURVE",
"446 368 OFFCURVE",
"457 353 CURVE",
"471 332 OFFCURVE",
"495 314 OFFCURVE",
"533 299 CURVE",
"504 253 OFFCURVE",
"476 209 OFFCURVE",
"448 168 CURVE SMOOTH",
"413 117 OFFCURVE",
"378 72 OFFCURVE",
"342 39 CURVE SMOOTH",
"278 -22 OFFCURVE",
"177 -54 OFFCURVE",
"104 -4 CURVE SMOOTH",
"74 18 OFFCURVE",
"59 52 OFFCURVE",
"50 81 CURVE",
"42 111 OFFCURVE",
"42 136 OFFCURVE",
"42 139 CURVE SMOOTH",
"42 140 OFFCURVE",
"42 140 OFFCURVE",
"42 140 CURVE",
"42 145 OFFCURVE",
"38 149 OFFCURVE",
"33 149 CURVE SMOOTH",
"28 149 OFFCURVE",
"24 145 OFFCURVE",
"24 140 CURVE",
"24 140 OFFCURVE",
"24 140 OFFCURVE",
"24 139 CURVE SMOOTH",
"24 133 OFFCURVE",
"25 88 OFFCURVE",
"45 43 CURVE SMOOTH",
"55 21 OFFCURVE",
"71 -1 OFFCURVE",
"94 -18 CURVE SMOOTH"
);
},
{
closed = 1;
nodes = (
"504 330 OFFCURVE",
"460 356 OFFCURVE",
"460 400 CURVE SMOOTH",
"460 423 OFFCURVE",
"470 445 OFFCURVE",
"486 458 CURVE SMOOTH",
"512 480 OFFCURVE",
"550 484 OFFCURVE",
"581 484 CURVE SMOOTH",
"606 484 OFFCURVE",
"628 481 OFFCURVE",
"648 476 CURVE",
"610 422 OFFCURVE",
"576 367 OFFCURVE",
"543 315 CURVE"
);
},
{
closed = 1;
nodes = (
"656 288 OFFCURVE",
"601 297 OFFCURVE",
"560 309 CURVE",
"594 362 OFFCURVE",
"628 417 OFFCURVE",
"666 470 CURVE",
"715 454 OFFCURVE",
"753 425 OFFCURVE",
"784 388 CURVE SMOOTH",
"809 359 OFFCURVE",
"829 325 OFFCURVE",
"845 289 CURVE",
"797 285 OFFCURVE",
"764 285 OFFCURVE",
"730 286 CURVE SMOOTH"
);
},
{
closed = 1;
nodes = (
"902 170 OFFCURVE",
"895 200 OFFCURVE",
"885 231 CURVE SMOOTH",
"881 245 OFFCURVE",
"876 259 OFFCURVE",
"870 273 CURVE",
"889 276 OFFCURVE",
"907 279 OFFCURVE",
"924 282 CURVE",
"916 238 OFFCURVE",
"910 191 OFFCURVE",
"907 141 CURVE"
);
},
{
closed = 1;
nodes = (
"847 330 OFFCURVE",
"825 367 OFFCURVE",
"798 400 CURVE SMOOTH",
"767 437 OFFCURVE",
"727 468 OFFCURVE",
"677 486 CURVE",
"683 495 OFFCURVE",
"690 504 OFFCURVE",
"697 513 CURVE SMOOTH",
"793 644 OFFCURVE",
"887 758 OFFCURVE",
"984 843 CURVE SMOOTH",
"1082 929 OFFCURVE",
"1183 987 OFFCURVE",
"1297 1007 CURVE SMOOTH",
"1315 1010 OFFCURVE",
"1337 1012 OFFCURVE",
"1361 1013 CURVE",
"1321 985 OFFCURVE",
"1232 914 OFFCURVE",
"1143 795 CURVE SMOOTH",
"1055 678 OFFCURVE",
"968 516 OFFCURVE",
"928 301 CURVE",
"908 297 OFFCURVE",
"886 294 OFFCURVE",
"863 291 CURVE"
);
},
{
closed = 1;
nodes = (
"1467 1052 OFFCURVE",
"1521 1106 OFFCURVE",
"1521 1173 CURVE SMOOTH",
"1521 1240 OFFCURVE",
"1467 1294 OFFCURVE",
"1400 1294 CURVE SMOOTH",
"1333 1294 OFFCURVE",
"1279 1240 OFFCURVE",
"1279 1173 CURVE SMOOTH",
"1279 1106 OFFCURVE",
"1333 1052 OFFCURVE",
"1400 1052 CURVE SMOOTH"
);
},
{
closed = 1;
nodes = (
"1343 1070 OFFCURVE",
"1297 1116 OFFCURVE",
"1297 1173 CURVE SMOOTH",
"1297 1230 OFFCURVE",
"1343 1276 OFFCURVE",
"1400 1276 CURVE SMOOTH",
"1457 1276 OFFCURVE",
"1503 1230 OFFCURVE",
"1503 1173 CURVE SMOOTH",
"1503 1116 OFFCURVE",
"1457 1070 OFFCURVE",
"1400 1070 CURVE SMOOTH"
);
}
);
width = 1208;
},
{
components = (
{
name = A;
},
{
name = ring;
transform = "{1, 0, 0, 1, 1053, 434}";
}
);
layerId = "AF956123-A183-4F86-8774-5A4F8E572774";
width = 1357;
}
);
unicode = 00C5;
},
{
glyphname = Atilde;
lastChange = "2019-02-07 00:31:25 +0000";
layers = (
{
layerId = master01;
paths = (
{
closed = 1;
nodes = (
"177 -79 OFFCURVE",
"291 -34 OFFCURVE",
"354 26 CURVE SMOOTH",
"410 78 OFFCURVE",
"462 154 OFFCURVE",
"517 240 CURVE SMOOTH",
"528 258 OFFCURVE",
"539 275 OFFCURVE",
"550 293 CURVE",
"594 280 OFFCURVE",
"652 271 OFFCURVE",
"729 268 CURVE SMOOTH",
"773 266 OFFCURVE",
"812 268 OFFCURVE",
"852 271 CURVE",
"869 228 OFFCURVE",
"881 183 OFFCURVE",
"889 142 CURVE SMOOTH",
"898 93 OFFCURVE",
"904 46 OFFCURVE",
"904 0 CURVE",
"922 0 LINE",
"922 20 OFFCURVE",
"922 31 OFFCURVE",
"922 42 CURVE SMOOTH",
"922 130 OFFCURVE",
"930 211 OFFCURVE",
"943 287 CURVE",
"1063 315 OFFCURVE",
"1122 363 OFFCURVE",
"1122 364 CURVE",
"1126 367 OFFCURVE",
"1127 373 OFFCURVE",
"1124 377 CURVE SMOOTH",
"1120 382 OFFCURVE",
"1115 381 OFFCURVE",
"1111 378 CURVE",
"1111 378 OFFCURVE",
"1111 378 OFFCURVE",
"1111 378 CURVE",
"1109 376 OFFCURVE",
"1056 333 OFFCURVE",
"947 306 CURVE",
"988 513 OFFCURVE",
"1072 671 OFFCURVE",
"1157 784 CURVE SMOOTH",
"1216 863 OFFCURVE",
"1275 920 OFFCURVE",
"1319 957 CURVE SMOOTH",
"1341 976 OFFCURVE",
"1359 990 OFFCURVE",
"1372 999 CURVE SMOOTH",
"1375 1001 OFFCURVE",
"1389 1011 OFFCURVE",
"1392 1013 CURVE",
"1438 1010 OFFCURVE",
"1489 997 OFFCURVE",
"1534 966 CURVE",
"1538 963 OFFCURVE",
"1544 963 OFFCURVE",
"1547 967 CURVE SMOOTH",
"1550 971 OFFCURVE",
"1548 977 OFFCURVE",
"1544 980 CURVE SMOOTH",
"1488 1020 OFFCURVE",
"1426 1030 OFFCURVE",
"1372 1030 CURVE SMOOTH",
"1343 1030 OFFCURVE",
"1315 1028 OFFCURVE",
"1293 1024 CURVE SMOOTH",
"1176 1004 OFFCURVE",
"1072 944 OFFCURVE",
"972 857 CURVE SMOOTH",
"873 770 OFFCURVE",
"779 655 OFFCURVE",
"682 524 CURVE SMOOTH",
"674 513 OFFCURVE",
"666 502 OFFCURVE",
"659 491 CURVE",
"632 499 OFFCURVE",
"606 501 OFFCURVE",
"581 501 CURVE SMOOTH",
"542 501 OFFCURVE",
"502 496 OFFCURVE",
"474 472 CURVE SMOOTH",
"451 453 OFFCURVE",
"442 425 OFFCURVE",
"442 400 CURVE SMOOTH",
"442 384 OFFCURVE",
"446 368 OFFCURVE",
"457 353 CURVE",
"471 332 OFFCURVE",
"495 314 OFFCURVE",
"533 299 CURVE",
"504 253 OFFCURVE",
"476 209 OFFCURVE",
"448 168 CURVE SMOOTH",
"413 117 OFFCURVE",
"378 72 OFFCURVE",
"342 39 CURVE SMOOTH",
"278 -22 OFFCURVE",
"177 -54 OFFCURVE",
"104 -4 CURVE SMOOTH",
"74 18 OFFCURVE",
"59 52 OFFCURVE",
"50 81 CURVE",
"42 111 OFFCURVE",
"42 136 OFFCURVE",
"42 139 CURVE SMOOTH",
"42 140 OFFCURVE",
"42 140 OFFCURVE",
"42 140 CURVE",
"42 145 OFFCURVE",
"38 149 OFFCURVE",
"33 149 CURVE SMOOTH",
"28 149 OFFCURVE",
"24 145 OFFCURVE",
"24 140 CURVE",
"24 140 OFFCURVE",
"24 140 OFFCURVE",
"24 139 CURVE SMOOTH",
"24 133 OFFCURVE",
"25 88 OFFCURVE",
"45 43 CURVE SMOOTH",
"55 21 OFFCURVE",
"71 -1 OFFCURVE",
"94 -18 CURVE SMOOTH"
);
},
{
closed = 1;
nodes = (
"504 330 OFFCURVE",
"460 356 OFFCURVE",
"460 400 CURVE SMOOTH",
"460 423 OFFCURVE",
"470 445 OFFCURVE",
"486 458 CURVE SMOOTH",
"512 480 OFFCURVE",
"550 484 OFFCURVE",
"581 484 CURVE SMOOTH",
"606 484 OFFCURVE",
"628 481 OFFCURVE",
"648 476 CURVE",
"610 422 OFFCURVE",
"576 367 OFFCURVE",
"543 315 CURVE"
);
},
{
closed = 1;
nodes = (
"656 288 OFFCURVE",
"601 297 OFFCURVE",
"560 309 CURVE",
"594 362 OFFCURVE",
"628 417 OFFCURVE",
"666 470 CURVE",
"715 454 OFFCURVE",
"753 425 OFFCURVE",
"784 388 CURVE SMOOTH",
"809 359 OFFCURVE",
"829 325 OFFCURVE",
"845 289 CURVE",
"797 285 OFFCURVE",
"764 285 OFFCURVE",
"730 286 CURVE SMOOTH"
);
},
{
closed = 1;
nodes = (
"902 170 OFFCURVE",
"895 200 OFFCURVE",
"885 231 CURVE SMOOTH",
"881 245 OFFCURVE",
"876 259 OFFCURVE",
"870 273 CURVE",
"889 276 OFFCURVE",
"907 279 OFFCURVE",
"924 282 CURVE",
"916 238 OFFCURVE",
"910 191 OFFCURVE",
"907 141 CURVE"
);
},
{
closed = 1;
nodes = (
"847 330 OFFCURVE",
"825 367 OFFCURVE",
"798 400 CURVE SMOOTH",
"767 437 OFFCURVE",
"727 468 OFFCURVE",
"677 486 CURVE",
"683 495 OFFCURVE",
"690 504 OFFCURVE",
"697 513 CURVE SMOOTH",
"793 644 OFFCURVE",
"887 758 OFFCURVE",
"984 843 CURVE SMOOTH",
"1082 929 OFFCURVE",
"1183 987 OFFCURVE",
"1297 1007 CURVE SMOOTH",
"1315 1010 OFFCURVE",
"1337 1012 OFFCURVE",
"1361 1013 CURVE",
"1321 985 OFFCURVE",
"1232 914 OFFCURVE",
"1143 795 CURVE SMOOTH",
"1055 678 OFFCURVE",
"968 516 OFFCURVE",
"928 301 CURVE",
"908 297 OFFCURVE",
"886 294 OFFCURVE",
"863 291 CURVE"
);
},
{
closed = 1;
nodes = (
"1373 1059 OFFCURVE",
"1425 1167 OFFCURVE",
"1499 1151 CURVE SMOOTH",
"1573 1135 OFFCURVE",
"1561 1073 OFFCURVE",
"1560 1070 CURVE",
"1559 1065 OFFCURVE",
"1562 1060 OFFCURVE",
"1567 1059 CURVE SMOOTH",
"1573 1058 OFFCURVE",
"1577 1062 OFFCURVE",
"1578 1066 CURVE",
"1578 1067 OFFCURVE",
"1582 1087 OFFCURVE",
"1575 1109 CURVE SMOOTH",
"1568 1130 OFFCURVE",
"1551 1157 OFFCURVE",
"1503 1169 CURVE SMOOTH",
"1414 1189 OFFCURVE",
"1367 1077 OFFCURVE",
"1281 1077 CURVE SMOOTH",
"1262 1077 OFFCURVE",
"1249 1082 OFFCURVE",
"1241 1093 CURVE SMOOTH",
"1223 1117 OFFCURVE",
"1237 1160 OFFCURVE",
"1238 1161 CURVE",
"1239 1166 OFFCURVE",
"1237 1171 OFFCURVE",
"1232 1173 CURVE",
"1227 1174 OFFCURVE",
"1222 1172 OFFCURVE",
"1220 1167 CURVE",
"1220 1165 OFFCURVE",
"1203 1114 OFFCURVE",
"1226 1083 CURVE",
"1237 1067 OFFCURVE",
"1256 1059 OFFCURVE",
"1281 1059 CURVE SMOOTH"
);
}
);
width = 1208;
},
{
components = (
{
name = A;
},
{
name = tilde;
transform = "{1, 0, 0, 1, 987, 430}";
}
);
layerId = "AF956123-A183-4F86-8774-5A4F8E572774";
width = 1357;
}
);
unicode = 00C3;
},
{
glyphname = AE;
lastChange = "2018-12-25 11:47:40 +0000";
layers = (
{
layerId = master01;
paths = (
{
closed = 1;
nodes = (
"198 -79 OFFCURVE",
"312 -34 OFFCURVE",
"375 26 CURVE SMOOTH",
"431 78 OFFCURVE",
"483 154 OFFCURVE",
"538 240 CURVE SMOOTH",
"549 258 OFFCURVE",
"560 275 OFFCURVE",
"571 293 CURVE",
"615 280 OFFCURVE",
"673 271 OFFCURVE",
"750 268 CURVE SMOOTH",
"794 266 OFFCURVE",
"833 268 OFFCURVE",
"873 271 CURVE",
"890 228 OFFCURVE",
"902 183 OFFCURVE",
"910 142 CURVE SMOOTH",
"919 93 OFFCURVE",
"925 46 OFFCURVE",
"925 0 CURVE",
"943 0 LINE",
"943 20 OFFCURVE",
"943 31 OFFCURVE",
"943 42 CURVE SMOOTH",
"943 130 OFFCURVE",
"951 211 OFFCURVE",
"964 287 CURVE",
"1084 315 OFFCURVE",
"1143 363 OFFCURVE",
"1143 364 CURVE",
"1147 367 OFFCURVE",
"1148 373 OFFCURVE",
"1145 377 CURVE SMOOTH",
"1141 382 OFFCURVE",
"1136 381 OFFCURVE",
"1132 378 CURVE",
"1132 378 OFFCURVE",
"1132 378 OFFCURVE",
"1132 378 CURVE",
"1130 376 OFFCURVE",
"1077 333 OFFCURVE",
"968 306 CURVE",
"1009 513 OFFCURVE",
"1093 671 OFFCURVE",
"1178 784 CURVE SMOOTH",
"1237 863 OFFCURVE",
"1296 920 OFFCURVE",
"1340 957 CURVE SMOOTH",
"1362 976 OFFCURVE",
"1380 990 OFFCURVE",
"1393 999 CURVE SMOOTH",
"1396 1001 OFFCURVE",
"1410 1011 OFFCURVE",
"1413 1013 CURVE",
"1459 1010 OFFCURVE",
"1510 997 OFFCURVE",
"1555 966 CURVE",
"1559 963 OFFCURVE",
"1565 963 OFFCURVE",
"1568 967 CURVE SMOOTH",
"1571 971 OFFCURVE",
"1569 977 OFFCURVE",
"1565 980 CURVE SMOOTH",
"1509 1020 OFFCURVE",
"1447 1030 OFFCURVE",
"1393 1030 CURVE SMOOTH",
"1364 1030 OFFCURVE",
"1336 1028 OFFCURVE",
"1314 1024 CURVE SMOOTH",
"1197 1004 OFFCURVE",
"1093 944 OFFCURVE",
"993 857 CURVE SMOOTH",
"894 770 OFFCURVE",
"800 655 OFFCURVE",
"703 524 CURVE SMOOTH",
"695 513 OFFCURVE",
"687 502 OFFCURVE",
"680 491 CURVE",
"653 499 OFFCURVE",
"627 501 OFFCURVE",
"602 501 CURVE SMOOTH",
"563 501 OFFCURVE",
"523 496 OFFCURVE",
"495 472 CURVE SMOOTH",
"472 453 OFFCURVE",
"463 425 OFFCURVE",
"463 400 CURVE SMOOTH",
"463 384 OFFCURVE",
"467 368 OFFCURVE",
"478 353 CURVE",
"492 332 OFFCURVE",
"516 314 OFFCURVE",
"554 299 CURVE",
"525 253 OFFCURVE",
"497 209 OFFCURVE",
"469 168 CURVE SMOOTH",
"434 117 OFFCURVE",
"399 72 OFFCURVE",
"363 39 CURVE SMOOTH",
"299 -22 OFFCURVE",
"198 -54 OFFCURVE",
"125 -4 CURVE SMOOTH",
"95 18 OFFCURVE",
"80 52 OFFCURVE",
"71 81 CURVE",
"63 111 OFFCURVE",
"63 136 OFFCURVE",
"63 139 CURVE SMOOTH",
"63 140 OFFCURVE",
"63 140 OFFCURVE",
"63 140 CURVE",
"63 145 OFFCURVE",
"59 149 OFFCURVE",
"54 149 CURVE SMOOTH",
"49 149 OFFCURVE",
"45 145 OFFCURVE",
"45 140 CURVE",
"45 140 OFFCURVE",
"45 140 OFFCURVE",
"45 139 CURVE SMOOTH",
"45 133 OFFCURVE",
"46 88 OFFCURVE",
"66 43 CURVE SMOOTH",
"76 21 OFFCURVE",
"92 -1 OFFCURVE",
"115 -18 CURVE SMOOTH"
);
},
{
closed = 1;
nodes = (
"525 330 OFFCURVE",
"481 356 OFFCURVE",
"481 400 CURVE SMOOTH",
"481 423 OFFCURVE",
"491 445 OFFCURVE",
"507 458 CURVE SMOOTH",
"533 480 OFFCURVE",
"571 484 OFFCURVE",
"602 484 CURVE SMOOTH",
"627 484 OFFCURVE",
"649 481 OFFCURVE",
"669 476 CURVE",
"631 422 OFFCURVE",
"597 367 OFFCURVE",
"564 315 CURVE"
);
},
{
closed = 1;
nodes = (
"677 288 OFFCURVE",
"622 297 OFFCURVE",
"581 309 CURVE",
"615 362 OFFCURVE",
"649 417 OFFCURVE",
"687 470 CURVE",
"736 454 OFFCURVE",
"774 425 OFFCURVE",
"805 388 CURVE SMOOTH",
"830 359 OFFCURVE",
"850 325 OFFCURVE",
"866 289 CURVE",
"818 285 OFFCURVE",
"785 285 OFFCURVE",
"751 286 CURVE SMOOTH"
);
},
{
closed = 1;
nodes = (
"923 170 OFFCURVE",
"916 200 OFFCURVE",
"906 231 CURVE SMOOTH",
"902 245 OFFCURVE",
"897 259 OFFCURVE",
"891 273 CURVE",
"910 276 OFFCURVE",
"928 279 OFFCURVE",
"945 282 CURVE",
"937 238 OFFCURVE",
"931 191 OFFCURVE",
"928 141 CURVE"
);
},
{
closed = 1;
nodes = (
"868 330 OFFCURVE",
"846 367 OFFCURVE",
"819 400 CURVE SMOOTH",
"788 437 OFFCURVE",
"748 468 OFFCURVE",
"698 486 CURVE",
"704 495 OFFCURVE",
"711 504 OFFCURVE",
"718 513 CURVE SMOOTH",
"814 644 OFFCURVE",
"908 758 OFFCURVE",
"1005 843 CURVE SMOOTH",
"1103 929 OFFCURVE",
"1204 987 OFFCURVE",
"1318 1007 CURVE SMOOTH",
"1336 1010 OFFCURVE",
"1358 1012 OFFCURVE",
"1382 1013 CURVE",
"1342 985 OFFCURVE",
"1253 914 OFFCURVE",
"1164 795 CURVE SMOOTH",
"1076 678 OFFCURVE",
"989 516 OFFCURVE",
"949 301 CURVE",
"929 297 OFFCURVE",
"907 294 OFFCURVE",
"884 291 CURVE"
);
},
{
closed = 1;
nodes = (
"1430 0 OFFCURVE",
"1569 83 OFFCURVE",
"1646 232 CURVE SMOOTH",
"1648 236 OFFCURVE",
"1646 242 OFFCURVE",
"1641 244 CURVE",
"1637 246 OFFCURVE",
"1631 244 OFFCURVE",
"1629 239 CURVE",
"1561 99 OFFCURVE",
"1420 18 OFFCURVE",
"1265 18 CURVE SMOOTH",
"1190 18 OFFCURVE",
"1104 52 OFFCURVE",
"1055 117 CURVE SMOOTH",
"1021 165 OFFCURVE",
"1015 223 OFFCURVE",
"1023 292 CURVE",
"1035 364 OFFCURVE",
"1069 429 OFFCURVE",
"1127 478 CURVE SMOOTH",
"1171 517 OFFCURVE",
"1226 545 OFFCURVE",
"1287 557 CURVE",
"1295 542 OFFCURVE",
"1309 526 OFFCURVE",
"1323 515 CURVE SMOOTH",
"1356 488 OFFCURVE",
"1448 462 OFFCURVE",
"1466 511 CURVE",
"1478 557 OFFCURVE",
"1430 577 OFFCURVE",
"1389 581 CURVE SMOOTH",
"1358 583 OFFCURVE",
"1328 583 OFFCURVE",
"1297 577 CURVE",
"1276 626 OFFCURVE",
"1276 685 OFFCURVE",
"1292 743 CURVE",
"1349 696 OFFCURVE",
"1414 677 OFFCURVE",
"1491 674 CURVE",
"1574 674 OFFCURVE",
"1658 711 OFFCURVE",
"1706 777 CURVE SMOOTH",
"1739 825 OFFCURVE",
"1741 897 OFFCURVE",
"1697 941 CURVE",
"1654 981 OFFCURVE",
"1590 983 OFFCURVE",
"1532 976 CURVE",
"1531 976 OFFCURVE",
"1476 968 OFFCURVE",
"1414 930 CURVE SMOOTH",
"1384 911 OFFCURVE",
"1351 884 OFFCURVE",
"1324 847 CURVE SMOOTH",
"1309 826 OFFCURVE",
"1295 803 OFFCURVE",
"1284 775 CURVE",
"1251 812 OFFCURVE",
"1228 852 OFFCURVE",
"1218 910 CURVE SMOOTH",
"1217 915 OFFCURVE",
"1214 918 OFFCURVE",
"1208 918 CURVE",
"1202 917 OFFCURVE",
"1199 913 OFFCURVE",
"1200 907 CURVE SMOOTH",
"1209 845 OFFCURVE",
"1242 793 OFFCURVE",
"1277 757 CURVE",
"1257 700 OFFCURVE",
"1256 635 OFFCURVE",
"1278 574 CURVE",
"1219 562 OFFCURVE",
"1166 534 OFFCURVE",
"1116 492 CURVE SMOOTH",
"1077 459 OFFCURVE",
"1021 397 OFFCURVE",
"1005 295 CURVE SMOOTH",
"996 230 OFFCURVE",
"1001 161 OFFCURVE",
"1042 104 CURVE SMOOTH",
"1093 37 OFFCURVE",
"1173 4 OFFCURVE",
"1265 0 CURVE"
);
},
{
closed = 1;
nodes = (
"1434 489 OFFCURVE",
"1373 500 OFFCURVE",
"1334 529 CURVE SMOOTH",
"1322 538 OFFCURVE",
"1313 549 OFFCURVE",
"1306 560 CURVE",
"1325 563 OFFCURVE",
"1350 567 OFFCURVE",
"1387 564 CURVE",
"1412 563 OFFCURVE",
"1459 549 OFFCURVE",
"1449 516 CURVE"
);
},
{
closed = 1;
nodes = (
"1423 692 OFFCURVE",
"1351 713 OFFCURVE",
"1298 762 CURVE",
"1309 790 OFFCURVE",
"1323 815 OFFCURVE",
"1338 836 CURVE",
"1382 893 OFFCURVE",
"1457 946 OFFCURVE",
"1530 957 CURVE SMOOTH",
"1590 965 OFFCURVE",
"1655 959 OFFCURVE",
"1685 928 CURVE",
"1722 894 OFFCURVE",
"1719 828 OFFCURVE",
"1691 788 CURVE",
"1643 728 OFFCURVE",
"1588 694 OFFCURVE",
"1491 692 CURVE SMOOTH"
);
}
);
width = 1762;
},
{
components = (
{
name = A;
},
{
alignment = -1;
name = E;
transform = "{1, 0, 0, 1, 975, 0}";
}
);
layerId = "AF956123-A183-4F86-8774-5A4F8E572774";
width = 1957;
}
);
unicode = 00C6;
},
{
glyphname = B;
lastChange = "2019-02-06 22:44:42 +0000";
layers = (
{
layerId = master01;
paths = (
{
closed = 1;
nodes = (
"-3 -43 OFFCURVE",
"35 -23 OFFCURVE",
"70 7 CURVE SMOOTH",
"123 51 OFFCURVE",
"168 119 OFFCURVE",
"216 200 CURVE SMOOTH",
"263 281 OFFCURVE",
"312 375 OFFCURVE",
"369 472 CURVE SMOOTH",
"458 621 OFFCURVE",
"536 754 OFFCURVE",
"621 849 CURVE SMOOTH",
"636 866 OFFCURVE",
"651 882 OFFCURVE",
"666 896 CURVE",
"683 895 OFFCURVE",
"700 893 OFFCURVE",
"718 890 CURVE SMOOTH",
"820 875 OFFCURVE",
"877 840 OFFCURVE",
"909 801 CURVE SMOOTH",
"941 762 OFFCURVE",
"949 718 OFFCURVE",
"949 685 CURVE SMOOTH",
"949 664 OFFCURVE",
"947 651 OFFCURVE",
"943 635 CURVE",
"942 633 OFFCURVE",
"934 597 OFFCURVE",
"902 562 CURVE SMOOTH",
"879 537 OFFCURVE",
"843 512 OFFCURVE",
"787 500 CURVE",
"746 532 OFFCURVE",
"707 553 OFFCURVE",
"676 564 CURVE SMOOTH",
"661 569 OFFCURVE",
"641 573 OFFCURVE",
"623 573 CURVE SMOOTH",
"598 573 OFFCURVE",
"569 558 OFFCURVE",
"569 530 CURVE SMOOTH",
"569 497 OFFCURVE",
"619 485 OFFCURVE",
"644 481 CURVE SMOOTH",
"691 473 OFFCURVE",
"739 474 OFFCURVE",
"783 481 CURVE",
"786 477 OFFCURVE",
"790 474 OFFCURVE",
"794 471 CURVE",
"817 450 OFFCURVE",
"842 425 OFFCURVE",
"857 393 CURVE SMOOTH",
"890 324 OFFCURVE",
"892 240 OFFCURVE",
"851 158 CURVE SMOOTH",
"795 48 OFFCURVE",
"695 -10 OFFCURVE",
"584 -10 CURVE SMOOTH",
"514 -10 OFFCURVE",
"429 7 OFFCURVE",
"381 55 CURVE",
"334 107 OFFCURVE",
"325 161 OFFCURVE",
"325 197 CURVE SMOOTH",
"325 210 OFFCURVE",
"326 220 OFFCURVE",
"328 230 CURVE",
"329 234 OFFCURVE",
"329 240 OFFCURVE",
"322 242 CURVE",
"316 244 OFFCURVE",
"312 240 OFFCURVE",
"311 235 CURVE",
"311 234 OFFCURVE",
"307 220 OFFCURVE",
"307 197 CURVE SMOOTH",
"307 34 OFFCURVE",
"442 -28 OFFCURVE",
"584 -28 CURVE SMOOTH",
"710 -28 OFFCURVE",
"813 43 OFFCURVE",
"867 150 CURVE SMOOTH",
"911 238 OFFCURVE",
"910 332 OFFCURVE",
"871 405 CURVE SMOOTH",
"854 437 OFFCURVE",
"829 464 OFFCURVE",
"804 485 CURVE",
"818 489 OFFCURVE",
"831 494 OFFCURVE",
"842 499 CURVE SMOOTH",
"892 520 OFFCURVE",
"921 553 OFFCURVE",
"938 581 CURVE SMOOTH",
"954 606 OFFCURVE",
"959 627 OFFCURVE",
"960 630 CURVE SMOOTH",
"961 633 OFFCURVE",
"967 659 OFFCURVE",
"967 685 CURVE SMOOTH",
"967 721 OFFCURVE",
"959 769 OFFCURVE",
"923 812 CURVE SMOOTH",
"888 855 OFFCURVE",
"826 892 OFFCURVE",
"721 908 CURVE SMOOTH",
"709 910 OFFCURVE",
"697 911 OFFCURVE",
"685 912 CURVE",
"708 931 OFFCURVE",
"731 948 OFFCURVE",
"755 961 CURVE SMOOTH",
"813 993 OFFCURVE",
"874 1001 OFFCURVE",
"938 1000 CURVE SMOOTH",
"986 999 OFFCURVE",
"1044 974 OFFCURVE",
"1062 936 CURVE SMOOTH",
"1064 932 OFFCURVE",
"1070 930 OFFCURVE",
"1074 932 CURVE",
"1079 934 OFFCURVE",
"1080 940 OFFCURVE",
"1078 944 CURVE SMOOTH",
"1056 992 OFFCURVE",
"992 1016 OFFCURVE",
"940 1018 CURVE SMOOTH",
"873 1021 OFFCURVE",
"805 1008 OFFCURVE",
"747 977 CURVE SMOOTH",
"716 960 OFFCURVE",
"687 939 OFFCURVE",
"660 914 CURVE",
"654 915 OFFCURVE",
"642 915 OFFCURVE",
"634 915 CURVE SMOOTH",
"502 915 OFFCURVE",
"403 868 OFFCURVE",
"337 822 CURVE SMOOTH",
"271 775 OFFCURVE",
"238 728 OFFCURVE",
"237 728 CURVE",
"234 724 OFFCURVE",
"235 718 OFFCURVE",
"239 715 CURVE SMOOTH",
"243 712 OFFCURVE",
"249 713 OFFCURVE",
"252 717 CURVE SMOOTH",
"276 749 OFFCURVE",
"316 785 OFFCURVE",
"350 809 CURVE SMOOTH",
"414 853 OFFCURVE",
"509 897 OFFCURVE",
"634 897 CURVE SMOOTH",
"636 897 OFFCURVE",
"639 897 OFFCURVE",
"641 897 CURVE",
"607 864 OFFCURVE",
"575 825 OFFCURVE",
"544 782 CURVE SMOOTH",
"481 696 OFFCURVE",
"420 593 OFFCURVE",
"354 481 CURVE SMOOTH",
"276 351 OFFCURVE",
"215 227 OFFCURVE",
"154 134 CURVE SMOOTH",
"123 87 OFFCURVE",
"92 49 OFFCURVE",
"58 20 CURVE SMOOTH",
"25 -8 OFFCURVE",
"-10 -26 OFFCURVE",
"-49 -30 CURVE",
"-81 -35 OFFCURVE",
"-114 -30 OFFCURVE",
"-139 -8 CURVE SMOOTH",
"-156 6 OFFCURVE",
"-166 24 OFFCURVE",
"-170 43 CURVE SMOOTH",
"-171 48 OFFCURVE",
"-176 51 OFFCURVE",
"-181 50 CURVE SMOOTH",
"-186 49 OFFCURVE",
"-189 44 OFFCURVE",
"-188 39 CURVE",
"-182 17 OFFCURVE",
"-171 -5 OFFCURVE",
"-151 -22 CURVE SMOOTH",
"-122 -48 OFFCURVE",
"-82 -53 OFFCURVE",
"-47 -48 CURVE SMOOTH"
);
},
{
closed = 1;
nodes = (
"662 494 OFFCURVE",
"645 498 OFFCURVE",
"623 504 CURVE SMOOTH",
"610 508 OFFCURVE",
"587 515 OFFCURVE",
"587 530 CURVE SMOOTH",
"587 546 OFFCURVE",
"607 557 OFFCURVE",
"624 557 CURVE SMOOTH",
"639 557 OFFCURVE",
"657 553 OFFCURVE",
"672 548 CURVE SMOOTH",
"701 538 OFFCURVE",
"723 523 OFFCURVE",
"763 496 CURVE",
"749 494 OFFCURVE",
"733 493 OFFCURVE",
"716 493 CURVE SMOOTH"
);
}
);
width = 995;
},
{
layerId = "AF956123-A183-4F86-8774-5A4F8E572774";
paths = (
{
closed = 1;
nodes = (
"195 -27 OFFCURVE",
"270 219 OFFCURVE",
"308 324 CURVE SMOOTH",
"350 435 OFFCURVE",
"452 707 OFFCURVE",
"551 849 CURVE SMOOTH",
"625 954 OFFCURVE",
"702 1002 OFFCURVE",
"841 1000 CURVE SMOOTH",
"910 998 OFFCURVE",
"998 965 OFFCURVE",
"1040 913 CURVE SMOOTH",
"1054 895 OFFCURVE",
"1084 880 OFFCURVE",
"1106 892 CURVE SMOOTH",
"1132 906 OFFCURVE",
"1142 937 OFFCURVE",
"1129 957 CURVE SMOOTH",
"1076 1038 OFFCURVE",
"955 1095 OFFCURVE",
"844 1098 CURVE SMOOTH",
"842 1098 LINE SMOOTH",
"678 1100 OFFCURVE",
"568 1043 OFFCURVE",
"471 905 CURVE SMOOTH",
"364 753 OFFCURVE",
"258 468 OFFCURVE",
"216 358 CURVE SMOOTH",
"136 138 OFFCURVE",
"87 58 OFFCURVE",
"29 51 CURVE SMOOTH",
"-16 46 OFFCURVE",
"-54 62 OFFCURVE",
"-75 98 CURVE SMOOTH",
"-89 122 OFFCURVE",
"-110 140 OFFCURVE",
"-135 133 CURVE SMOOTH",
"-162 125 OFFCURVE",
"-180 97 OFFCURVE",
"-169 72 CURVE SMOOTH",
"-131 -14 OFFCURVE",
"-50 -57 OFFCURVE",
"41 -46 CURVE SMOOTH"
);
},
{
closed = 1;
nodes = (
"847 -28 OFFCURVE",
"962 65 OFFCURVE",
"1003 212 CURVE SMOOTH",
"1065 436 OFFCURVE",
"884 655 OFFCURVE",
"641 655 CURVE SMOOTH",
"555 655 OFFCURVE",
"481 605 OFFCURVE",
"495 517 CURVE SMOOTH",
"511 425 OFFCURVE",
"615 395 OFFCURVE",
"718 395 CURVE SMOOTH",
"824 395 OFFCURVE",
"925 433 OFFCURVE",
"979 501 CURVE SMOOTH",
"1022 556 OFFCURVE",
"1036 629 OFFCURVE",
"1024 705 CURVE SMOOTH",
"992 882 OFFCURVE",
"813 995 OFFCURVE",
"577 995 CURVE SMOOTH",
"425 995 OFFCURVE",
"286 949 OFFCURVE",
"178 864 CURVE SMOOTH",
"151 843 OFFCURVE",
"124 816 OFFCURVE",
"101 790 CURVE SMOOTH",
"71 757 OFFCURVE",
"66 719 OFFCURVE",
"89 702 CURVE SMOOTH",
"112 685 OFFCURVE",
"146 690 OFFCURVE",
"170 719 CURVE SMOOTH",
"191 744 OFFCURVE",
"215 768 OFFCURVE",
"239 787 CURVE SMOOTH",
"308 842 OFFCURVE",
"418 897 OFFCURVE",
"577 897 CURVE SMOOTH",
"724 897 OFFCURVE",
"900 840 OFFCURVE",
"927 688 CURVE SMOOTH",
"933 652 OFFCURVE",
"933 601 OFFCURVE",
"902 562 CURVE SMOOTH",
"871 523 OFFCURVE",
"803 493 OFFCURVE",
"718 493 CURVE SMOOTH",
"664 493 OFFCURVE",
"597 505 OFFCURVE",
"592 533 CURVE SMOOTH",
"590 546 OFFCURVE",
"603 557 OFFCURVE",
"641 557 CURVE SMOOTH",
"761 557 OFFCURVE",
"966 446 OFFCURVE",
"908 238 CURVE SMOOTH",
"880 136 OFFCURVE",
"805 70 OFFCURVE",
"705 70 CURVE SMOOTH",
"574 70 OFFCURVE",
"478 167 OFFCURVE",
"478 319 CURVE SMOOTH",
"478 360 OFFCURVE",
"456 370 OFFCURVE",
"425 370 CURVE SMOOTH",
"386 370 OFFCURVE",
"379 332 OFFCURVE",
"379 279 CURVE SMOOTH",
"379 214 OFFCURVE",
"451 -28 OFFCURVE",
"705 -28 CURVE SMOOTH"
);
}
);
width = 1076;
},
{
associatedMasterId = "AF956123-A183-4F86-8774-5A4F8E572774";
layerId = "2C14ED8B-2DB3-43A3-AD30-7AF214858018";
name = "Dec 20 18, 23:18";
paths = (
{
closed = 1;
nodes = (
"224 -14 OFFCURVE",
"298 -58 OFFCURVE",
"389 -45 CURVE SMOOTH",
"547 -28 OFFCURVE",
"665 219 OFFCURVE",
"722 324 CURVE",
"783 435 OFFCURVE",
"933 707 OFFCURVE",
"1057 849 CURVE SMOOTH",
"1150 954 OFFCURVE",
"1235 1002 OFFCURVE",
"1374 1000 CURVE SMOOTH",
"1448 998 OFFCURVE",
"1535 960 OFFCURVE",
"1564 902 CURVE",
"1575 882 OFFCURVE",
"1607 869 OFFCURVE",
"1629 881 CURVE SMOOTH",
"1655 895 OFFCURVE",
"1662 924 OFFCURVE",
"1652 946 CURVE",
"1607 1035 OFFCURVE",
"1491 1095 OFFCURVE",
"1377 1098 CURVE SMOOTH",
"1375 1098 LINE SMOOTH",
"1233 1100 OFFCURVE",
"1127 1057 OFFCURVE",
"1022 955 CURVE SMOOTH",
"885 822 OFFCURVE",
"703 493 OFFCURVE",
"636 371 CURVE SMOOTH",
"510 138 OFFCURVE",
"445 58 OFFCURVE",
"377 52 CURVE",
"332 45 OFFCURVE",
"304 61 OFFCURVE",
"294 98 CURVE SMOOTH",
"287 125 OFFCURVE",
"259 140 OFFCURVE",
"234 133 CURVE SMOOTH",
"207 125 OFFCURVE",
"193 98 OFFCURVE",
"200 72 CURVE SMOOTH"
);
},
{
closed = 0;
nodes = (
"688 717 LINE",
"712 749 OFFCURVE",
"752 785 OFFCURVE",
"786 809 CURVE SMOOTH",
"849 854 OFFCURVE",
"945 897 OFFCURVE",
"1070 897 CURVE SMOOTH",
"1218 897 OFFCURVE",
"1385 842 OFFCURVE",
"1385 685 CURVE SMOOTH",
"1385 655 OFFCURVE",
"1379 607 OFFCURVE",
"1338 562 CURVE SMOOTH",
"1297 517 OFFCURVE",
"1206 493 OFFCURVE",
"1152 493 CURVE SMOOTH",
"1089 493 OFFCURVE",
"1023 505 OFFCURVE",
"1023 530 CURVE SMOOTH",
"1023 546 OFFCURVE",
"1043 557 OFFCURVE",
"1060 557 CURVE SMOOTH",
"1135 557 OFFCURVE",
"1261 459 OFFCURVE",
"1293 393 CURVE SMOOTH",
"1325 324 OFFCURVE",
"1328 240 OFFCURVE",
"1287 158 CURVE SMOOTH",
"1232 48 OFFCURVE",
"1131 -10 OFFCURVE",
"1020 -10 CURVE SMOOTH",
"950 -10 OFFCURVE",
"864 7 OFFCURVE",
"817 55 CURVE SMOOTH",
"768 105 OFFCURVE",
"761 161 OFFCURVE",
"761 197 CURVE SMOOTH",
"761 210 OFFCURVE",
"762 220 OFFCURVE",
"764 230 CURVE"
);
}
);
width = 1517;
},
{
associatedMasterId = "AF956123-A183-4F86-8774-5A4F8E572774";
layerId = "03BA7C83-96A9-419F-8AC2-177B5AA665A3";
name = "Feb 7 19, 00:13";
paths = (
{
closed = 1;
nodes = (
"177 -27 OFFCURVE",
"295 219 OFFCURVE",
"352 324 CURVE SMOOTH",
"413 435 OFFCURVE",
"563 707 OFFCURVE",
"687 849 CURVE SMOOTH",
"780 954 OFFCURVE",
"865 1002 OFFCURVE",
"1004 1000 CURVE SMOOTH",
"1078 998 OFFCURVE",
"1165 960 OFFCURVE",
"1194 902 CURVE",
"1205 882 OFFCURVE",
"1237 869 OFFCURVE",
"1259 881 CURVE SMOOTH",
"1285 895 OFFCURVE",
"1292 924 OFFCURVE",
"1282 946 CURVE",
"1237 1035 OFFCURVE",
"1121 1098 OFFCURVE",
"1007 1099 CURVE SMOOTH",
"1005 1099 LINE SMOOTH",
"865 1099 OFFCURVE",
"760 1060 OFFCURVE",
"652 955 CURVE SMOOTH",
"515 822 OFFCURVE",
"331 491 OFFCURVE",
"266 371 CURVE SMOOTH",
"139 137 OFFCURVE",
"75 58 OFFCURVE",
"7 52 CURVE",
"-38 45 OFFCURVE",
"-66 61 OFFCURVE",
"-76 98 CURVE SMOOTH",
"-83 125 OFFCURVE",
"-111 140 OFFCURVE",
"-136 133 CURVE SMOOTH",
"-163 125 OFFCURVE",
"-177 98 OFFCURVE",
"-170 72 CURVE SMOOTH",
"-146 -14 OFFCURVE",
"-73 -57 OFFCURVE",
"19 -46 CURVE SMOOTH"
);
},
{
closed = 1;
nodes = (
"841 -28 OFFCURVE",
"964 59 OFFCURVE",
"1026 198 CURVE SMOOTH",
"1128 424 OFFCURVE",
"975 655 OFFCURVE",
"726 655 CURVE SMOOTH",
"647 655 OFFCURVE",
"575 615 OFFCURVE",
"575 533 CURVE SMOOTH",
"575 431 OFFCURVE",
"683 395 OFFCURVE",
"792 395 CURVE SMOOTH",
"896 395 OFFCURVE",
"998 432 OFFCURVE",
"1058 494 CURVE SMOOTH",
"1107 544 OFFCURVE",
"1133 614 OFFCURVE",
"1133 688 CURVE SMOOTH",
"1133 879 OFFCURVE",
"957 995 OFFCURVE",
"722 995 CURVE SMOOTH",
"572 995 OFFCURVE",
"427 950 OFFCURVE",
"308 867 CURVE SMOOTH",
"276 845 OFFCURVE",
"243 817 OFFCURVE",
"215 789 CURVE SMOOTH",
"183 758 OFFCURVE",
"179 719 OFFCURVE",
"202 702 CURVE SMOOTH",
"225 684 OFFCURVE",
"256 693 OFFCURVE",
"283 719 CURVE SMOOTH",
"308 744 OFFCURVE",
"337 768 OFFCURVE",
"364 787 CURVE SMOOTH",
"443 842 OFFCURVE",
"563 897 OFFCURVE",
"722 897 CURVE SMOOTH",
"869 897 OFFCURVE",
"1035 840 OFFCURVE",
"1035 688 CURVE SMOOTH",
"1035 652 OFFCURVE",
"1026 601 OFFCURVE",
"988 562 CURVE SMOOTH",
"950 523 OFFCURVE",
"877 493 OFFCURVE",
"792 493 CURVE SMOOTH",
"738 493 OFFCURVE",
"673 505 OFFCURVE",
"673 533 CURVE SMOOTH",
"673 546 OFFCURVE",
"688 557 OFFCURVE",
"726 557 CURVE SMOOTH",
"846 557 OFFCURVE",
"1031 446 OFFCURVE",
"937 238 CURVE SMOOTH",
"891 136 OFFCURVE",
"804 70 OFFCURVE",
"704 70 CURVE SMOOTH",
"606 70 OFFCURVE",
"511 133 OFFCURVE",
"511 277 CURVE SMOOTH",
"511 286 OFFCURVE",
"511 294 OFFCURVE",
"512 301 CURVE SMOOTH",
"515 324 OFFCURVE",
"517 355 OFFCURVE",
"478 367 CURVE SMOOTH",
"446 377 OFFCURVE",
"424 356 OFFCURVE",
"418 329 CURVE SMOOTH",
"415 316 OFFCURVE",
"413 292 OFFCURVE",
"413 277 CURVE SMOOTH",
"413 97 OFFCURVE",
"533 -28 OFFCURVE",
"704 -28 CURVE SMOOTH"
);
}
);
width = 1227;
}
);
unicode = 0042;
},
{
glyphname = C;
lastChange = "2019-02-08 18:45:37 +0000";
layers = (
{
layerId = master01;
paths = (
{
closed = 1;
nodes = (
"315 -31 OFFCURVE",
"367 -16 OFFCURVE",
"421 14 CURVE SMOOTH",
"479 48 OFFCURVE",
"556 111 OFFCURVE",
"631 227 CURVE",
"634 231 OFFCURVE",
"633 237 OFFCURVE",
"629 240 CURVE",
"625 242 OFFCURVE",
"619 241 OFFCURVE",
"616 237 CURVE",
"542 123 OFFCURVE",
"468 62 OFFCURVE",
"412 30 CURVE",
"362 -1 OFFCURVE",
"317 -11 OFFCURVE",
"258 -13 CURVE SMOOTH",
"222 -13 OFFCURVE",
"178 -7 OFFCURVE",
"141 17 CURVE SMOOTH",
"84 54 OFFCURVE",
"61 121 OFFCURVE",
"59 190 CURVE",
"59 258 OFFCURVE",
"84 333 OFFCURVE",
"126 409 CURVE SMOOTH",
"190 522 OFFCURVE",
"291 636 OFFCURVE",
"402 728 CURVE SMOOTH",
"420 742 OFFCURVE",
"437 756 OFFCURVE",
"455 770 CURVE",
"468 752 OFFCURVE",
"485 735 OFFCURVE",
"506 720 CURVE SMOOTH",
"537 698 OFFCURVE",
"576 679 OFFCURVE",
"627 670 CURVE SMOOTH",
"648 666 OFFCURVE",
"668 665 OFFCURVE",
"687 665 CURVE SMOOTH",
"759 666 OFFCURVE",
"812 690 OFFCURVE",
"847 715 CURVE SMOOTH",
"880 739 OFFCURVE",
"894 760 OFFCURVE",
"898 766 CURVE",
"914 787 OFFCURVE",
"926 819 OFFCURVE",
"926 850 CURVE SMOOTH",
"926 862 OFFCURVE",
"924 874 OFFCURVE",
"920 885 CURVE SMOOTH",
"914 902 OFFCURVE",
"903 917 OFFCURVE",
"886 928 CURVE",
"868 938 OFFCURVE",
"845 944 OFFCURVE",
"814 944 CURVE SMOOTH",
"790 944 OFFCURVE",
"762 940 OFFCURVE",
"728 932 CURVE SMOOTH",
"659 914 OFFCURVE",
"582 877 OFFCURVE",
"505 827 CURVE SMOOTH",
"490 817 OFFCURVE",
"474 806 OFFCURVE",
"459 795 CURVE",
"438 823 OFFCURVE",
"424 859 OFFCURVE",
"417 895 CURVE SMOOTH",
"416 900 OFFCURVE",
"415 905 OFFCURVE",
"407 904 CURVE",
"401 903 OFFCURVE",
"399 899 OFFCURVE",
"400 894 CURVE",
"406 852 OFFCURVE",
"423 814 OFFCURVE",
"444 784 CURVE",
"350 714 OFFCURVE",
"259 626 OFFCURVE",
"187 532 CURVE SMOOTH",
"100 419 OFFCURVE",
"41 298 OFFCURVE",
"41 190 CURVE SMOOTH",
"41 105 OFFCURVE",
"79 19 OFFCURVE",
"163 -14 CURVE SMOOTH",
"196 -27 OFFCURVE",
"230 -31 OFFCURVE",
"258 -31 CURVE SMOOTH"
);
},
{
closed = 1;
nodes = (
"669 683 OFFCURVE",
"650 684 OFFCURVE",
"630 688 CURVE SMOOTH",
"582 696 OFFCURVE",
"545 714 OFFCURVE",
"516 735 CURVE SMOOTH",
"497 749 OFFCURVE",
"482 764 OFFCURVE",
"469 780 CURVE",
"560 846 OFFCURVE",
"653 894 OFFCURVE",
"732 914 CURVE SMOOTH",
"765 923 OFFCURVE",
"792 926 OFFCURVE",
"814 926 CURVE SMOOTH",
"833 926 OFFCURVE",
"848 924 OFFCURVE",
"860 920 CURVE",
"878 913 OFFCURVE",
"890 903 OFFCURVE",
"897 892 CURVE SMOOTH",
"905 880 OFFCURVE",
"908 866 OFFCURVE",
"908 850 CURVE SMOOTH",
"908 823 OFFCURVE",
"897 794 OFFCURVE",
"884 776 CURVE",
"883 775 OFFCURVE",
"867 752 OFFCURVE",
"835 728 CURVE SMOOTH",
"802 705 OFFCURVE",
"754 683 OFFCURVE",
"687 683 CURVE SMOOTH"
);
}
);
width = 738;
},
{
layerId = "AF956123-A183-4F86-8774-5A4F8E572774";
paths = (
{
closed = 1;
nodes = (
"541 -30 OFFCURVE",
"665 56 OFFCURVE",
"753 212 CURVE SMOOTH",
"768 239 OFFCURVE",
"764 267 OFFCURVE",
"741 282 CURVE SMOOTH",
"717 298 OFFCURVE",
"686 293 OFFCURVE",
"672 267 CURVE SMOOTH",
"599 135 OFFCURVE",
"505 68 OFFCURVE",
"394 68 CURVE SMOOTH",
"270 68 OFFCURVE",
"162 153 OFFCURVE",
"143 265 CURVE SMOOTH",
"118 400 OFFCURVE",
"241 610 OFFCURVE",
"453 784 CURVE SMOOTH",
"570 880 OFFCURVE",
"671 926 OFFCURVE",
"759 926 CURVE SMOOTH",
"831 926 OFFCURVE",
"877 891 OFFCURVE",
"888 832 CURVE SMOOTH",
"895 791 OFFCURVE",
"881 756 OFFCURVE",
"845 725 CURVE SMOOTH",
"809 696 OFFCURVE",
"768 683 OFFCURVE",
"709 683 CURVE SMOOTH",
"610 683 OFFCURVE",
"500 720 OFFCURVE",
"425 780 CURVE SMOOTH",
"373 819 OFFCURVE",
"335 865 OFFCURVE",
"302 933 CURVE SMOOTH",
"289 960 OFFCURVE",
"268 977 OFFCURVE",
"240 972 CURVE SMOOTH",
"212 967 OFFCURVE",
"191 937 OFFCURVE",
"205 907 CURVE SMOOTH",
"245 820 OFFCURVE",
"296 754 OFFCURVE",
"365 702 CURVE SMOOTH",
"458 629 OFFCURVE",
"591 585 OFFCURVE",
"709 585 CURVE SMOOTH",
"789 585 OFFCURVE",
"854 606 OFFCURVE",
"907 649 CURVE SMOOTH",
"969 701 OFFCURVE",
"998 771 OFFCURVE",
"985 849 CURVE SMOOTH",
"965 959 OFFCURVE",
"875 1024 OFFCURVE",
"759 1024 CURVE SMOOTH",
"646 1024 OFFCURVE",
"524 969 OFFCURVE",
"391 860 CURVE SMOOTH",
"154 666 OFFCURVE",
"14 425 OFFCURVE",
"46 248 CURVE SMOOTH",
"74 89 OFFCURVE",
"223 -30 OFFCURVE",
"394 -30 CURVE SMOOTH"
);
}
);
width = 722;
},
{
associatedMasterId = "AF956123-A183-4F86-8774-5A4F8E572774";
layerId = "46F6CADF-0011-4F9F-9424-23F20B58DC26";
name = "Dec 20 18, 23:26";
paths = (
{
closed = 0;
nodes = (
"616 237 LINE",
"509 72 OFFCURVE",
"393 -8 OFFCURVE",
"258 -13 CURVE SMOOTH",
"135 -13 OFFCURVE",
"61 61 OFFCURVE",
"59 190 CURVE SMOOTH",
"58 258 OFFCURVE",
"84 333 OFFCURVE",
"126 409 CURVE SMOOTH",
"218 571 OFFCURVE",
"341 681 OFFCURVE",
"469 780 CURVE SMOOTH",
"588 866 OFFCURVE",
"717 926 OFFCURVE",
"814 926 CURVE SMOOTH",
"862 926 OFFCURVE",
"908 910 OFFCURVE",
"908 850 CURVE SMOOTH",
"908 802 OFFCURVE",
"882 763 OFFCURVE",
"835 728 CURVE SMOOTH",
"802 705 OFFCURVE",
"754 683 OFFCURVE",
"687 683 CURVE SMOOTH",
"631 683 OFFCURVE",
"568 698 OFFCURVE",
"516 735 CURVE SMOOTH",
"467 771 OFFCURVE",
"439 818 OFFCURVE",
"423 897 CURVE"
);
}
);
width = 600;
},
{
associatedMasterId = "AF956123-A183-4F86-8774-5A4F8E572774";
layerId = "D2CB59F5-5104-4A19-87C9-F357CFC3DD31";
name = "Feb 7 19, 00:26";
paths = (
{
closed = 1;
nodes = (
"490 -30 OFFCURVE",
"633 59 OFFCURVE",
"749 221 CURVE SMOOTH",
"767 246 OFFCURVE",
"760 276 OFFCURVE",
"737 291 CURVE SMOOTH",
"713 307 OFFCURVE",
"685 300 OFFCURVE",
"668 276 CURVE SMOOTH",
"567 136 OFFCURVE",
"453 68 OFFCURVE",
"340 68 CURVE SMOOTH",
"214 68 OFFCURVE",
"139 152 OFFCURVE",
"139 248 CURVE SMOOTH",
"139 405 OFFCURVE",
"340 629 OFFCURVE",
"551 780 CURVE SMOOTH",
"674 868 OFFCURVE",
"792 926 OFFCURVE",
"891 926 CURVE SMOOTH",
"942 926 OFFCURVE",
"988 911 OFFCURVE",
"988 849 CURVE SMOOTH",
"988 804 OFFCURVE",
"963 763 OFFCURVE",
"916 729 CURVE SMOOTH",
"882 705 OFFCURVE",
"838 683 OFFCURVE",
"764 683 CURVE SMOOTH",
"691 683 OFFCURVE",
"602 704 OFFCURVE",
"531 754 CURVE SMOOTH",
"472 796 OFFCURVE",
"435 850 OFFCURVE",
"412 932 CURVE SMOOTH",
"404 961 OFFCURVE",
"380 977 OFFCURVE",
"352 972 CURVE SMOOTH",
"324 966 OFFCURVE",
"308 939 OFFCURVE",
"317 907 CURVE SMOOTH",
"342 820 OFFCURVE",
"381 754 OFFCURVE",
"440 702 CURVE SMOOTH",
"520 629 OFFCURVE",
"646 585 OFFCURVE",
"764 585 CURVE SMOOTH",
"844 585 OFFCURVE",
"912 606 OFFCURVE",
"973 649 CURVE SMOOTH",
"1044 701 OFFCURVE",
"1086 771 OFFCURVE",
"1086 849 CURVE SMOOTH",
"1086 959 OFFCURVE",
"1007 1024 OFFCURVE",
"891 1024 CURVE SMOOTH",
"778 1024 OFFCURVE",
"646 969 OFFCURVE",
"494 860 CURVE SMOOTH",
"223 666 OFFCURVE",
"41 425 OFFCURVE",
"41 248 CURVE SMOOTH",
"41 89 OFFCURVE",
"169 -30 OFFCURVE",
"340 -30 CURVE SMOOTH"
);
}
);
width = 820;
}
);
unicode = 0043;
},
{
glyphname = Ccedilla;
lastChange = "2018-12-25 11:47:40 +0000";
layers = (
{
layerId = master01;
paths = (
{
closed = 1;
nodes = (
"315 -31 OFFCURVE",
"367 -16 OFFCURVE",
"421 14 CURVE SMOOTH",
"479 48 OFFCURVE",
"556 111 OFFCURVE",
"631 227 CURVE",
"634 231 OFFCURVE",
"633 237 OFFCURVE",
"629 240 CURVE",
"625 242 OFFCURVE",
"619 241 OFFCURVE",
"616 237 CURVE",
"542 123 OFFCURVE",
"468 62 OFFCURVE",
"412 30 CURVE",
"362 -1 OFFCURVE",
"317 -11 OFFCURVE",
"258 -13 CURVE SMOOTH",
"222 -13 OFFCURVE",
"178 -7 OFFCURVE",
"141 17 CURVE SMOOTH",
"84 54 OFFCURVE",
"61 121 OFFCURVE",
"59 190 CURVE",
"59 258 OFFCURVE",
"84 333 OFFCURVE",
"126 409 CURVE SMOOTH",
"190 522 OFFCURVE",
"291 636 OFFCURVE",
"402 728 CURVE SMOOTH",
"420 742 OFFCURVE",
"437 756 OFFCURVE",
"455 770 CURVE",
"468 752 OFFCURVE",
"485 735 OFFCURVE",
"506 720 CURVE SMOOTH",
"537 698 OFFCURVE",
"576 679 OFFCURVE",
"627 670 CURVE SMOOTH",
"648 666 OFFCURVE",
"668 665 OFFCURVE",
"687 665 CURVE SMOOTH",
"759 666 OFFCURVE",
"812 690 OFFCURVE",
"847 715 CURVE SMOOTH",
"880 739 OFFCURVE",
"894 760 OFFCURVE",
"898 766 CURVE",
"914 787 OFFCURVE",
"926 819 OFFCURVE",
"926 850 CURVE SMOOTH",
"926 862 OFFCURVE",
"924 874 OFFCURVE",
"920 885 CURVE SMOOTH",
"914 902 OFFCURVE",
"903 917 OFFCURVE",
"886 928 CURVE",
"868 938 OFFCURVE",
"845 944 OFFCURVE",
"814 944 CURVE SMOOTH",
"790 944 OFFCURVE",
"762 940 OFFCURVE",
"728 932 CURVE SMOOTH",
"659 914 OFFCURVE",
"582 877 OFFCURVE",
"505 827 CURVE SMOOTH",
"490 817 OFFCURVE",
"474 806 OFFCURVE",
"459 795 CURVE",
"438 823 OFFCURVE",
"424 859 OFFCURVE",
"417 895 CURVE SMOOTH",
"416 900 OFFCURVE",
"415 905 OFFCURVE",
"407 904 CURVE",
"401 903 OFFCURVE",
"399 899 OFFCURVE",
"400 894 CURVE",
"406 852 OFFCURVE",
"423 814 OFFCURVE",
"444 784 CURVE",
"350 714 OFFCURVE",
"259 626 OFFCURVE",
"187 532 CURVE SMOOTH",
"100 419 OFFCURVE",
"41 298 OFFCURVE",
"41 190 CURVE SMOOTH",
"41 105 OFFCURVE",
"79 19 OFFCURVE",
"163 -14 CURVE SMOOTH",
"196 -27 OFFCURVE",
"230 -31 OFFCURVE",
"258 -31 CURVE SMOOTH"
);
},
{
closed = 1;
nodes = (
"143 -265 OFFCURVE",
"195 -227 OFFCURVE",
"219 -191 CURVE SMOOTH",
"235 -168 OFFCURVE",
"238 -148 OFFCURVE",
"230 -130 CURVE SMOOTH",
"217 -101 OFFCURVE",
"175 -89 OFFCURVE",
"152 -85 CURVE",
"199 -26 LINE SMOOTH",
"202 -22 OFFCURVE",
"202 -17 OFFCURVE",
"198 -14 CURVE",
"194 -10 OFFCURVE",
"188 -11 OFFCURVE",
"185 -15 CURVE",
"128 -85 LINE",
"125 -89 OFFCURVE",
"125 -99 OFFCURVE",
"134 -100 CURVE SMOOTH",
"152 -102 OFFCURVE",
"202 -112 OFFCURVE",
"214 -137 CURVE",
"219 -149 OFFCURVE",
"216 -163 OFFCURVE",
"204 -180 CURVE SMOOTH",
"171 -229 OFFCURVE",
"113 -237 OFFCURVE",
"27 -206 CURVE",
"23 -204 OFFCURVE",
"17 -206 OFFCURVE",
"16 -211 CURVE",
"14 -216 OFFCURVE",
"16 -220 OFFCURVE",
"21 -222 CURVE"
);
},
{
closed = 1;
nodes = (
"669 683 OFFCURVE",
"650 684 OFFCURVE",
"630 688 CURVE SMOOTH",
"582 696 OFFCURVE",
"545 714 OFFCURVE",
"516 735 CURVE SMOOTH",
"497 749 OFFCURVE",
"482 764 OFFCURVE",
"469 780 CURVE",
"560 846 OFFCURVE",
"653 894 OFFCURVE",
"732 914 CURVE SMOOTH",
"765 923 OFFCURVE",
"792 926 OFFCURVE",
"814 926 CURVE SMOOTH",
"833 926 OFFCURVE",
"848 924 OFFCURVE",
"860 920 CURVE",
"878 913 OFFCURVE",
"890 903 OFFCURVE",
"897 892 CURVE SMOOTH",
"905 880 OFFCURVE",
"908 866 OFFCURVE",
"908 850 CURVE SMOOTH",
"908 823 OFFCURVE",
"897 794 OFFCURVE",
"884 776 CURVE",
"883 775 OFFCURVE",
"867 752 OFFCURVE",
"835 728 CURVE SMOOTH",
"802 705 OFFCURVE",
"754 683 OFFCURVE",
"687 683 CURVE SMOOTH"
);
}
);
width = 738;
},
{
components = (
{
name = C;
},
{
name = cedilla;
transform = "{1, 0, 0, 1, -59, -15}";
}
);
layerId = "AF956123-A183-4F86-8774-5A4F8E572774";
width = 820;
}
);
unicode = 00C7;
},
{
glyphname = D;
lastChange = "2019-02-08 18:46:35 +0000";
layers = (
{
layerId = master01;
paths = (
{
closed = 1;
nodes = (
"33 -57 OFFCURVE",
"71 -37 OFFCURVE",
"105 -6 CURVE SMOOTH",
"156 39 OFFCURVE",
"199 108 OFFCURVE",
"245 189 CURVE SMOOTH",
"292 270 OFFCURVE",
"340 363 OFFCURVE",
"400 459 CURVE SMOOTH",
"429 504 OFFCURVE",
"458 550 OFFCURVE",
"487 593 CURVE",
"562 587 OFFCURVE",
"633 611 OFFCURVE",
"693 654 CURVE SMOOTH",
"736 685 OFFCURVE",
"762 715 OFFCURVE",
"762 716 CURVE",
"765 719 OFFCURVE",
"764 725 OFFCURVE",
"761 728 CURVE",
"757 731 OFFCURVE",
"751 731 OFFCURVE",
"748 727 CURVE",
"727 704 OFFCURVE",
"704 683 OFFCURVE",
"679 666 CURVE SMOOTH",
"623 626 OFFCURVE",
"563 610 OFFCURVE",
"499 610 CURVE",
"547 681 OFFCURVE",
"597 746 OFFCURVE",
"651 800 CURVE SMOOTH",
"672 820 OFFCURVE",
"693 839 OFFCURVE",
"715 856 CURVE",
"787 825 OFFCURVE",
"837 782 OFFCURVE",
"871 731 CURVE SMOOTH",
"913 667 OFFCURVE",
"930 590 OFFCURVE",
"930 513 CURVE SMOOTH",
"930 443 OFFCURVE",
"916 372 OFFCURVE",
"897 311 CURVE SMOOTH",
"861 194 OFFCURVE",
"792 84 OFFCURVE",
"685 28 CURVE SMOOTH",
"635 2 OFFCURVE",
"586 -8 OFFCURVE",
"543 -8 CURVE SMOOTH",
"468 -8 OFFCURVE",
"399 23 OFFCURVE",
"366 90 CURVE SMOOTH",
"345 134 OFFCURVE",
"349 208 OFFCURVE",
"401 238 CURVE SMOOTH",
"417 247 OFFCURVE",
"436 253 OFFCURVE",
"463 253 CURVE SMOOTH",
"493 253 OFFCURVE",
"531 246 OFFCURVE",
"580 226 CURVE SMOOTH",
"585 224 OFFCURVE",
"590 227 OFFCURVE",
"592 231 CURVE",
"594 236 OFFCURVE",
"591 241 OFFCURVE",
"587 243 CURVE",
"536 263 OFFCURVE",
"496 271 OFFCURVE",
"463 271 CURVE SMOOTH",
"433 271 OFFCURVE",
"408 263 OFFCURVE",
"389 252 CURVE SMOOTH",
"318 210 OFFCURVE",
"333 115 OFFCURVE",
"350 82 CURVE SMOOTH",
"386 6 OFFCURVE",
"465 -26 OFFCURVE",
"543 -26 CURVE SMOOTH",
"588 -26 OFFCURVE",
"640 -16 OFFCURVE",
"693 12 CURVE SMOOTH",
"809 73 OFFCURVE",
"876 188 OFFCURVE",
"914 305 CURVE SMOOTH",
"934 368 OFFCURVE",
"948 440 OFFCURVE",
"948 513 CURVE SMOOTH",
"948 593 OFFCURVE",
"931 673 OFFCURVE",
"886 741 CURVE SMOOTH",
"852 792 OFFCURVE",
"802 837 OFFCURVE",
"732 868 CURVE",
"753 884 OFFCURVE",
"776 897 OFFCURVE",
"799 909 CURVE SMOOTH",
"852 935 OFFCURVE",
"910 950 OFFCURVE",
"975 950 CURVE SMOOTH",
"1047 950 OFFCURVE",
"1119 930 OFFCURVE",
"1148 866 CURVE",
"1150 861 OFFCURVE",
"1155 859 OFFCURVE",
"1160 861 CURVE",
"1164 863 OFFCURVE",
"1166 868 OFFCURVE",
"1164 873 CURVE SMOOTH",
"1132 948 OFFCURVE",
"1047 968 OFFCURVE",
"975 968 CURVE SMOOTH",
"907 968 OFFCURVE",
"847 952 OFFCURVE",
"791 925 CURVE SMOOTH",
"764 912 OFFCURVE",
"737 895 OFFCURVE",
"712 877 CURVE",
"587 926 OFFCURVE",
"424 939 OFFCURVE",
"342 817 CURVE SMOOTH",
"269 710 OFFCURVE",
"354 614 OFFCURVE",
"467 596 CURVE",
"440 554 OFFCURVE",
"412 511 OFFCURVE",
"385 468 CURVE SMOOTH",
"304 340 OFFCURVE",
"244 216 OFFCURVE",
"185 122 CURVE SMOOTH",
"155 75 OFFCURVE",
"125 36 OFFCURVE",
"93 7 CURVE SMOOTH",
"60 -22 OFFCURVE",
"26 -39 OFFCURVE",
"-13 -44 CURVE SMOOTH",
"-46 -49 OFFCURVE",
"-78 -43 OFFCURVE",
"-104 -22 CURVE",
"-120 -8 OFFCURVE",
"-130 11 OFFCURVE",
"-134 30 CURVE",
"-135 34 OFFCURVE",
"-140 37 OFFCURVE",
"-145 36 CURVE SMOOTH",
"-150 35 OFFCURVE",
"-153 30 OFFCURVE",
"-152 25 CURVE",
"-146 3 OFFCURVE",
"-135 -19 OFFCURVE",
"-115 -36 CURVE SMOOTH",
"-86 -62 OFFCURVE",
"-46 -67 OFFCURVE",
"-11 -62 CURVE SMOOTH"
);
},
{
closed = 1;
nodes = (
"349 636 OFFCURVE",
"286 736 OFFCURVE",
"378 833 CURVE SMOOTH",
"458 918 OFFCURVE",
"594 901 OFFCURVE",
"696 864 CURVE",
"651 828 OFFCURVE",
"610 785 OFFCURVE",
"571 737 CURVE SMOOTH",
"539 699 OFFCURVE",
"508 657 OFFCURVE",
"479 613 CURVE"
);
}
);
width = 1008;
},
{
layerId = "AF956123-A183-4F86-8774-5A4F8E572774";
paths = (
{
closed = 1;
nodes = (
"119 -42 OFFCURVE",
"171 63 OFFCURVE",
"221 189 CURVE SMOOTH",
"250 263 LINE SMOOTH",
"273 325 OFFCURVE",
"300 397 OFFCURVE",
"328 459 CURVE SMOOTH",
"384 579 OFFCURVE",
"432 689 OFFCURVE",
"526 809 CURVE SMOOTH",
"586 884 OFFCURVE",
"692 950 OFFCURVE",
"854 950 CURVE SMOOTH",
"924 950 OFFCURVE",
"998 936 OFFCURVE",
"1051 894 CURVE SMOOTH",
"1075 875 OFFCURVE",
"1097 860 OFFCURVE",
"1124 873 CURVE SMOOTH",
"1149 885 OFFCURVE",
"1160 927 OFFCURVE",
"1128 956 CURVE SMOOTH",
"1062 1016 OFFCURVE",
"965 1048 OFFCURVE",
"854 1048 CURVE SMOOTH",
"686 1048 OFFCURVE",
"541 985 OFFCURVE",
"449 870 CURVE SMOOTH",
"347 740 OFFCURVE",
"295 619 OFFCURVE",
"239 500 CURVE SMOOTH",
"210 435 OFFCURVE",
"181 360 OFFCURVE",
"158 298 CURVE SMOOTH",
"130 225 LINE SMOOTH",
"74 85 OFFCURVE",
"39 46 OFFCURVE",
"-32 37 CURVE SMOOTH",
"-72 32 OFFCURVE",
"-103 46 OFFCURVE",
"-119 77 CURVE SMOOTH",
"-130 98 OFFCURVE",
"-152 112 OFFCURVE",
"-177 106 CURVE SMOOTH",
"-204 100 OFFCURVE",
"-223 73 OFFCURVE",
"-214 49 CURVE SMOOTH",
"-184 -28 OFFCURVE",
"-108 -72 OFFCURVE",
"-19 -60 CURVE SMOOTH"
);
},
{
closed = 1;
nodes = (
"738 -84 LINE",
"689 99 LINE",
"657 80 OFFCURVE",
"628 72 OFFCURVE",
"596 72 CURVE SMOOTH",
"527 72 OFFCURVE",
"461 110 OFFCURVE",
"429 166 CURVE SMOOTH",
"401 215 OFFCURVE",
"403 265 OFFCURVE",
"423 280 CURVE",
"433 286 OFFCURVE",
"444 289 OFFCURVE",
"460 289 CURVE SMOOTH",
"475 289 OFFCURVE",
"487 287 OFFCURVE",
"505 283 CURVE SMOOTH",
"532 277 OFFCURVE",
"557 286 OFFCURVE",
"569 312 CURVE SMOOTH",
"580 337 OFFCURVE",
"565 367 OFFCURVE",
"531 377 CURVE SMOOTH",
"507 384 OFFCURVE",
"481 387 OFFCURVE",
"460 387 CURVE SMOOTH",
"426 387 OFFCURVE",
"394 378 OFFCURVE",
"368 361 CURVE SMOOTH",
"297 315 OFFCURVE",
"293 207 OFFCURVE",
"344 118 CURVE SMOOTH",
"395 29 OFFCURVE",
"494 -26 OFFCURVE",
"596 -26 CURVE SMOOTH",
"645 -26 OFFCURVE",
"693 -12 OFFCURVE",
"738 14 CURVE",
"737 14 LINE",
"904 110 OFFCURVE",
"985 302 OFFCURVE",
"948 513 CURVE SMOOTH",
"930 615 OFFCURVE",
"884 716 OFFCURVE",
"824 786 CURVE SMOOTH",
"767 853 OFFCURVE",
"674 916 OFFCURVE",
"576 954 CURVE SMOOTH",
"400 1022 OFFCURVE",
"240 1004 OFFCURVE",
"159 901 CURVE SMOOTH",
"37 745 OFFCURVE",
"170 528 OFFCURVE",
"394 515 CURVE SMOOTH",
"482 510 OFFCURVE",
"580 537 OFFCURVE",
"640 584 CURVE SMOOTH",
"653 594 OFFCURVE",
"666 606 OFFCURVE",
"679 619 CURVE SMOOTH",
"701 641 OFFCURVE",
"701 672 OFFCURVE",
"680 692 CURVE SMOOTH",
"660 711 OFFCURVE",
"629 712 OFFCURVE",
"611 690 CURVE SMOOTH",
"603 680 OFFCURVE",
"593 672 OFFCURVE",
"580 662 CURVE SMOOTH",
"538 629 OFFCURVE",
"465 610 OFFCURVE",
"399 613 CURVE SMOOTH",
"254 620 OFFCURVE",
"164 750 OFFCURVE",
"236 840 CURVE SMOOTH",
"288 905 OFFCURVE",
"403 916 OFFCURVE",
"540 863 CURVE SMOOTH",
"625 830 OFFCURVE",
"702 778 OFFCURVE",
"749 722 CURVE SMOOTH",
"798 664 OFFCURVE",
"836 582 OFFCURVE",
"851 496 CURVE SMOOTH",
"881 325 OFFCURVE",
"819 174 OFFCURVE",
"688 99 CURVE",
"737 -84 LINE"
);
}
);
width = 935;
},
{
associatedMasterId = "AF956123-A183-4F86-8774-5A4F8E572774";
layerId = "A41F9CBF-16FA-42EC-A8E1-DAB55C6F250E";
name = "Dec 20 18, 23:33";
paths = (
{
closed = 1;
nodes = (
"1274 993 OFFCURVE",
"1159 1048 OFFCURVE",
"1012 1048 CURVE SMOOTH",
"848 1048 OFFCURVE",
"695 987 OFFCURVE",
"588 877 CURVE SMOOTH",
"468 750 OFFCURVE",
"394 631 OFFCURVE",
"317 511 CURVE SMOOTH",
"274 441 OFFCURVE",
"236 373 OFFCURVE",
"201 311 CURVE SMOOTH",
"187 286 OFFCURVE",
"174 261 OFFCURVE",
"160 238 CURVE SMOOTH",
"77 92 OFFCURVE",
"27 47 OFFCURVE",
"-51 37 CURVE SMOOTH",
"-92 32 OFFCURVE",
"-112 44 OFFCURVE",
"-121 76 CURVE",
"-215 49 LINE",
"-193 -27 OFFCURVE",
"-130 -72 OFFCURVE",
"-39 -60 CURVE SMOOTH",
"101 -43 OFFCURVE",
"173 63 OFFCURVE",
"245 189 CURVE SMOOTH",
"259 213 OFFCURVE",
"273 238 OFFCURVE",
"287 263 CURVE SMOOTH",
"321 325 OFFCURVE",
"358 391 OFFCURVE",
"400 459 CURVE SMOOTH",
"477 579 OFFCURVE",
"546 690 OFFCURVE",
"659 809 CURVE SMOOTH",
"732 884 OFFCURVE",
"851 950 OFFCURVE",
"1012 950 CURVE SMOOTH",
"1105 950 OFFCURVE",
"1198 924 OFFCURVE",
"1236 841 CURVE",
"1325 882 LINE"
);
},
{
closed = 0;
nodes = (
"748 727 LINE",
"727 704 OFFCURVE",
"704 683 OFFCURVE",
"679 666 CURVE SMOOTH",
"623 626 OFFCURVE",
"543 612 OFFCURVE",
"479 613 CURVE SMOOTH",
"347 615 OFFCURVE",
"286 736 OFFCURVE",
"378 833 CURVE SMOOTH",
"458 918 OFFCURVE",
"596 906 OFFCURVE",
"696 864 CURVE SMOOTH",
"769 833 OFFCURVE",
"837 782 OFFCURVE",
"871 731 CURVE SMOOTH",
"913 667 OFFCURVE",
"930 590 OFFCURVE",
"930 513 CURVE SMOOTH",
"930 443 OFFCURVE",
"916 372 OFFCURVE",
"897 311 CURVE SMOOTH",
"861 194 OFFCURVE",
"792 84 OFFCURVE",
"685 28 CURVE SMOOTH",
"635 2 OFFCURVE",
"586 -8 OFFCURVE",
"543 -8 CURVE SMOOTH",
"468 -8 OFFCURVE",
"399 23 OFFCURVE",
"366 90 CURVE SMOOTH",
"345 134 OFFCURVE",
"349 208 OFFCURVE",
"401 238 CURVE SMOOTH",
"417 247 OFFCURVE",
"436 253 OFFCURVE",
"463 253 CURVE SMOOTH",
"493 253 OFFCURVE",
"531 246 OFFCURVE",
"580 226 CURVE"
);
}
);
width = 600;
},
{
associatedMasterId = "AF956123-A183-4F86-8774-5A4F8E572774";
layerId = "69C2759C-3E99-4F2E-9317-B589E1D41D0D";
name = "Feb 7 19, 00:29";
paths = (
{
closed = 1;
nodes = (
"102 -42 OFFCURVE",
"173 63 OFFCURVE",
"245 189 CURVE SMOOTH",
"287 263 LINE SMOOTH",
"321 325 OFFCURVE",
"361 397 OFFCURVE",
"400 459 CURVE SMOOTH",
"477 579 OFFCURVE",
"544 689 OFFCURVE",
"659 809 CURVE SMOOTH",
"732 884 OFFCURVE",
"850 950 OFFCURVE",
"1012 950 CURVE SMOOTH",
"1087 950 OFFCURVE",
"1162 933 OFFCURVE",
"1208 883 CURVE SMOOTH",
"1229 860 OFFCURVE",
"1254 849 OFFCURVE",
"1281 862 CURVE SMOOTH",
"1306 873 OFFCURVE",
"1312 912 OFFCURVE",
"1285 945 CURVE SMOOTH",
"1224 1014 OFFCURVE",
"1128 1048 OFFCURVE",
"1012 1048 CURVE SMOOTH",
"845 1048 OFFCURVE",
"692 985 OFFCURVE",
"588 877 CURVE SMOOTH",
"472 755 OFFCURVE",
"399 640 OFFCURVE",
"317 511 CURVE SMOOTH",
"276 446 OFFCURVE",
"236 373 OFFCURVE",
"201 311 CURVE SMOOTH",
"186 285 OFFCURVE",
"175 264 OFFCURVE",
"160 238 CURVE SMOOTH",
"75 90 OFFCURVE",
"27 47 OFFCURVE",
"-51 37 CURVE SMOOTH",
"-92 32 OFFCURVE",
"-113 44 OFFCURVE",
"-121 76 CURVE SMOOTH",
"-127 99 OFFCURVE",
"-153 112 OFFCURVE",
"-178 106 CURVE SMOOTH",
"-205 100 OFFCURVE",
"-221 74 OFFCURVE",
"-215 49 CURVE SMOOTH",
"-197 -28 OFFCURVE",
"-130 -72 OFFCURVE",
"-39 -60 CURVE SMOOTH"
);
},
{
closed = 1;
nodes = (
"630 -26 OFFCURVE",
"680 -12 OFFCURVE",
"730 14 CURVE",
"729 14 LINE",
"913 110 OFFCURVE",
"1028 302 OFFCURVE",
"1028 513 CURVE SMOOTH",
"1028 615 OFFCURVE",
"1000 716 OFFCURVE",
"952 786 CURVE SMOOTH",
"907 853 OFFCURVE",
"825 916 OFFCURVE",
"734 954 CURVE SMOOTH",
"570 1023 OFFCURVE",
"407 1004 OFFCURVE",
"307 901 CURVE SMOOTH",
"157 746 OFFCURVE",
"253 528 OFFCURVE",
"474 515 CURVE SMOOTH",
"562 511 OFFCURVE",
"663 538 OFFCURVE",
"733 584 CURVE SMOOTH",
"749 595 OFFCURVE",
"766 608 OFFCURVE",
"782 623 CURVE SMOOTH",
"805 644 OFFCURVE",
"804 675 OFFCURVE",
"783 695 CURVE SMOOTH",
"763 714 OFFCURVE",
"735 712 OFFCURVE",
"714 693 CURVE",
"703 684 OFFCURVE",
"691 674 OFFCURVE",
"679 666 CURVE SMOOTH",
"619 626 OFFCURVE",
"538 610 OFFCURVE",
"479 613 CURVE SMOOTH",
"336 621 OFFCURVE",
"290 742 OFFCURVE",
"378 833 CURVE SMOOTH",
"461 919 OFFCURVE",
"596 906 OFFCURVE",
"696 864 CURVE SMOOTH",
"772 832 OFFCURVE",
"837 782 OFFCURVE",
"871 731 CURVE SMOOTH",
"913 670 OFFCURVE",
"930 585 OFFCURVE",
"930 513 CURVE SMOOTH",
"930 355 OFFCURVE",
"849 187 OFFCURVE",
"684 101 CURVE SMOOTH",
"648 82 OFFCURVE",
"616 72 OFFCURVE",
"581 72 CURVE SMOOTH",
"521 72 OFFCURVE",
"466 101 OFFCURVE",
"445 154 CURVE SMOOTH",
"427 200 OFFCURVE",
"437 255 OFFCURVE",
"472 277 CURVE SMOOTH",
"484 284 OFFCURVE",
"498 289 OFFCURVE",
"518 289 CURVE SMOOTH",
"531 289 OFFCURVE",
"546 287 OFFCURVE",
"562 283 CURVE",
"589 275 OFFCURVE",
"614 286 OFFCURVE",
"626 312 CURVE SMOOTH",
"637 337 OFFCURVE",
"621 368 OFFCURVE",
"587 377 CURVE SMOOTH",
"563 384 OFFCURVE",
"539 387 OFFCURVE",
"518 387 CURVE SMOOTH",
"484 387 OFFCURVE",
"450 378 OFFCURVE",
"421 361 CURVE SMOOTH",
"343 313 OFFCURVE",
"319 207 OFFCURVE",
"354 118 CURVE SMOOTH",
"389 29 OFFCURVE",
"479 -26 OFFCURVE",
"581 -26 CURVE SMOOTH"
);
}
);
width = 1090;
}
);
unicode = 0044;
},
{
glyphname = Eth;
lastChange = "2019-02-06 22:42:34 +0000";
layers = (
{
layerId = master01;
paths = (
{
closed = 1;
nodes = (
"33 -57 OFFCURVE",
"71 -37 OFFCURVE",
"105 -6 CURVE SMOOTH",
"156 39 OFFCURVE",
"199 108 OFFCURVE",
"245 189 CURVE SMOOTH",
"292 270 OFFCURVE",
"340 363 OFFCURVE",
"400 459 CURVE SMOOTH",
"429 504 OFFCURVE",
"458 550 OFFCURVE",
"487 593 CURVE",
"562 587 OFFCURVE",
"633 611 OFFCURVE",
"693 654 CURVE SMOOTH",
"736 685 OFFCURVE",
"762 715 OFFCURVE",
"762 716 CURVE",
"765 719 OFFCURVE",
"764 725 OFFCURVE",
"761 728 CURVE",
"757 731 OFFCURVE",
"751 731 OFFCURVE",
"748 727 CURVE",
"727 704 OFFCURVE",
"704 683 OFFCURVE",
"679 666 CURVE SMOOTH",
"623 626 OFFCURVE",
"563 610 OFFCURVE",
"499 610 CURVE",
"547 681 OFFCURVE",
"597 746 OFFCURVE",
"651 800 CURVE SMOOTH",
"672 820 OFFCURVE",
"693 839 OFFCURVE",
"715 856 CURVE",
"787 825 OFFCURVE",
"837 782 OFFCURVE",
"871 731 CURVE SMOOTH",
"913 667 OFFCURVE",
"930 590 OFFCURVE",
"930 513 CURVE SMOOTH",
"930 443 OFFCURVE",
"916 372 OFFCURVE",
"897 311 CURVE SMOOTH",
"861 194 OFFCURVE",
"792 84 OFFCURVE",
"685 28 CURVE SMOOTH",
"635 2 OFFCURVE",
"586 -8 OFFCURVE",
"543 -8 CURVE SMOOTH",
"468 -8 OFFCURVE",
"399 23 OFFCURVE",
"366 90 CURVE SMOOTH",
"345 134 OFFCURVE",
"349 208 OFFCURVE",
"401 238 CURVE SMOOTH",
"417 247 OFFCURVE",
"436 253 OFFCURVE",
"463 253 CURVE SMOOTH",
"493 253 OFFCURVE",
"531 246 OFFCURVE",
"580 226 CURVE SMOOTH",
"585 224 OFFCURVE",
"590 227 OFFCURVE",
"592 231 CURVE",
"594 236 OFFCURVE",
"591 241 OFFCURVE",
"587 243 CURVE",
"536 263 OFFCURVE",
"496 271 OFFCURVE",
"463 271 CURVE SMOOTH",
"433 271 OFFCURVE",
"408 263 OFFCURVE",
"389 252 CURVE SMOOTH",
"318 210 OFFCURVE",
"333 115 OFFCURVE",
"350 82 CURVE SMOOTH",
"386 6 OFFCURVE",
"465 -26 OFFCURVE",
"543 -26 CURVE SMOOTH",
"588 -26 OFFCURVE",
"640 -16 OFFCURVE",
"693 12 CURVE SMOOTH",
"809 73 OFFCURVE",
"876 188 OFFCURVE",
"914 305 CURVE SMOOTH",
"934 368 OFFCURVE",
"948 440 OFFCURVE",
"948 513 CURVE SMOOTH",
"948 593 OFFCURVE",
"931 673 OFFCURVE",
"886 741 CURVE SMOOTH",
"852 792 OFFCURVE",
"802 837 OFFCURVE",
"732 868 CURVE",
"753 884 OFFCURVE",
"776 897 OFFCURVE",
"799 909 CURVE SMOOTH",
"852 935 OFFCURVE",
"910 950 OFFCURVE",
"975 950 CURVE SMOOTH",
"1047 950 OFFCURVE",
"1119 930 OFFCURVE",
"1148 866 CURVE",
"1150 861 OFFCURVE",
"1155 859 OFFCURVE",
"1160 861 CURVE",
"1164 863 OFFCURVE",
"1166 868 OFFCURVE",
"1164 873 CURVE SMOOTH",
"1132 948 OFFCURVE",
"1047 968 OFFCURVE",
"975 968 CURVE SMOOTH",
"907 968 OFFCURVE",
"847 952 OFFCURVE",
"791 925 CURVE SMOOTH",
"764 912 OFFCURVE",
"737 895 OFFCURVE",
"712 877 CURVE",
"587 926 OFFCURVE",
"424 939 OFFCURVE",
"342 817 CURVE SMOOTH",
"269 710 OFFCURVE",
"354 614 OFFCURVE",
"467 596 CURVE",
"440 554 OFFCURVE",
"412 511 OFFCURVE",
"385 468 CURVE SMOOTH",
"304 340 OFFCURVE",
"244 216 OFFCURVE",
"185 122 CURVE SMOOTH",
"155 75 OFFCURVE",
"125 36 OFFCURVE",
"93 7 CURVE SMOOTH",
"60 -22 OFFCURVE",
"26 -39 OFFCURVE",
"-13 -44 CURVE SMOOTH",
"-46 -49 OFFCURVE",
"-78 -43 OFFCURVE",
"-104 -22 CURVE",
"-120 -8 OFFCURVE",
"-130 11 OFFCURVE",
"-134 30 CURVE",
"-135 34 OFFCURVE",
"-140 37 OFFCURVE",
"-145 36 CURVE SMOOTH",
"-150 35 OFFCURVE",
"-153 30 OFFCURVE",
"-152 25 CURVE",
"-146 3 OFFCURVE",
"-135 -19 OFFCURVE",
"-115 -36 CURVE SMOOTH",
"-86 -62 OFFCURVE",
"-46 -67 OFFCURVE",
"-11 -62 CURVE SMOOTH"
);
},
{
closed = 1;
nodes = (
"644 526 LINE",
"649 529 OFFCURVE",
"650 533 OFFCURVE",
"648 538 CURVE SMOOTH",
"646 543 OFFCURVE",
"640 545 OFFCURVE",
"636 542 CURVE",
"88 286 LINE SMOOTH",
"84 284 OFFCURVE",
"81 278 OFFCURVE",
"84 274 CURVE",
"86 270 OFFCURVE",
"91 267 OFFCURVE",
"96 270 CURVE"
);
},
{
closed = 1;
nodes = (
"349 636 OFFCURVE",
"286 736 OFFCURVE",
"378 833 CURVE SMOOTH",
"458 918 OFFCURVE",
"594 901 OFFCURVE",
"696 864 CURVE",
"651 828 OFFCURVE",
"610 785 OFFCURVE",
"571 737 CURVE SMOOTH",
"539 699 OFFCURVE",
"508 657 OFFCURVE",
"479 613 CURVE"
);
}
);
width = 1008;
},
{
components = (
{
name = D;
}
);
layerId = "AF956123-A183-4F86-8774-5A4F8E572774";
paths = (
{
closed = 1;
nodes = (
"508 414 LINE SMOOTH",
"543 425 OFFCURVE",
"563 452 OFFCURVE",
"555 480 CURVE SMOOTH",
"547 507 OFFCURVE",
"514 519 OFFCURVE",
"479 508 CURVE SMOOTH",
"-154 315 LINE SMOOTH",
"-189 304 OFFCURVE",
"-209 277 OFFCURVE",
"-201 249 CURVE SMOOTH",
"-193 222 OFFCURVE",
"-160 210 OFFCURVE",
"-125 221 CURVE SMOOTH"
);
}
);
width = 1090;
}
);
unicode = 00D0;
},
{
glyphname = E;
lastChange = "2019-02-06 22:44:36 +0000";
layers = (
{
layerId = master01;
paths = (
{
closed = 1;
nodes = (
"533 -14 OFFCURVE",
"672 69 OFFCURVE",
"749 218 CURVE SMOOTH",
"751 222 OFFCURVE",
"749 228 OFFCURVE",
"744 230 CURVE",
"740 232 OFFCURVE",
"734 230 OFFCURVE",
"732 225 CURVE",
"664 85 OFFCURVE",
"523 4 OFFCURVE",
"368 4 CURVE SMOOTH",
"293 4 OFFCURVE",
"207 38 OFFCURVE",
"158 103 CURVE SMOOTH",
"124 151 OFFCURVE",
"118 209 OFFCURVE",
"126 278 CURVE",
"138 350 OFFCURVE",
"172 415 OFFCURVE",
"230 464 CURVE SMOOTH",
"274 503 OFFCURVE",
"329 531 OFFCURVE",
"390 543 CURVE",
"398 528 OFFCURVE",
"412 512 OFFCURVE",
"426 501 CURVE SMOOTH",
"459 474 OFFCURVE",
"551 448 OFFCURVE",
"569 497 CURVE",
"581 543 OFFCURVE",
"533 563 OFFCURVE",
"492 567 CURVE SMOOTH",
"461 569 OFFCURVE",
"431 569 OFFCURVE",
"400 563 CURVE",
"379 612 OFFCURVE",
"379 671 OFFCURVE",
"395 729 CURVE",
"452 682 OFFCURVE",
"517 663 OFFCURVE",
"594 660 CURVE",
"677 660 OFFCURVE",
"761 697 OFFCURVE",
"809 763 CURVE SMOOTH",
"842 811 OFFCURVE",
"844 883 OFFCURVE",
"800 927 CURVE",
"757 967 OFFCURVE",
"693 969 OFFCURVE",
"635 962 CURVE",
"634 962 OFFCURVE",
"579 954 OFFCURVE",
"517 916 CURVE SMOOTH",
"487 897 OFFCURVE",
"454 870 OFFCURVE",
"427 833 CURVE SMOOTH",
"412 812 OFFCURVE",
"398 789 OFFCURVE",
"387 761 CURVE",
"354 798 OFFCURVE",
"331 838 OFFCURVE",
"321 896 CURVE SMOOTH",
"320 901 OFFCURVE",
"317 904 OFFCURVE",
"311 904 CURVE",
"305 903 OFFCURVE",
"302 899 OFFCURVE",
"303 893 CURVE SMOOTH",
"312 831 OFFCURVE",
"345 779 OFFCURVE",
"380 743 CURVE",
"360 686 OFFCURVE",
"359 621 OFFCURVE",
"381 560 CURVE",
"322 548 OFFCURVE",
"269 520 OFFCURVE",
"219 478 CURVE SMOOTH",
"180 445 OFFCURVE",
"124 383 OFFCURVE",
"108 281 CURVE SMOOTH",
"99 216 OFFCURVE",
"104 147 OFFCURVE",
"145 90 CURVE SMOOTH",
"196 23 OFFCURVE",
"276 -10 OFFCURVE",
"368 -14 CURVE"
);
},
{
closed = 1;
nodes = (
"537 475 OFFCURVE",
"476 486 OFFCURVE",
"437 515 CURVE SMOOTH",
"425 524 OFFCURVE",
"416 535 OFFCURVE",
"409 546 CURVE",
"428 549 OFFCURVE",
"453 553 OFFCURVE",
"490 550 CURVE",
"515 549 OFFCURVE",
"562 535 OFFCURVE",
"552 502 CURVE"
);
},
{
closed = 1;
nodes = (
"526 678 OFFCURVE",
"454 699 OFFCURVE",
"401 748 CURVE",
"412 776 OFFCURVE",
"426 801 OFFCURVE",
"441 822 CURVE",
"485 879 OFFCURVE",
"560 932 OFFCURVE",
"633 943 CURVE SMOOTH",
"693 951 OFFCURVE",
"758 945 OFFCURVE",
"788 914 CURVE",
"825 880 OFFCURVE",
"822 814 OFFCURVE",
"794 774 CURVE",
"746 714 OFFCURVE",
"691 680 OFFCURVE",
"594 678 CURVE SMOOTH"
);
}
);
width = 847;
},
{
layerId = "AF956123-A183-4F86-8774-5A4F8E572774";
paths = (
{
closed = 1;
nodes = (
"688 -14 OFFCURVE",
"838 75 OFFCURVE",
"908 224 CURVE SMOOTH",
"921 252 OFFCURVE",
"913 280 OFFCURVE",
"887 293 CURVE SMOOTH",
"863 305 OFFCURVE",
"833 298 OFFCURVE",
"822 272 CURVE SMOOTH",
"770 154 OFFCURVE",
"653 84 OFFCURVE",
"502 84 CURVE SMOOTH",
"416 84 OFFCURVE",
"322 126 OFFCURVE",
"262 191 CURVE SMOOTH",
"114 349 OFFCURVE",
"263 568 OFFCURVE",
"508 550 CURVE SMOOTH",
"564 546 OFFCURVE",
"605 510 OFFCURVE",
"597 489 CURVE SMOOTH",
"594 481 OFFCURVE",
"533 488 OFFCURVE",
"486 519 CURVE SMOOTH",
"421 562 OFFCURVE",
"387 654 OFFCURVE",
"399 764 CURVE SMOOTH",
"407 844 OFFCURVE",
"494 932 OFFCURVE",
"582 946 CURVE SMOOTH",
"788 980 OFFCURVE",
"844 773 OFFCURVE",
"608 766 CURVE SMOOTH",
"467 763 OFFCURVE",
"334 837 OFFCURVE",
"267 962 CURVE SMOOTH",
"253 988 OFFCURVE",
"235 1007 OFFCURVE",
"207 1002 CURVE SMOOTH",
"180 997 OFFCURVE",
"159 965 OFFCURVE",
"174 934 CURVE SMOOTH",
"256 768 OFFCURVE",
"426 664 OFFCURVE",
"610 668 CURVE SMOOTH",
"1002 679 OFFCURVE",
"893 1097 OFFCURVE",
"566 1043 CURVE SMOOTH",
"435 1022 OFFCURVE",
"314 898 OFFCURVE",
"302 774 CURVE SMOOTH",
"287 638 OFFCURVE",
"329 505 OFFCURVE",
"432 437 CURVE SMOOTH",
"528 374 OFFCURVE",
"658 365 OFFCURVE",
"690 457 CURVE SMOOTH",
"723 554 OFFCURVE",
"625 639 OFFCURVE",
"515 648 CURVE SMOOTH",
"188 673 OFFCURVE",
"-24 352 OFFCURVE",
"190 124 CURVE SMOOTH",
"269 39 OFFCURVE",
"390 -14 OFFCURVE",
"502 -14 CURVE SMOOTH"
);
}
);
width = 934;
},
{
associatedMasterId = "AF956123-A183-4F86-8774-5A4F8E572774";
layerId = "20A07D1F-3EED-4ACE-AFE0-EE34A2F5C001";
name = "Dec 20 18, 23:44";
paths = (
{
closed = 0;
nodes = (
"759 242 LINE",
"686 91 OFFCURVE",
"535 4 OFFCURVE",
"368 4 CURVE SMOOTH",
"293 4 OFFCURVE",
"207 38 OFFCURVE",
"158 103 CURVE SMOOTH",
"88 201 OFFCURVE",
"123 373 OFFCURVE",
"230 464 CURVE SMOOTH",
"304 529 OFFCURVE",
"411 556 OFFCURVE",
"490 550 CURVE SMOOTH",
"515 548 OFFCURVE",
"568 533 OFFCURVE",
"552 502 CURVE SMOOTH",
"538 475 OFFCURVE",
"476 486 OFFCURVE",
"437 515 CURVE SMOOTH",
"381 557 OFFCURVE",
"375 653 OFFCURVE",
"401 748 CURVE SMOOTH",
"422 823 OFFCURVE",
"525 927 OFFCURVE",
"633 943 CURVE SMOOTH",
"693 951 OFFCURVE",
"758 945 OFFCURVE",
"788 914 CURVE",
"825 880 OFFCURVE",
"822 814 OFFCURVE",
"794 774 CURVE",
"746 714 OFFCURVE",
"691 680 OFFCURVE",
"594 678 CURVE SMOOTH",
"437 678 OFFCURVE",
"315 770 OFFCURVE",
"288 922 CURVE"
);
}
);
width = 600;
},
{
associatedMasterId = "AF956123-A183-4F86-8774-5A4F8E572774";
layerId = "653976E8-F310-472E-B25F-7753F7FEB51A";
name = "Feb 7 19, 00:43";
paths = (
{
closed = 1;
nodes = (
"636 -14 OFFCURVE",
"806 79 OFFCURVE",
"900 233 CURVE SMOOTH",
"916 259 OFFCURVE",
"905 289 OFFCURVE",
"879 302 CURVE SMOOTH",
"855 314 OFFCURVE",
"829 305 OFFCURVE",
"814 281 CURVE SMOOTH",
"736 155 OFFCURVE",
"597 84 OFFCURVE",
"446 84 CURVE SMOOTH",
"371 84 OFFCURVE",
"285 118 OFFCURVE",
"236 183 CURVE SMOOTH",
"118 339 OFFCURVE",
"328 569 OFFCURVE",
"568 550 CURVE SMOOTH",
"593 548 OFFCURVE",
"646 533 OFFCURVE",
"630 502 CURVE SMOOTH",
"616 475 OFFCURVE",
"554 486 OFFCURVE",
"515 515 CURVE SMOOTH",
"459 557 OFFCURVE",
"452 653 OFFCURVE",
"479 748 CURVE SMOOTH",
"500 823 OFFCURVE",
"603 929 OFFCURVE",
"711 946 CURVE SMOOTH",
"943 983 OFFCURVE",
"890 772 OFFCURVE",
"672 766 CURVE SMOOTH",
"532 762 OFFCURVE",
"420 838 OFFCURVE",
"378 962 CURVE SMOOTH",
"369 990 OFFCURVE",
"346 1007 OFFCURVE",
"318 1002 CURVE SMOOTH",
"291 997 OFFCURVE",
"274 967 OFFCURVE",
"285 934 CURVE SMOOTH",
"339 768 OFFCURVE",
"490 664 OFFCURVE",
"674 668 CURVE SMOOTH",
"1068 679 OFFCURVE",
"1033 1097 OFFCURVE",
"696 1043 CURVE SMOOTH",
"562 1022 OFFCURVE",
"419 898 OFFCURVE",
"385 774 CURVE SMOOTH",
"346 638 OFFCURVE",
"365 505 OFFCURVE",
"456 437 CURVE SMOOTH",
"541 374 OFFCURVE",
"669 365 OFFCURVE",
"717 457 CURVE SMOOTH",
"767 554 OFFCURVE",
"684 639 OFFCURVE",
"576 648 CURVE SMOOTH",
"253 673 OFFCURVE",
"-15 352 OFFCURVE",
"158 124 CURVE SMOOTH",
"222 39 OFFCURVE",
"334 -14 OFFCURVE",
"446 -14 CURVE SMOOTH"
);
}
);
width = 979;
}
);
unicode = 0045;
},
{
glyphname = Eacute;
lastChange = "2019-02-07 00:31:50 +0000";
layers = (
{
layerId = master01;
paths = (
{
closed = 1;
nodes = (
"533 -14 OFFCURVE",
"672 69 OFFCURVE",
"749 218 CURVE SMOOTH",
"751 222 OFFCURVE",
"749 228 OFFCURVE",
"744 230 CURVE",
"740 232 OFFCURVE",
"734 230 OFFCURVE",
"732 225 CURVE",
"664 85 OFFCURVE",
"523 4 OFFCURVE",
"368 4 CURVE SMOOTH",
"293 4 OFFCURVE",
"207 38 OFFCURVE",
"158 103 CURVE SMOOTH",
"124 151 OFFCURVE",
"118 209 OFFCURVE",
"126 278 CURVE",
"138 350 OFFCURVE",
"172 415 OFFCURVE",
"230 464 CURVE SMOOTH",
"274 503 OFFCURVE",
"329 531 OFFCURVE",
"390 543 CURVE",
"398 528 OFFCURVE",
"412 512 OFFCURVE",
"426 501 CURVE SMOOTH",
"459 474 OFFCURVE",
"551 448 OFFCURVE",
"569 497 CURVE",
"581 543 OFFCURVE",
"533 563 OFFCURVE",
"492 567 CURVE SMOOTH",
"461 569 OFFCURVE",
"431 569 OFFCURVE",
"400 563 CURVE",
"379 612 OFFCURVE",
"379 671 OFFCURVE",
"395 729 CURVE",
"452 682 OFFCURVE",
"517 663 OFFCURVE",
"594 660 CURVE",
"677 660 OFFCURVE",
"761 697 OFFCURVE",
"809 763 CURVE SMOOTH",
"842 811 OFFCURVE",
"844 883 OFFCURVE",
"800 927 CURVE",
"757 967 OFFCURVE",
"693 969 OFFCURVE",
"635 962 CURVE",
"634 962 OFFCURVE",
"579 954 OFFCURVE",
"517 916 CURVE SMOOTH",
"487 897 OFFCURVE",
"454 870 OFFCURVE",
"427 833 CURVE SMOOTH",
"412 812 OFFCURVE",
"398 789 OFFCURVE",
"387 761 CURVE",
"354 798 OFFCURVE",
"331 838 OFFCURVE",
"321 896 CURVE SMOOTH",
"320 901 OFFCURVE",
"317 904 OFFCURVE",
"311 904 CURVE",
"305 903 OFFCURVE",
"302 899 OFFCURVE",
"303 893 CURVE SMOOTH",
"312 831 OFFCURVE",
"345 779 OFFCURVE",
"380 743 CURVE",
"360 686 OFFCURVE",
"359 621 OFFCURVE",
"381 560 CURVE",
"322 548 OFFCURVE",
"269 520 OFFCURVE",
"219 478 CURVE SMOOTH",
"180 445 OFFCURVE",
"124 383 OFFCURVE",
"108 281 CURVE SMOOTH",
"99 216 OFFCURVE",
"104 147 OFFCURVE",
"145 90 CURVE SMOOTH",
"196 23 OFFCURVE",
"276 -10 OFFCURVE",
"368 -14 CURVE"
);
},
{
closed = 1;
nodes = (
"537 475 OFFCURVE",
"476 486 OFFCURVE",
"437 515 CURVE SMOOTH",
"425 524 OFFCURVE",
"416 535 OFFCURVE",
"409 546 CURVE",
"428 549 OFFCURVE",
"453 553 OFFCURVE",
"490 550 CURVE",
"515 549 OFFCURVE",
"562 535 OFFCURVE",
"552 502 CURVE"
);
},
{
closed = 1;
nodes = (
"526 678 OFFCURVE",
"454 699 OFFCURVE",
"401 748 CURVE",
"412 776 OFFCURVE",
"426 801 OFFCURVE",
"441 822 CURVE",
"485 879 OFFCURVE",
"560 932 OFFCURVE",
"633 943 CURVE SMOOTH",
"693 951 OFFCURVE",
"758 945 OFFCURVE",
"788 914 CURVE",
"825 880 OFFCURVE",
"822 814 OFFCURVE",
"794 774 CURVE",
"746 714 OFFCURVE",
"691 680 OFFCURVE",
"594 678 CURVE SMOOTH"
);
},
{
closed = 1;
nodes = (
"700 1012 OFFCURVE",
"861 1058 OFFCURVE",
"1006 1150 CURVE",
"1010 1153 OFFCURVE",
"1012 1158 OFFCURVE",
"1009 1163 CURVE",
"1006 1167 OFFCURVE",
"1001 1168 OFFCURVE",
"996 1165 CURVE SMOOTH",
"869 1083 OFFCURVE",
"695 1027 OFFCURVE",
"541 1047 CURVE",
"536 1048 OFFCURVE",
"532 1044 OFFCURVE",
"531 1040 CURVE",
"530 1035 OFFCURVE",
"533 1030 OFFCURVE",
"538 1029 CURVE"
);
}
);
width = 847;
},
{
components = (
{
name = E;
},
{
name = acute;
transform = "{1, 0, 0, 1, 480, 312}";
}
);
layerId = "AF956123-A183-4F86-8774-5A4F8E572774";
width = 979;
}
);
unicode = 00C9;
},
{
glyphname = Ecircumflex;
lastChange = "2019-02-07 00:31:52 +0000";
layers = (
{
layerId = master01;
paths = (
{
closed = 1;
nodes = (
"533 -14 OFFCURVE",
"672 69 OFFCURVE",
"749 218 CURVE SMOOTH",
"751 222 OFFCURVE",
"749 228 OFFCURVE",
"744 230 CURVE",
"740 232 OFFCURVE",
"734 230 OFFCURVE",
"732 225 CURVE",
"664 85 OFFCURVE",
"523 4 OFFCURVE",
"368 4 CURVE SMOOTH",
"293 4 OFFCURVE",
"207 38 OFFCURVE",
"158 103 CURVE SMOOTH",
"124 151 OFFCURVE",
"118 209 OFFCURVE",
"126 278 CURVE",
"138 350 OFFCURVE",
"172 415 OFFCURVE",
"230 464 CURVE SMOOTH",
"274 503 OFFCURVE",
"329 531 OFFCURVE",
"390 543 CURVE",
"398 528 OFFCURVE",
"412 512 OFFCURVE",
"426 501 CURVE SMOOTH",
"459 474 OFFCURVE",
"551 448 OFFCURVE",
"569 497 CURVE",
"581 543 OFFCURVE",
"533 563 OFFCURVE",
"492 567 CURVE SMOOTH",
"461 569 OFFCURVE",
"431 569 OFFCURVE",
"400 563 CURVE",
"379 612 OFFCURVE",
"379 671 OFFCURVE",
"395 729 CURVE",
"452 682 OFFCURVE",
"517 663 OFFCURVE",
"594 660 CURVE",
"677 660 OFFCURVE",
"761 697 OFFCURVE",
"809 763 CURVE SMOOTH",
"842 811 OFFCURVE",
"844 883 OFFCURVE",
"800 927 CURVE",
"757 967 OFFCURVE",
"693 969 OFFCURVE",
"635 962 CURVE",
"634 962 OFFCURVE",
"579 954 OFFCURVE",
"517 916 CURVE SMOOTH",
"487 897 OFFCURVE",
"454 870 OFFCURVE",
"427 833 CURVE SMOOTH",
"412 812 OFFCURVE",
"398 789 OFFCURVE",
"387 761 CURVE",
"354 798 OFFCURVE",
"331 838 OFFCURVE",
"321 896 CURVE SMOOTH",
"320 901 OFFCURVE",
"317 904 OFFCURVE",
"311 904 CURVE",
"305 903 OFFCURVE",
"302 899 OFFCURVE",
"303 893 CURVE SMOOTH",
"312 831 OFFCURVE",
"345 779 OFFCURVE",
"380 743 CURVE",
"360 686 OFFCURVE",
"359 621 OFFCURVE",
"381 560 CURVE",
"322 548 OFFCURVE",
"269 520 OFFCURVE",
"219 478 CURVE SMOOTH",
"180 445 OFFCURVE",
"124 383 OFFCURVE",
"108 281 CURVE SMOOTH",
"99 216 OFFCURVE",
"104 147 OFFCURVE",
"145 90 CURVE SMOOTH",
"196 23 OFFCURVE",
"276 -10 OFFCURVE",
"368 -14 CURVE"
);
},
{
closed = 1;
nodes = (
"537 475 OFFCURVE",
"476 486 OFFCURVE",
"437 515 CURVE SMOOTH",
"425 524 OFFCURVE",
"416 535 OFFCURVE",
"409 546 CURVE",
"428 549 OFFCURVE",
"453 553 OFFCURVE",
"490 550 CURVE",
"515 549 OFFCURVE",
"562 535 OFFCURVE",
"552 502 CURVE"
);
},
{
closed = 1;
nodes = (
"526 678 OFFCURVE",
"454 699 OFFCURVE",
"401 748 CURVE",
"412 776 OFFCURVE",
"426 801 OFFCURVE",
"441 822 CURVE",
"485 879 OFFCURVE",
"560 932 OFFCURVE",
"633 943 CURVE SMOOTH",
"693 951 OFFCURVE",
"758 945 OFFCURVE",
"788 914 CURVE",
"825 880 OFFCURVE",
"822 814 OFFCURVE",
"794 774 CURVE",
"746 714 OFFCURVE",
"691 680 OFFCURVE",
"594 678 CURVE SMOOTH"
);
},
{
closed = 1;
nodes = (
"982 974 OFFCURVE",
"986 978 OFFCURVE",
"986 983 CURVE SMOOTH",
"986 988 OFFCURVE",
"982 992 OFFCURVE",
"977 992 CURVE SMOOTH",
"931 992 OFFCURVE",
"899 1013 OFFCURVE",
"880 1055 CURVE SMOOTH",
"866 1087 OFFCURVE",
"866 1120 OFFCURVE",
"866 1121 CURVE SMOOTH",
"866 1128 OFFCURVE",
"857 1132 OFFCURVE",
"852 1129 CURVE SMOOTH",
"729 1053 OFFCURVE",
"619 1032 OFFCURVE",
"548 1025 CURVE SMOOTH",
"471 1017 OFFCURVE",
"421 1028 OFFCURVE",
"421 1028 CURVE",
"416 1029 OFFCURVE",
"411 1026 OFFCURVE",
"410 1021 CURVE SMOOTH",
"409 1016 OFFCURVE",
"412 1011 OFFCURVE",
"417 1010 CURVE",
"419 1010 OFFCURVE",
"469 999 OFFCURVE",
"549 1007 CURVE SMOOTH",
"596 1011 OFFCURVE",
"643 1021 OFFCURVE",
"690 1036 CURVE SMOOTH",
"744 1052 OFFCURVE",
"797 1076 OFFCURVE",
"849 1106 CURVE",
"850 1092 OFFCURVE",
"854 1070 OFFCURVE",
"864 1048 CURVE SMOOTH",
"885 1000 OFFCURVE",
"924 974 OFFCURVE",
"977 974 CURVE SMOOTH"
);
}
);
width = 847;
},
{
components = (
{
name = E;
},
{
name = circumflex;
transform = "{1, 0, 0, 1, 365, 405}";
}
);
layerId = "AF956123-A183-4F86-8774-5A4F8E572774";
width = 979;
}
);
unicode = 00CA;
},
{
glyphname = Edieresis;
lastChange = "2019-02-07 00:31:55 +0000";
layers = (
{
layerId = master01;
paths = (
{
closed = 1;
nodes = (
"533 -14 OFFCURVE",
"672 69 OFFCURVE",
"749 218 CURVE SMOOTH",
"751 222 OFFCURVE",
"749 228 OFFCURVE",
"744 230 CURVE",
"740 232 OFFCURVE",
"734 230 OFFCURVE",
"732 225 CURVE",
"664 85 OFFCURVE",
"523 4 OFFCURVE",
"368 4 CURVE SMOOTH",
"293 4 OFFCURVE",
"207 38 OFFCURVE",
"158 103 CURVE SMOOTH",
"124 151 OFFCURVE",
"118 209 OFFCURVE",
"126 278 CURVE",
"138 350 OFFCURVE",
"172 415 OFFCURVE",
"230 464 CURVE SMOOTH",
"274 503 OFFCURVE",
"329 531 OFFCURVE",
"390 543 CURVE",
"398 528 OFFCURVE",
"412 512 OFFCURVE",
"426 501 CURVE SMOOTH",
"459 474 OFFCURVE",
"551 448 OFFCURVE",
"569 497 CURVE",
"581 543 OFFCURVE",
"533 563 OFFCURVE",
"492 567 CURVE SMOOTH",
"461 569 OFFCURVE",
"431 569 OFFCURVE",
"400 563 CURVE",
"379 612 OFFCURVE",
"379 671 OFFCURVE",
"395 729 CURVE",
"452 682 OFFCURVE",
"517 663 OFFCURVE",
"594 660 CURVE",
"677 660 OFFCURVE",
"761 697 OFFCURVE",
"809 763 CURVE SMOOTH",
"842 811 OFFCURVE",
"844 883 OFFCURVE",
"800 927 CURVE",
"757 967 OFFCURVE",
"693 969 OFFCURVE",
"635 962 CURVE",
"634 962 OFFCURVE",
"579 954 OFFCURVE",
"517 916 CURVE SMOOTH",
"487 897 OFFCURVE",
"454 870 OFFCURVE",
"427 833 CURVE SMOOTH",
"412 812 OFFCURVE",
"398 789 OFFCURVE",
"387 761 CURVE",
"354 798 OFFCURVE",
"331 838 OFFCURVE",
"321 896 CURVE SMOOTH",
"320 901 OFFCURVE",
"317 904 OFFCURVE",
"311 904 CURVE",
"305 903 OFFCURVE",
"302 899 OFFCURVE",
"303 893 CURVE SMOOTH",
"312 831 OFFCURVE",
"345 779 OFFCURVE",
"380 743 CURVE",
"360 686 OFFCURVE",
"359 621 OFFCURVE",
"381 560 CURVE",
"322 548 OFFCURVE",
"269 520 OFFCURVE",
"219 478 CURVE SMOOTH",
"180 445 OFFCURVE",
"124 383 OFFCURVE",
"108 281 CURVE SMOOTH",
"99 216 OFFCURVE",
"104 147 OFFCURVE",
"145 90 CURVE SMOOTH",
"196 23 OFFCURVE",
"276 -10 OFFCURVE",
"368 -14 CURVE"
);
},
{
closed = 1;
nodes = (
"537 475 OFFCURVE",
"476 486 OFFCURVE",
"437 515 CURVE SMOOTH",
"425 524 OFFCURVE",
"416 535 OFFCURVE",
"409 546 CURVE",
"428 549 OFFCURVE",
"453 553 OFFCURVE",
"490 550 CURVE",
"515 549 OFFCURVE",
"562 535 OFFCURVE",
"552 502 CURVE"
);
},
{
closed = 1;
nodes = (
"526 678 OFFCURVE",
"454 699 OFFCURVE",
"401 748 CURVE",
"412 776 OFFCURVE",
"426 801 OFFCURVE",
"441 822 CURVE",
"485 879 OFFCURVE",
"560 932 OFFCURVE",
"633 943 CURVE SMOOTH",
"693 951 OFFCURVE",
"758 945 OFFCURVE",
"788 914 CURVE",
"825 880 OFFCURVE",
"822 814 OFFCURVE",
"794 774 CURVE",
"746 714 OFFCURVE",
"691 680 OFFCURVE",
"594 678 CURVE SMOOTH"
);
},
{
closed = 1;
nodes = (
"651 988 OFFCURVE",
"675 1012 OFFCURVE",
"675 1042 CURVE SMOOTH",
"675 1072 OFFCURVE",
"651 1096 OFFCURVE",
"621 1096 CURVE SMOOTH",
"591 1096 OFFCURVE",
"567 1072 OFFCURVE",
"567 1042 CURVE SMOOTH",
"567 1012 OFFCURVE",
"591 988 OFFCURVE",
"621 988 CURVE SMOOTH"
);
},
{
closed = 1;
nodes = (
"813 988 OFFCURVE",
"837 1012 OFFCURVE",
"837 1042 CURVE SMOOTH",
"837 1072 OFFCURVE",
"813 1096 OFFCURVE",
"783 1096 CURVE SMOOTH",
"753 1096 OFFCURVE",
"729 1072 OFFCURVE",
"729 1042 CURVE SMOOTH",
"729 1012 OFFCURVE",
"753 988 OFFCURVE",
"783 988 CURVE SMOOTH"
);
}
);
width = 847;
},
{
components = (
{
name = E;
},
{
name = dieresis;
transform = "{1, 0, 0, 1, 348, 366}";
}
);
layerId = "AF956123-A183-4F86-8774-5A4F8E572774";
width = 979;
}
);
unicode = 00CB;
},
{
glyphname = Egrave;
lastChange = "2019-02-07 00:31:58 +0000";
layers = (
{
layerId = master01;
paths = (
{
closed = 1;
nodes = (
"533 -14 OFFCURVE",
"672 69 OFFCURVE",
"749 218 CURVE SMOOTH",
"751 222 OFFCURVE",
"749 228 OFFCURVE",
"744 230 CURVE",
"740 232 OFFCURVE",
"734 230 OFFCURVE",
"732 225 CURVE",
"664 85 OFFCURVE",
"523 4 OFFCURVE",
"368 4 CURVE SMOOTH",
"293 4 OFFCURVE",
"207 38 OFFCURVE",
"158 103 CURVE SMOOTH",
"124 151 OFFCURVE",
"118 209 OFFCURVE",
"126 278 CURVE",
"138 350 OFFCURVE",
"172 415 OFFCURVE",
"230 464 CURVE SMOOTH",
"274 503 OFFCURVE",
"329 531 OFFCURVE",
"390 543 CURVE",
"398 528 OFFCURVE",
"412 512 OFFCURVE",
"426 501 CURVE SMOOTH",
"459 474 OFFCURVE",
"551 448 OFFCURVE",
"569 497 CURVE",
"581 543 OFFCURVE",
"533 563 OFFCURVE",
"492 567 CURVE SMOOTH",
"461 569 OFFCURVE",
"431 569 OFFCURVE",
"400 563 CURVE",
"379 612 OFFCURVE",
"379 671 OFFCURVE",
"395 729 CURVE",
"452 682 OFFCURVE",
"517 663 OFFCURVE",
"594 660 CURVE",
"677 660 OFFCURVE",
"761 697 OFFCURVE",
"809 763 CURVE SMOOTH",
"842 811 OFFCURVE",
"844 883 OFFCURVE",
"800 927 CURVE",
"757 967 OFFCURVE",
"693 969 OFFCURVE",
"635 962 CURVE",
"634 962 OFFCURVE",
"579 954 OFFCURVE",
"517 916 CURVE SMOOTH",
"487 897 OFFCURVE",
"454 870 OFFCURVE",
"427 833 CURVE SMOOTH",
"412 812 OFFCURVE",
"398 789 OFFCURVE",
"387 761 CURVE",
"354 798 OFFCURVE",
"331 838 OFFCURVE",
"321 896 CURVE SMOOTH",
"320 901 OFFCURVE",
"317 904 OFFCURVE",
"311 904 CURVE",
"305 903 OFFCURVE",
"302 899 OFFCURVE",
"303 893 CURVE SMOOTH",
"312 831 OFFCURVE",
"345 779 OFFCURVE",
"380 743 CURVE",
"360 686 OFFCURVE",
"359 621 OFFCURVE",
"381 560 CURVE",
"322 548 OFFCURVE",
"269 520 OFFCURVE",
"219 478 CURVE SMOOTH",
"180 445 OFFCURVE",
"124 383 OFFCURVE",
"108 281 CURVE SMOOTH",
"99 216 OFFCURVE",
"104 147 OFFCURVE",
"145 90 CURVE SMOOTH",
"196 23 OFFCURVE",
"276 -10 OFFCURVE",
"368 -14 CURVE"
);
},
{
closed = 1;
nodes = (
"537 475 OFFCURVE",
"476 486 OFFCURVE",
"437 515 CURVE SMOOTH",
"425 524 OFFCURVE",
"416 535 OFFCURVE",
"409 546 CURVE",
"428 549 OFFCURVE",
"453 553 OFFCURVE",
"490 550 CURVE",
"515 549 OFFCURVE",
"562 535 OFFCURVE",
"552 502 CURVE"
);
},
{
closed = 1;
nodes = (
"526 678 OFFCURVE",
"454 699 OFFCURVE",
"401 748 CURVE",
"412 776 OFFCURVE",
"426 801 OFFCURVE",
"441 822 CURVE",
"485 879 OFFCURVE",
"560 932 OFFCURVE",
"633 943 CURVE SMOOTH",
"693 951 OFFCURVE",
"758 945 OFFCURVE",
"788 914 CURVE",
"825 880 OFFCURVE",
"822 814 OFFCURVE",
"794 774 CURVE",
"746 714 OFFCURVE",
"691 680 OFFCURVE",
"594 678 CURVE SMOOTH"
);
},
{
closed = 1;
nodes = (
"831 1029 OFFCURVE",
"851 1030 OFFCURVE",
"871 1032 CURVE",
"876 1032 OFFCURVE",
"880 1037 OFFCURVE",
"880 1042 CURVE",
"879 1047 OFFCURVE",
"875 1050 OFFCURVE",
"870 1050 CURVE",
"737 1039 OFFCURVE",
"571 1063 OFFCURVE",
"522 1210 CURVE SMOOTH",
"514 1237 OFFCURVE",
"514 1257 OFFCURVE",
"514 1257 CURVE",
"514 1262 OFFCURVE",
"510 1266 OFFCURVE",
"505 1266 CURVE SMOOTH",
"500 1266 OFFCURVE",
"496 1262 OFFCURVE",
"496 1257 CURVE SMOOTH",
"496 1256 OFFCURVE",
"496 1235 OFFCURVE",
"505 1206 CURVE SMOOTH",
"543 1077 OFFCURVE",
"681 1029 OFFCURVE",
"811 1029 CURVE SMOOTH"
);
}
);
width = 847;
},
{
components = (
{
name = E;
},
{
name = grave;
transform = "{1, 0, 0, 1, 447, 406}";
}
);
layerId = "AF956123-A183-4F86-8774-5A4F8E572774";
width = 979;
}
);
unicode = 00C8;
},
{
glyphname = F;
lastChange = "2019-02-06 22:49:43 +0000";
layers = (
{
layerId = master01;
paths = (
{
closed = 1;
nodes = (
"123 -44 OFFCURVE",
"166 -32 OFFCURVE",
"205 -10 CURVE SMOOTH",
"255 20 OFFCURVE",
"303 69 OFFCURVE",
"357 134 CURVE SMOOTH",
"411 199 OFFCURVE",
"470 281 OFFCURVE",
"540 375 CURVE SMOOTH",
"547 385 OFFCURVE",
"555 395 OFFCURVE",
"562 406 CURVE",
"575 422 OFFCURVE",
"587 439 OFFCURVE",
"596 450 CURVE",
"610 448 OFFCURVE",
"625 447 OFFCURVE",
"640 447 CURVE SMOOTH",
"676 447 OFFCURVE",
"716 455 OFFCURVE",
"758 478 CURVE",
"763 480 OFFCURVE",
"764 485 OFFCURVE",
"762 490 CURVE",
"760 494 OFFCURVE",
"754 496 OFFCURVE",
"750 493 CURVE",
"710 472 OFFCURVE",
"674 465 OFFCURVE",
"640 465 CURVE SMOOTH",
"629 465 OFFCURVE",
"619 465 OFFCURVE",
"608 467 CURVE",
"685 568 OFFCURVE",
"766 669 OFFCURVE",
"853 751 CURVE SMOOTH",
"864 761 OFFCURVE",
"875 771 OFFCURVE",
"887 781 CURVE",
"1036 743 OFFCURVE",
"1105 743 OFFCURVE",
"1184 743 CURVE",
"1263 747 OFFCURVE",
"1309 769 OFFCURVE",
"1336 791 CURVE",
"1388 837 OFFCURVE",
"1383 889 OFFCURVE",
"1357 913 CURVE",
"1327 944 OFFCURVE",
"1270 948 OFFCURVE",
"1226 948 CURVE SMOOTH",
"1155 948 OFFCURVE",
"1087 929 OFFCURVE",
"1023 897 CURVE SMOOTH",
"974 872 OFFCURVE",
"927 839 OFFCURVE",
"882 800 CURVE",
"815 817 OFFCURVE",
"737 841 OFFCURVE",
"645 875 CURVE SMOOTH",
"592 894 OFFCURVE",
"542 902 OFFCURVE",
"498 902 CURVE SMOOTH",
"400 902 OFFCURVE",
"303 863 OFFCURVE",
"238 798 CURVE SMOOTH",
"235 795 OFFCURVE",
"235 789 OFFCURVE",
"239 786 CURVE",
"242 782 OFFCURVE",
"248 783 OFFCURVE",
"252 786 CURVE",
"314 848 OFFCURVE",
"413 884 OFFCURVE",
"498 884 CURVE SMOOTH",
"540 884 OFFCURVE",
"587 877 OFFCURVE",
"639 858 CURVE SMOOTH",
"726 826 OFFCURVE",
"801 803 OFFCURVE",
"865 786 CURVE",
"828 753 OFFCURVE",
"792 716 OFFCURVE",
"757 678 CURVE SMOOTH",
"698 612 OFFCURVE",
"642 541 OFFCURVE",
"588 470 CURVE",
"576 472 OFFCURVE",
"565 475 OFFCURVE",
"553 479 CURVE",
"526 486 OFFCURVE",
"500 496 OFFCURVE",
"474 501 CURVE SMOOTH",
"455 505 OFFCURVE",
"428 510 OFFCURVE",
"400 510 CURVE SMOOTH",
"355 510 OFFCURVE",
"307 497 OFFCURVE",
"301 450 CURVE SMOOTH",
"293 389 OFFCURVE",
"388 380 OFFCURVE",
"427 380 CURVE SMOOTH",
"462 380 OFFCURVE",
"506 388 OFFCURVE",
"533 397 CURVE",
"525 386 LINE SMOOTH",
"473 319 OFFCURVE",
"359 157 OFFCURVE",
"292 87 CURVE SMOOTH",
"259 51 OFFCURVE",
"225 23 OFFCURVE",
"196 6 CURVE SMOOTH",
"155 -18 OFFCURVE",
"117 -25 OFFCURVE",
"80 -20 CURVE",
"25 -15 OFFCURVE",
"-11 18 OFFCURVE",
"-11 75 CURVE SMOOTH",
"-11 87 OFFCURVE",
"-9 100 OFFCURVE",
"-6 114 CURVE SMOOTH",
"-5 119 OFFCURVE",
"-8 124 OFFCURVE",
"-13 125 CURVE SMOOTH",
"-18 126 OFFCURVE",
"-22 123 OFFCURVE",
"-24 118 CURVE",
"-27 103 OFFCURVE",
"-29 88 OFFCURVE",
"-29 75 CURVE SMOOTH",
"-29 44 OFFCURVE",
"-20 18 OFFCURVE",
"-2 -2 CURVE SMOOTH",
"17 -22 OFFCURVE",
"44 -34 OFFCURVE",
"78 -38 CURVE SMOOTH"
);
},
{
closed = 1;
nodes = (
"399 397 OFFCURVE",
"315 404 OFFCURVE",
"319 446 CURVE SMOOTH",
"323 485 OFFCURVE",
"371 492 OFFCURVE",
"400 492 CURVE SMOOTH",
"426 492 OFFCURVE",
"452 487 OFFCURVE",
"470 483 CURVE SMOOTH",
"494 478 OFFCURVE",
"520 469 OFFCURVE",
"548 461 CURVE",
"557 459 OFFCURVE",
"567 456 OFFCURVE",
"576 454 CURVE",
"568 443 OFFCURVE",
"560 432 OFFCURVE",
"551 421 CURVE",
"534 413 OFFCURVE",
"467 398 OFFCURVE",
"427 398 CURVE"
);
},
{
closed = 1;
nodes = (
"1108 761 OFFCURVE",
"1045 761 OFFCURVE",
"904 795 CURVE",
"945 829 OFFCURVE",
"988 858 OFFCURVE",
"1032 881 CURVE SMOOTH",
"1094 912 OFFCURVE",
"1158 930 OFFCURVE",
"1226 930 CURVE SMOOTH",
"1265 929 OFFCURVE",
"1317 927 OFFCURVE",
"1344 899 CURVE SMOOTH",
"1377 866 OFFCURVE",
"1342 813 OFFCURVE",
"1313 797 CURVE",
"1289 780 OFFCURVE",
"1249 764 OFFCURVE",
"1183 761 CURVE"
);
}
);
width = 833;
},
{
layerId = "AF956123-A183-4F86-8774-5A4F8E572774";
paths = (
{
closed = 1;
nodes = (
"249 -51 OFFCURVE",
"325 17 OFFCURVE",
"407 143 CURVE SMOOTH",
"435 186 OFFCURVE",
"468 241 OFFCURVE",
"510 317 CURVE SMOOTH",
"553 394 LINE SMOOTH",
"580 442 OFFCURVE",
"700 653 OFFCURVE",
"792 758 CURVE SMOOTH",
"831 801 OFFCURVE",
"897 856 OFFCURVE",
"944 883 CURVE SMOOTH",
"999 914 OFFCURVE",
"1058 930 OFFCURVE",
"1122 930 CURVE SMOOTH",
"1152 929 OFFCURVE",
"1165 928 OFFCURVE",
"1179 925 CURVE",
"1275 910 OFFCURVE",
"1318 829 OFFCURVE",
"1261 794 CURVE",
"1236 773 OFFCURVE",
"1197 762 OFFCURVE",
"1144 762 CURVE SMOOTH",
"979 762 OFFCURVE",
"806 797 OFFCURVE",
"583 876 CURVE SMOOTH",
"530 894 OFFCURVE",
"482 902 OFFCURVE",
"427 902 CURVE SMOOTH",
"333 902 OFFCURVE",
"242 872 OFFCURVE",
"175 819 CURVE SMOOTH",
"148 797 OFFCURVE",
"143 764 OFFCURVE",
"163 744 CURVE SMOOTH",
"184 723 OFFCURVE",
"213 723 OFFCURVE",
"235 741 CURVE SMOOTH",
"285 781 OFFCURVE",
"353 804 OFFCURVE",
"427 804 CURVE SMOOTH",
"474 804 OFFCURVE",
"507 798 OFFCURVE",
"551 783 CURVE SMOOTH",
"784 701 OFFCURVE",
"971 664 OFFCURVE",
"1144 664 CURVE SMOOTH",
"1214 664 OFFCURVE",
"1275 681 OFFCURVE",
"1318 714 CURVE",
"1426 786 OFFCURVE",
"1408 987 OFFCURVE",
"1195 1022 CURVE SMOOTH",
"1171 1026 OFFCURVE",
"1149 1027 OFFCURVE",
"1124 1028 CURVE",
"1042 1028 OFFCURVE",
"964 1007 OFFCURVE",
"895 968 CURVE SMOOTH",
"819 924 OFFCURVE",
"744 851 OFFCURVE",
"719 823 CURVE SMOOTH",
"613 702 OFFCURVE",
"476 457 OFFCURVE",
"463 433 CURVE",
"454 420 OFFCURVE",
"426 368 OFFCURVE",
"424 364 CURVE",
"388 299 OFFCURVE",
"355 242 OFFCURVE",
"325 196 CURVE SMOOTH",
"254 87 OFFCURVE",
"207 53 OFFCURVE",
"158 59 CURVE SMOOTH",
"104 65 OFFCURVE",
"84 83 OFFCURVE",
"76 127 CURVE",
"75 135 OFFCURVE",
"73 143 OFFCURVE",
"73 154 CURVE SMOOTH",
"73 178 OFFCURVE",
"40 191 OFFCURVE",
"22 191 CURVE SMOOTH",
"-2 191 OFFCURVE",
"-27 172 OFFCURVE",
"-25 145 CURVE SMOOTH",
"-24 131 OFFCURVE",
"-22 121 OFFCURVE",
"-21 112 CURVE",
"-5 20 OFFCURVE",
"52 -28 OFFCURVE",
"147 -38 CURVE",
"146 -38 LINE"
);
},
{
closed = 1;
nodes = (
"387 284 OFFCURVE",
"479 305 OFFCURVE",
"515 327 CURVE",
"464 411 LINE",
"444 399 OFFCURVE",
"370 382 OFFCURVE",
"333 382 CURVE SMOOTH",
"244 382 OFFCURVE",
"184 418 OFFCURVE",
"181 463 CURVE SMOOTH",
"180 480 OFFCURVE",
"192 492 OFFCURVE",
"248 492 CURVE SMOOTH",
"282 492 OFFCURVE",
"317 485 OFFCURVE",
"366 468 CURVE SMOOTH",
"422 449 OFFCURVE",
"477 427 OFFCURVE",
"567 427 CURVE SMOOTH",
"649 427 OFFCURVE",
"714 444 OFFCURVE",
"779 483 CURVE SMOOTH",
"807 500 OFFCURVE",
"817 530 OFFCURVE",
"802 553 CURVE SMOOTH",
"787 577 OFFCURVE",
"755 583 OFFCURVE",
"728 567 CURVE SMOOTH",
"676 536 OFFCURVE",
"630 525 OFFCURVE",
"567 525 CURVE SMOOTH",
"496 525 OFFCURVE",
"456 541 OFFCURVE",
"398 561 CURVE SMOOTH",
"360 574 OFFCURVE",
"307 590 OFFCURVE",
"248 590 CURVE SMOOTH",
"152 590 OFFCURVE",
"78 548 OFFCURVE",
"83 458 CURVE SMOOTH",
"89 342 OFFCURVE",
"212 284 OFFCURVE",
"333 284 CURVE SMOOTH"
);
}
);
width = 849;
},
{
associatedMasterId = "AF956123-A183-4F86-8774-5A4F8E572774";
layerId = "4382DF3E-B744-4B0F-A87B-84119175184F";
name = "Dec 22 18, 16:38";
paths = (
{
closed = 0;
nodes = (
"-24 118 LINE",
"-27 103 OFFCURVE",
"-29 88 OFFCURVE",
"-29 75 CURVE SMOOTH",
"-29 12 OFFCURVE",
"7 -30 OFFCURVE",
"78 -38 CURVE SMOOTH",
"186 -52 OFFCURVE",
"271 31 OFFCURVE",
"357 134 CURVE SMOOTH",
"411 199 OFFCURVE",
"470 281 OFFCURVE",
"540 375 CURVE SMOOTH",
"549 388 OFFCURVE",
"727 632 OFFCURVE",
"853 751 CURVE SMOOTH",
"888 783 OFFCURVE",
"961 843 OFFCURVE",
"1032 881 CURVE SMOOTH",
"1094 912 OFFCURVE",
"1158 930 OFFCURVE",
"1226 930 CURVE SMOOTH",
"1265 929 OFFCURVE",
"1317 927 OFFCURVE",
"1344 899 CURVE SMOOTH",
"1377 866 OFFCURVE",
"1342 813 OFFCURVE",
"1313 797 CURVE",
"1289 780 OFFCURVE",
"1249 762 OFFCURVE",
"1183 762 CURVE SMOOTH",
"1005 762 OFFCURVE",
"837 803 OFFCURVE",
"645 875 CURVE SMOOTH",
"592 894 OFFCURVE",
"542 902 OFFCURVE",
"498 902 CURVE SMOOTH",
"400 902 OFFCURVE",
"303 863 OFFCURVE",
"238 798 CURVE SMOOTH"
);
}
);
width = 600;
},
{
associatedMasterId = "AF956123-A183-4F86-8774-5A4F8E572774";
layerId = "F79013E3-B673-4133-A046-C4842A33B4CF";
name = "Feb 7 19, 00:44";
paths = (
{
closed = 1;
nodes = (
"239 -52 OFFCURVE",
"325 32 OFFCURVE",
"410 134 CURVE SMOOTH",
"442 173 OFFCURVE",
"495 242 OFFCURVE",
"542 306 CURVE SMOOTH",
"593 375 LINE SMOOTH",
"603 389 OFFCURVE",
"780 632 OFFCURVE",
"906 751 CURVE SMOOTH",
"936 779 OFFCURVE",
"1013 843 OFFCURVE",
"1085 881 CURVE SMOOTH",
"1147 912 OFFCURVE",
"1209 930 OFFCURVE",
"1279 930 CURVE SMOOTH",
"1317 930 OFFCURVE",
"1370 927 OFFCURVE",
"1397 899 CURVE SMOOTH",
"1430 866 OFFCURVE",
"1395 813 OFFCURVE",
"1366 797 CURVE",
"1342 780 OFFCURVE",
"1302 762 OFFCURVE",
"1236 762 CURVE SMOOTH",
"1060 762 OFFCURVE",
"890 803 OFFCURVE",
"698 875 CURVE SMOOTH",
"645 894 OFFCURVE",
"597 902 OFFCURVE",
"543 902 CURVE SMOOTH",
"448 902 OFFCURVE",
"354 872 OFFCURVE",
"280 819 CURVE SMOOTH",
"252 798 OFFCURVE",
"248 764 OFFCURVE",
"268 744 CURVE SMOOTH",
"289 723 OFFCURVE",
"317 724 OFFCURVE",
"340 741 CURVE SMOOTH",
"396 781 OFFCURVE",
"469 804 OFFCURVE",
"543 804 CURVE SMOOTH",
"590 804 OFFCURVE",
"622 798 OFFCURVE",
"664 783 CURVE SMOOTH",
"882 701 OFFCURVE",
"1063 664 OFFCURVE",
"1236 664 CURVE SMOOTH",
"1306 664 OFFCURVE",
"1370 681 OFFCURVE",
"1418 714 CURVE",
"1539 786 OFFCURVE",
"1557 987 OFFCURVE",
"1350 1022 CURVE SMOOTH",
"1327 1026 OFFCURVE",
"1305 1027 OFFCURVE",
"1280 1028 CURVE",
"1198 1028 OFFCURVE",
"1116 1007 OFFCURVE",
"1040 968 CURVE SMOOTH",
"957 924 OFFCURVE",
"869 851 OFFCURVE",
"839 823 CURVE SMOOTH",
"711 702 OFFCURVE",
"531 457 OFFCURVE",
"514 433 CURVE",
"495 409 OFFCURVE",
"483 391 OFFCURVE",
"463 364 CURVE SMOOTH",
"415 299 OFFCURVE",
"372 242 OFFCURVE",
"334 196 CURVE SMOOTH",
"244 87 OFFCURVE",
"191 53 OFFCURVE",
"143 59 CURVE SMOOTH",
"90 65 OFFCURVE",
"73 83 OFFCURVE",
"73 127 CURVE SMOOTH",
"73 135 OFFCURVE",
"74 143 OFFCURVE",
"75 154 CURVE",
"78 170 OFFCURVE",
"60 185 OFFCURVE",
"32 191 CURVE SMOOTH",
"4 197 OFFCURVE",
"-22 175 OFFCURVE",
"-25 141 CURVE",
"-25 127 LINE SMOOTH",
"-25 36 OFFCURVE",
"27 -26 OFFCURVE",
"131 -38 CURVE SMOOTH"
);
},
{
closed = 1;
nodes = (
"422 284 OFFCURVE",
"517 305 OFFCURVE",
"557 327 CURVE",
"510 413 LINE",
"490 402 OFFCURVE",
"414 382 OFFCURVE",
"368 382 CURVE SMOOTH",
"340 382 OFFCURVE",
"238 390 OFFCURVE",
"245 446 CURVE SMOOTH",
"250 485 OFFCURVE",
"302 492 OFFCURVE",
"337 492 CURVE SMOOTH",
"380 492 OFFCURVE",
"414 481 OFFCURVE",
"449 469 CURVE SMOOTH",
"500 451 OFFCURVE",
"554 427 OFFCURVE",
"644 427 CURVE SMOOTH",
"739 427 OFFCURVE",
"808 452 OFFCURVE",
"863 483 CURVE",
"892 498 OFFCURVE",
"901 530 OFFCURVE",
"886 553 CURVE SMOOTH",
"871 577 OFFCURVE",
"841 582 OFFCURVE",
"813 567 CURVE SMOOTH",
"756 536 OFFCURVE",
"707 525 OFFCURVE",
"644 525 CURVE SMOOTH",
"573 525 OFFCURVE",
"536 541 OFFCURVE",
"482 561 CURVE SMOOTH",
"446 574 OFFCURVE",
"396 590 OFFCURVE",
"337 590 CURVE SMOOTH",
"241 590 OFFCURVE",
"159 548 OFFCURVE",
"148 458 CURVE SMOOTH",
"134 342 OFFCURVE",
"247 284 OFFCURVE",
"368 284 CURVE SMOOTH"
);
}
);
width = 974;
}
);
unicode = 0046;
},
{
glyphname = G;
lastChange = "2019-02-07 00:33:45 +0000";
layers = (
{
layerId = master01;
paths = (
{
closed = 1;
nodes = (
"480 -460 OFFCURVE",
"554 -414 OFFCURVE",
"613 -350 CURVE SMOOTH",
"667 -290 OFFCURVE",
"708 -216 OFFCURVE",
"742 -151 CURVE SMOOTH",
"755 -127 OFFCURVE",
"766 -103 OFFCURVE",
"777 -80 CURVE",
"841 -74 OFFCURVE",
"914 -71 OFFCURVE",
"997 -74 CURVE",
"1003 -74 OFFCURVE",
"1008 -70 OFFCURVE",
"1008 -64 CURVE SMOOTH",
"1008 -59 OFFCURVE",
"1004 -54 OFFCURVE",
"998 -54 CURVE",
"925 -51 OFFCURVE",
"854 -53 OFFCURVE",
"787 -59 CURVE",
"824 24 OFFCURVE",
"850 102 OFFCURVE",
"873 173 CURVE SMOOTH",
"883 202 OFFCURVE",
"893 231 OFFCURVE",
"902 258 CURVE",
"884 265 LINE",
"828 132 OFFCURVE",
"743 60 OFFCURVE",
"682 24 CURVE SMOOTH",
"627 -8 OFFCURVE",
"564 -30 OFFCURVE",
"495 -30 CURVE SMOOTH",
"494 -30 OFFCURVE",
"494 -30 OFFCURVE",
"493 -30 CURVE SMOOTH",
"458 -30 OFFCURVE",
"408 -24 OFFCURVE",
"367 4 CURVE SMOOTH",
"324 34 OFFCURVE",
"297 81 OFFCURVE",
"288 146 CURVE SMOOTH",
"279 215 OFFCURVE",
"296 294 OFFCURVE",
"340 382 CURVE SMOOTH",
"379 462 OFFCURVE",
"440 546 OFFCURVE",
"516 627 CURVE SMOOTH",
"574 689 OFFCURVE",
"638 746 OFFCURVE",
"703 794 CURVE",
"793 686 OFFCURVE",
"975 643 OFFCURVE",
"1101 727 CURVE",
"1163 765 OFFCURVE",
"1231 857 OFFCURVE",
"1185 936 CURVE SMOOTH",
"1149 998 OFFCURVE",
"1053 983 OFFCURVE",
"991 967 CURVE SMOOTH",
"917 948 OFFCURVE",
"832 907 OFFCURVE",
"745 849 CURVE SMOOTH",
"732 840 OFFCURVE",
"720 831 OFFCURVE",
"707 822 CURVE",
"689 846 OFFCURVE",
"664 888 OFFCURVE",
"664 929 CURVE",
"663 935 OFFCURVE",
"658 939 OFFCURVE",
"653 938 CURVE SMOOTH",
"647 937 OFFCURVE",
"643 932 OFFCURVE",
"644 927 CURVE",
"644 891 OFFCURVE",
"668 840 OFFCURVE",
"691 811 CURVE",
"624 761 OFFCURVE",
"560 703 OFFCURVE",
"502 641 CURVE SMOOTH",
"424 559 OFFCURVE",
"362 472 OFFCURVE",
"322 391 CURVE SMOOTH",
"276 299 OFFCURVE",
"258 216 OFFCURVE",
"268 144 CURVE SMOOTH",
"278 73 OFFCURVE",
"308 20 OFFCURVE",
"356 -12 CURVE SMOOTH",
"392 -37 OFFCURVE",
"440 -50 OFFCURVE",
"494 -50 CURVE",
"494 -50 OFFCURVE",
"494 -50 OFFCURVE",
"495 -50 CURVE SMOOTH",
"562 -50 OFFCURVE",
"628 -30 OFFCURVE",
"691 6 CURVE SMOOTH",
"751 41 OFFCURVE",
"802 90 OFFCURVE",
"845 151 CURVE",
"823 86 OFFCURVE",
"798 15 OFFCURVE",
"764 -61 CURVE",
"750 -63 OFFCURVE",
"737 -64 OFFCURVE",
"725 -66 CURVE SMOOTH",
"657 -75 OFFCURVE",
"593 -90 OFFCURVE",
"535 -109 CURVE SMOOTH",
"398 -154 OFFCURVE",
"272 -237 OFFCURVE",
"276 -361 CURVE SMOOTH",
"278 -428 OFFCURVE",
"331 -458 OFFCURVE",
"394 -460 CURVE SMOOTH"
);
},
{
closed = 1;
nodes = (
"311 -440 OFFCURVE",
"282 -388 OFFCURVE",
"303 -310 CURVE",
"325 -242 OFFCURVE",
"400 -193 OFFCURVE",
"401 -193 CURVE",
"402 -192 OFFCURVE",
"446 -159 OFFCURVE",
"542 -128 CURVE SMOOTH",
"592 -111 OFFCURVE",
"663 -93 OFFCURVE",
"754 -83 CURVE",
"745 -102 OFFCURVE",
"735 -122 OFFCURVE",
"724 -142 CURVE SMOOTH",
"669 -246 OFFCURVE",
"567 -440 OFFCURVE",
"394 -440 CURVE SMOOTH"
);
},
{
closed = 1;
nodes = (
"974 671 OFFCURVE",
"810 700 OFFCURVE",
"719 806 CURVE",
"815 876 OFFCURVE",
"913 927 OFFCURVE",
"995 947 CURVE SMOOTH",
"1084 970 OFFCURVE",
"1146 963 OFFCURVE",
"1168 925 CURVE SMOOTH",
"1206 860 OFFCURVE",
"1146 778 OFFCURVE",
"1090 743 CURVE SMOOTH"
);
}
);
width = 1008;
},
{
layerId = "AF956123-A183-4F86-8774-5A4F8E572774";
paths = (
{
closed = 1;
nodes = (
"723 -50 OFFCURVE",
"886 91 OFFCURVE",
"939 305 CURVE",
"844 329 LINE",
"801 156 OFFCURVE",
"676 48 OFFCURVE",
"523 48 CURVE SMOOTH",
"396 48 OFFCURVE",
"298 122 OFFCURVE",
"265 242 CURVE SMOOTH",
"195 489 OFFCURVE",
"482 854 OFFCURVE",
"831 947 CURVE SMOOTH",
"924 973 OFFCURVE",
"984 961 OFFCURVE",
"1021 916 CURVE SMOOTH",
"1064 862 OFFCURVE",
"1051 788 OFFCURVE",
"987 740 CURVE SMOOTH",
"855 639 OFFCURVE",
"560 737 OFFCURVE",
"470 909 CURVE SMOOTH",
"456 936 OFFCURVE",
"441 957 OFFCURVE",
"412 957 CURVE SMOOTH",
"385 957 OFFCURVE",
"356 923 OFFCURVE",
"372 886 CURVE SMOOTH",
"474 654 OFFCURVE",
"853 515 OFFCURVE",
"1046 662 CURVE SMOOTH",
"1149 739 OFFCURVE",
"1179 876 OFFCURVE",
"1097 978 CURVE SMOOTH",
"1028 1062 OFFCURVE",
"923 1074 OFFCURVE",
"805 1042 CURVE SMOOTH",
"408 935 OFFCURVE",
"84 522 OFFCURVE",
"171 216 CURVE SMOOTH",
"216 53 OFFCURVE",
"353 -50 OFFCURVE",
"523 -50 CURVE SMOOTH"
);
},
{
closed = 1;
nodes = (
"747 -461 OFFCURVE",
"860 -7 OFFCURVE",
"866 15 CURVE SMOOTH",
"878 56 OFFCURVE",
"921 198 OFFCURVE",
"941 311 CURVE",
"844 328 LINE",
"825 220 OFFCURVE",
"783 82 OFFCURVE",
"772 42 CURVE SMOOTH",
"706 -198 OFFCURVE",
"588 -363 OFFCURVE",
"455 -363 CURVE SMOOTH",
"376 -363 OFFCURVE",
"309 -302 OFFCURVE",
"328 -260 CURVE SMOOTH",
"349 -211 OFFCURVE",
"498 -184 OFFCURVE",
"933 -191 CURVE SMOOTH",
"968 -192 OFFCURVE",
"993 -172 OFFCURVE",
"994 -143 CURVE SMOOTH",
"995 -114 OFFCURVE",
"970 -94 OFFCURVE",
"937 -93 CURVE SMOOTH",
"547 -87 OFFCURVE",
"294 -94 OFFCURVE",
"238 -220 CURVE SMOOTH",
"186 -338 OFFCURVE",
"311 -461 OFFCURVE",
"455 -461 CURVE SMOOTH"
);
}
);
width = 1311;
},
{
associatedMasterId = "AF956123-A183-4F86-8774-5A4F8E572774";
layerId = "04E5E79B-3B6D-4521-B215-F575FDA21AB1";
name = "Feb 7 19, 00:48";
paths = (
{
closed = 1;
nodes = (
"696 -50 OFFCURVE",
"884 91 OFFCURVE",
"974 305 CURVE",
"884 343 LINE",
"811 170 OFFCURVE",
"660 48 OFFCURVE",
"496 48 CURVE SMOOTH",
"379 48 OFFCURVE",
"300 110 OFFCURVE",
"288 226 CURVE SMOOTH",
"256 528 OFFCURVE",
"706 873 OFFCURVE",
"994 947 CURVE SMOOTH",
"1084 970 OFFCURVE",
"1143 964 OFFCURVE",
"1168 925 CURVE SMOOTH",
"1198 878 OFFCURVE",
"1171 797 OFFCURVE",
"1090 743 CURVE SMOOTH",
"922 631 OFFCURVE",
"653 746 OFFCURVE",
"606 908 CURVE SMOOTH",
"598 937 OFFCURVE",
"579 957 OFFCURVE",
"550 957 CURVE SMOOTH",
"523 957 OFFCURVE",
"500 925 OFFCURVE",
"510 886 CURVE SMOOTH",
"572 654 OFFCURVE",
"925 515 OFFCURVE",
"1144 662 CURVE SMOOTH",
"1261 739 OFFCURVE",
"1315 876 OFFCURVE",
"1251 978 CURVE SMOOTH",
"1197 1062 OFFCURVE",
"1094 1074 OFFCURVE",
"970 1042 CURVE SMOOTH",
"554 935 OFFCURVE",
"158 522 OFFCURVE",
"191 216 CURVE SMOOTH",
"207 53 OFFCURVE",
"326 -50 OFFCURVE",
"496 -50 CURVE SMOOTH"
);
},
{
closed = 1;
nodes = (
"647 -461 OFFCURVE",
"840 -7 OFFCURVE",
"850 15 CURVE SMOOTH",
"869 56 OFFCURVE",
"938 198 OFFCURVE",
"977 311 CURVE",
"884 343 LINE",
"849 241 OFFCURVE",
"778 89 OFFCURVE",
"761 56 CURVE SMOOTH",
"635 -188 OFFCURVE",
"495 -363 OFFCURVE",
"355 -363 CURVE SMOOTH",
"279 -363 OFFCURVE",
"237 -316 OFFCURVE",
"264 -272 CURVE SMOOTH",
"301 -211 OFFCURVE",
"445 -186 OFFCURVE",
"898 -191 CURVE SMOOTH",
"933 -192 OFFCURVE",
"958 -172 OFFCURVE",
"959 -143 CURVE SMOOTH",
"960 -114 OFFCURVE",
"935 -94 OFFCURVE",
"902 -93 CURVE SMOOTH",
"513 -87 OFFCURVE",
"259 -94 OFFCURVE",
"181 -220 CURVE SMOOTH",
"108 -338 OFFCURVE",
"211 -461 OFFCURVE",
"355 -461 CURVE SMOOTH"
);
}
);
width = 1445;
}
);
unicode = 0047;
},
{
glyphname = H;
lastChange = "2019-02-07 00:33:45 +0000";
layers = (
{
layerId = master01;
paths = (
{
closed = 1;
nodes = (
"186 -207 OFFCURVE",
"211 -178 OFFCURVE",
"235 -143 CURVE SMOOTH",
"270 -91 OFFCURVE",
"299 -28 OFFCURVE",
"320 22 CURVE SMOOTH",
"341 73 OFFCURVE",
"354 110 OFFCURVE",
"354 110 CURVE",
"383 199 OFFCURVE",
"410 286 OFFCURVE",
"437 371 CURVE",
"500 400 OFFCURVE",
"565 427 OFFCURVE",
"630 450 CURVE SMOOTH",
"694 473 OFFCURVE",
"753 497 OFFCURVE",
"806 523 CURVE",
"772 460 OFFCURVE",
"739 392 OFFCURVE",
"713 325 CURVE SMOOTH",
"681 243 OFFCURVE",
"659 161 OFFCURVE",
"659 90 CURVE SMOOTH",
"659 49 OFFCURVE",
"666 12 OFFCURVE",
"682 -21 CURVE SMOOTH",
"700 -57 OFFCURVE",
"722 -85 OFFCURVE",
"749 -105 CURVE SMOOTH",
"776 -126 OFFCURVE",
"808 -139 OFFCURVE",
"849 -151 CURVE",
"854 -152 OFFCURVE",
"859 -149 OFFCURVE",
"860 -144 CURVE",
"861 -140 OFFCURVE",
"859 -135 OFFCURVE",
"854 -133 CURVE",
"814 -122 OFFCURVE",
"784 -109 OFFCURVE",
"759 -91 CURVE",
"735 -72 OFFCURVE",
"716 -48 OFFCURVE",
"698 -13 CURVE",
"684 17 OFFCURVE",
"677 51 OFFCURVE",
"677 90 CURVE SMOOTH",
"677 158 OFFCURVE",
"698 238 OFFCURVE",
"729 319 CURVE SMOOTH",
"758 393 OFFCURVE",
"796 468 OFFCURVE",
"835 536 CURVE",
"1080 657 OFFCURVE",
"1207 787 OFFCURVE",
"1212 792 CURVE SMOOTH",
"1239 819 OFFCURVE",
"1262 854 OFFCURVE",
"1264 895 CURVE",
"1264 936 OFFCURVE",
"1232 970 OFFCURVE",
"1188 970 CURVE SMOOTH",
"1165 970 OFFCURVE",
"1143 961 OFFCURVE",
"1121 947 CURVE SMOOTH",
"1089 926 OFFCURVE",
"1059 896 OFFCURVE",
"1037 871 CURVE SMOOTH",
"1016 847 OFFCURVE",
"1002 828 OFFCURVE",
"1000 826 CURVE",
"1002 829 OFFCURVE",
"900 690 OFFCURVE",
"822 550 CURVE",
"763 521 OFFCURVE",
"697 493 OFFCURVE",
"624 467 CURVE SMOOTH",
"564 445 OFFCURVE",
"503 421 OFFCURVE",
"444 394 CURVE",
"484 519 OFFCURVE",
"522 637 OFFCURVE",
"562 739 CURVE SMOOTH",
"597 827 OFFCURVE",
"633 903 OFFCURVE",
"674 962 CURVE SMOOTH",
"678 968 OFFCURVE",
"682 973 OFFCURVE",
"686 979 CURVE",
"703 975 OFFCURVE",
"720 973 OFFCURVE",
"735 973 CURVE SMOOTH",
"791 973 OFFCURVE",
"829 996 OFFCURVE",
"834 999 CURVE SMOOTH",
"851 1010 OFFCURVE",
"866 1020 OFFCURVE",
"877 1036 CURVE SMOOTH",
"890 1056 OFFCURVE",
"889 1084 OFFCURVE",
"866 1099 CURVE SMOOTH",
"849 1110 OFFCURVE",
"820 1104 OFFCURVE",
"801 1097 CURVE SMOOTH",
"755 1080 OFFCURVE",
"715 1046 OFFCURVE",
"679 999 CURVE",
"669 1002 OFFCURVE",
"660 1006 OFFCURVE",
"649 1011 CURVE SMOOTH",
"618 1025 OFFCURVE",
"584 1050 OFFCURVE",
"549 1090 CURVE",
"546 1094 OFFCURVE",
"540 1094 OFFCURVE",
"537 1091 CURVE",
"533 1088 OFFCURVE",
"532 1082 OFFCURVE",
"536 1078 CURVE",
"572 1037 OFFCURVE",
"608 1010 OFFCURVE",
"642 994 CURVE SMOOTH",
"650 990 OFFCURVE",
"659 987 OFFCURVE",
"667 984 CURVE",
"664 980 OFFCURVE",
"662 976 OFFCURVE",
"659 972 CURVE",
"596 881 OFFCURVE",
"544 753 OFFCURVE",
"494 604 CURVE SMOOTH",
"470 535 OFFCURVE",
"446 460 OFFCURVE",
"422 384 CURVE",
"281 316 OFFCURVE",
"153 230 OFFCURVE",
"67 116 CURVE SMOOTH",
"8 37 OFFCURVE",
"-17 -35 OFFCURVE",
"-17 -94 CURVE SMOOTH",
"-17 -134 OFFCURVE",
"-5 -169 OFFCURVE",
"15 -194 CURVE SMOOTH",
"48 -236 OFFCURVE",
"108 -256 OFFCURVE",
"158 -225 CURVE SMOOTH"
);
},
{
closed = 1;
nodes = (
"107 -234 OFFCURVE",
"60 -219 OFFCURVE",
"29 -183 CURVE SMOOTH",
"11 -161 OFFCURVE",
"1 -131 OFFCURVE",
"1 -94 CURVE SMOOTH",
"1 -40 OFFCURVE",
"24 29 OFFCURVE",
"82 105 CURVE SMOOTH",
"161 211 OFFCURVE",
"281 294 OFFCURVE",
"415 360 CURVE",
"390 281 OFFCURVE",
"364 199 OFFCURVE",
"337 116 CURVE SMOOTH",
"323 75 OFFCURVE",
"279 -29 OFFCURVE",
"256 -72 CURVE SMOOTH",
"235 -111 OFFCURVE",
"210 -150 OFFCURVE",
"185 -178 CURVE SMOOTH",
"172 -192 OFFCURVE",
"159 -204 OFFCURVE",
"146 -211 CURVE"
);
},
{
closed = 1;
nodes = (
"870 598 OFFCURVE",
"890 629 OFFCURVE",
"908 658 CURVE SMOOTH",
"938 705 OFFCURVE",
"964 744 OFFCURVE",
"984 772 CURVE",
"1008 811 OFFCURVE",
"1044 855 OFFCURVE",
"1081 891 CURVE SMOOTH",
"1109 918 OFFCURVE",
"1145 950 OFFCURVE",
"1188 952 CURVE",
"1218 952 OFFCURVE",
"1245 926 OFFCURVE",
"1246 895 CURVE SMOOTH",
"1246 860 OFFCURVE",
"1222 829 OFFCURVE",
"1198 804 CURVE",
"1190 795 OFFCURVE",
"1073 678 OFFCURVE",
"851 564 CURVE"
);
},
{
closed = 1;
nodes = (
"723 991 OFFCURVE",
"711 992 OFFCURVE",
"698 994 CURVE",
"728 1030 OFFCURVE",
"762 1061 OFFCURVE",
"808 1081 CURVE SMOOTH",
"823 1087 OFFCURVE",
"842 1091 OFFCURVE",
"857 1083 CURVE SMOOTH",
"865 1079 OFFCURVE",
"873 1062 OFFCURVE",
"862 1046 CURVE SMOOTH",
"851 1030 OFFCURVE",
"839 1023 OFFCURVE",
"824 1014 CURVE",
"824 1014 OFFCURVE",
"788 991 OFFCURVE",
"735 991 CURVE SMOOTH"
);
}
);
width = 924;
},
{
layerId = "AF956123-A183-4F86-8774-5A4F8E572774";
paths = (
{
closed = 1;
nodes = (
"245 -181 OFFCURVE",
"287 -67 OFFCURVE",
"303 22 CURVE SMOOTH",
"318 107 OFFCURVE",
"333 209 OFFCURVE",
"349 310 CURVE",
"351 328 OFFCURVE",
"354 347 OFFCURVE",
"357 365 CURVE SMOOTH",
"379 513 OFFCURVE",
"400 655 OFFCURVE",
"418 739 CURVE SMOOTH",
"438 827 OFFCURVE",
"460 903 OFFCURVE",
"491 962 CURVE",
"506 994 OFFCURVE",
"543 1052 OFFCURVE",
"604 1081 CURVE",
"618 1087 OFFCURVE",
"636 1091 OFFCURVE",
"652 1083 CURVE",
"661 1079 OFFCURVE",
"672 1062 OFFCURVE",
"664 1046 CURVE SMOOTH",
"651 1022 OFFCURVE",
"609 991 OFFCURVE",
"547 991 CURVE SMOOTH",
"488 991 OFFCURVE",
"393 1018 OFFCURVE",
"302 1088 CURVE SMOOTH",
"274 1110 OFFCURVE",
"245 1117 OFFCURVE",
"224 1098 CURVE SMOOTH",
"202 1078 OFFCURVE",
"203 1042 OFFCURVE",
"233 1018 CURVE SMOOTH",
"330 941 OFFCURVE",
"451 893 OFFCURVE",
"547 893 CURVE SMOOTH",
"630 893 OFFCURVE",
"715 932 OFFCURVE",
"751 1001 CURVE SMOOTH",
"783 1063 OFFCURVE",
"756 1142 OFFCURVE",
"694 1171 CURVE SMOOTH",
"652 1192 OFFCURVE",
"606 1189 OFFCURVE",
"564 1170 CURVE SMOOTH",
"497 1139 OFFCURVE",
"437 1077 OFFCURVE",
"403 1006 CURVE SMOOTH",
"373 947 OFFCURVE",
"347 868 OFFCURVE",
"322 760 CURVE SMOOTH",
"304 673 OFFCURVE",
"282 528 OFFCURVE",
"260 379 CURVE SMOOTH",
"257 361 OFFCURVE",
"255 343 OFFCURVE",
"252 324 CURVE",
"230 180 OFFCURVE",
"220 117 OFFCURVE",
"207 39 CURVE",
"191 -44 OFFCURVE",
"156 -145 OFFCURVE",
"128 -145 CURVE",
"111 -145 OFFCURVE",
"87 -108 OFFCURVE",
"83 -77 CURVE SMOOTH",
"76 -36 OFFCURVE",
"87 13 OFFCURVE",
"118 67 CURVE SMOOTH",
"168 153 OFFCURVE",
"254 227 OFFCURVE",
"386 297 CURVE SMOOTH",
"434 321 OFFCURVE",
"501 343 OFFCURVE",
"574 368 CURVE SMOOTH",
"657 396 OFFCURVE",
"749 427 OFFCURVE",
"818 464 CURVE SMOOTH",
"1036 581 OFFCURVE",
"1177 739 OFFCURVE",
"1177 740 CURVE",
"1221 794 OFFCURVE",
"1242 852 OFFCURVE",
"1231 913 CURVE SMOOTH",
"1217 990 OFFCURVE",
"1143 1051 OFFCURVE",
"1064 1050 CURVE SMOOTH",
"997 1047 OFFCURVE",
"948 1014 OFFCURVE",
"896 956 CURVE SMOOTH",
"834 884 OFFCURVE",
"786 780 OFFCURVE",
"749 699 CURVE SMOOTH",
"675 535 OFFCURVE",
"592 351 OFFCURVE",
"628 146 CURVE SMOOTH",
"651 17 OFFCURVE",
"726 -78 OFFCURVE",
"845 -130 CURVE SMOOTH",
"880 -145 OFFCURVE",
"914 -133 OFFCURVE",
"922 -106 CURVE SMOOTH",
"930 -79 OFFCURVE",
"913 -53 OFFCURVE",
"882 -39 CURVE SMOOTH",
"792 1 OFFCURVE",
"741 70 OFFCURVE",
"725 163 CURVE SMOOTH",
"694 338 OFFCURVE",
"764 495 OFFCURVE",
"838 658 CURVE SMOOTH",
"875 739 OFFCURVE",
"917 830 OFFCURVE",
"970 891 CURVE SMOOTH",
"994 918 OFFCURVE",
"1024 950 OFFCURVE",
"1067 952 CURVE",
"1097 952 OFFCURVE",
"1129 926 OFFCURVE",
"1135 895 CURVE SMOOTH",
"1141 860 OFFCURVE",
"1123 829 OFFCURVE",
"1103 804 CURVE",
"1095 795 OFFCURVE",
"968 656 OFFCURVE",
"771 550 CURVE SMOOTH",
"710 517 OFFCURVE",
"626 489 OFFCURVE",
"543 461 CURVE SMOOTH",
"469 436 OFFCURVE",
"395 411 OFFCURVE",
"341 384 CURVE SMOOTH",
"212 316 OFFCURVE",
"99 230 OFFCURVE",
"33 116 CURVE SMOOTH",
"-12 37 OFFCURVE",
"-24 -35 OFFCURVE",
"-14 -94 CURVE SMOOTH",
"-7 -134 OFFCURVE",
"11 -169 OFFCURVE",
"36 -194 CURVE SMOOTH",
"76 -236 OFFCURVE",
"140 -256 OFFCURVE",
"184 -225 CURVE SMOOTH"
);
}
);
width = 877;
},
{
associatedMasterId = "AF956123-A183-4F86-8774-5A4F8E572774";
layerId = "F74A1CD1-3212-4CFB-BED8-A625F6879860";
name = "Dec 23 18, 22:04";
paths = (
{
closed = 0;
nodes = (
"854 -133 LINE",
"731 -98 OFFCURVE",
"677 -21 OFFCURVE",
"677 90 CURVE SMOOTH",
"677 158 OFFCURVE",
"698 238 OFFCURVE",
"729 319 CURVE SMOOTH",
"776 440 OFFCURVE",
"852 568 OFFCURVE",
"908 658 CURVE SMOOTH",
"959 739 OFFCURVE",
"1018 829 OFFCURVE",
"1081 891 CURVE SMOOTH",
"1109 918 OFFCURVE",
"1145 950 OFFCURVE",
"1188 952 CURVE",
"1218 952 OFFCURVE",
"1245 926 OFFCURVE",
"1246 895 CURVE SMOOTH",
"1246 860 OFFCURVE",
"1223 829 OFFCURVE",
"1198 804 CURVE SMOOTH",
"1189 795 OFFCURVE",
"1037 657 OFFCURVE",
"822 550 CURVE SMOOTH",
"687 483 OFFCURVE",
"570 452 OFFCURVE",
"422 384 CURVE SMOOTH",
"281 316 OFFCURVE",
"153 230 OFFCURVE",
"67 116 CURVE SMOOTH",
"8 37 OFFCURVE",
"-17 -35 OFFCURVE",
"-17 -94 CURVE SMOOTH",
"-17 -134 OFFCURVE",
"-5 -169 OFFCURVE",
"15 -194 CURVE SMOOTH",
"48 -236 OFFCURVE",
"108 -256 OFFCURVE",
"158 -225 CURVE SMOOTH",
"227 -181 OFFCURVE",
"289 -67 OFFCURVE",
"320 22 CURVE SMOOTH",
"400 249 OFFCURVE",
"503 587 OFFCURVE",
"562 739 CURVE SMOOTH",
"597 827 OFFCURVE",
"633 903 OFFCURVE",
"674 962 CURVE SMOOTH",
"695 994 OFFCURVE",
"742 1052 OFFCURVE",
"808 1081 CURVE SMOOTH",
"823 1087 OFFCURVE",
"842 1091 OFFCURVE",
"857 1083 CURVE SMOOTH",
"865 1079 OFFCURVE",
"873 1062 OFFCURVE",
"862 1046 CURVE SMOOTH",
"845 1022 OFFCURVE",
"797 991 OFFCURVE",
"735 991 CURVE SMOOTH",
"664 991 OFFCURVE",
"550 1032 OFFCURVE",
"460 1137 CURVE"
);
}
);
width = 1267;
},
{
associatedMasterId = "AF956123-A183-4F86-8774-5A4F8E572774";
layerId = "D624649B-E773-4FDC-A57E-2FBD44748667";
name = "Dec 23 18, 22:06";
paths = (
{
closed = 0;
nodes = (
"854 -133 LINE",
"731 -98 OFFCURVE",
"677 -21 OFFCURVE",
"677 90 CURVE SMOOTH",
"677 158 OFFCURVE",
"698 238 OFFCURVE",
"729 319 CURVE SMOOTH",
"776 440 OFFCURVE",
"852 568 OFFCURVE",
"908 658 CURVE SMOOTH",
"959 739 OFFCURVE",
"1018 829 OFFCURVE",
"1081 891 CURVE SMOOTH",
"1109 918 OFFCURVE",
"1145 950 OFFCURVE",
"1188 952 CURVE",
"1218 952 OFFCURVE",
"1245 926 OFFCURVE",
"1246 895 CURVE SMOOTH",
"1246 860 OFFCURVE",
"1223 829 OFFCURVE",
"1198 804 CURVE SMOOTH",
"1189 795 OFFCURVE",
"1037 657 OFFCURVE",
"822 550 CURVE SMOOTH",
"753 516 OFFCURVE",
"688 491 OFFCURVE",
"622 465 CURVE SMOOTH",
"559 441 OFFCURVE",
"494 417 OFFCURVE",
"422 384 CURVE SMOOTH",
"281 316 OFFCURVE",
"153 230 OFFCURVE",
"67 116 CURVE SMOOTH",
"8 37 OFFCURVE",
"-17 -35 OFFCURVE",
"-17 -94 CURVE SMOOTH",
"-17 -134 OFFCURVE",
"-5 -169 OFFCURVE",
"15 -194 CURVE SMOOTH",
"48 -236 OFFCURVE",
"108 -256 OFFCURVE",
"158 -225 CURVE SMOOTH",
"227 -181 OFFCURVE",
"289 -67 OFFCURVE",
"320 22 CURVE SMOOTH",
"356 123 OFFCURVE",
"396 246 OFFCURVE",
"435 365 CURVE SMOOTH",
"483 513 OFFCURVE",
"529 655 OFFCURVE",
"562 739 CURVE SMOOTH",
"597 827 OFFCURVE",
"633 903 OFFCURVE",
"674 962 CURVE SMOOTH",
"695 994 OFFCURVE",
"742 1052 OFFCURVE",
"808 1081 CURVE SMOOTH",
"823 1087 OFFCURVE",
"842 1091 OFFCURVE",
"857 1083 CURVE SMOOTH",
"865 1079 OFFCURVE",
"873 1062 OFFCURVE",
"862 1046 CURVE SMOOTH",
"845 1022 OFFCURVE",
"797 991 OFFCURVE",
"735 991 CURVE SMOOTH",
"664 991 OFFCURVE",
"550 1032 OFFCURVE",
"460 1137 CURVE"
);
}
);
width = 1267;
},
{
associatedMasterId = "AF956123-A183-4F86-8774-5A4F8E572774";
layerId = "3194AE71-314D-4E49-8127-19BCBE6CF5AE";
name = "Feb 7 19, 00:51";
paths = (
{
closed = 1;
nodes = (
"227 -181 OFFCURVE",
"289 -67 OFFCURVE",
"320 22 CURVE SMOOTH",
"356 123 OFFCURVE",
"396 246 OFFCURVE",
"435 365 CURVE SMOOTH",
"483 513 OFFCURVE",
"529 655 OFFCURVE",
"562 739 CURVE SMOOTH",
"597 827 OFFCURVE",
"633 903 OFFCURVE",
"674 962 CURVE SMOOTH",
"695 994 OFFCURVE",
"742 1052 OFFCURVE",
"808 1081 CURVE SMOOTH",
"823 1087 OFFCURVE",
"842 1091 OFFCURVE",
"857 1083 CURVE SMOOTH",
"865 1079 OFFCURVE",
"873 1062 OFFCURVE",
"862 1046 CURVE SMOOTH",
"845 1022 OFFCURVE",
"797 991 OFFCURVE",
"735 991 CURVE SMOOTH",
"674 991 OFFCURVE",
"582 1021 OFFCURVE",
"501 1095 CURVE SMOOTH",
"475 1119 OFFCURVE",
"444 1124 OFFCURVE",
"423 1105 CURVE SMOOTH",
"401 1086 OFFCURVE",
"404 1051 OFFCURVE",
"432 1025 CURVE SMOOTH",
"521 944 OFFCURVE",
"634 893 OFFCURVE",
"735 893 CURVE SMOOTH",
"815 893 OFFCURVE",
"900 929 OFFCURVE",
"942 990 CURVE SMOOTH",
"984 1050 OFFCURVE",
"968 1137 OFFCURVE",
"901 1171 CURVE",
"903 1169 LINE",
"862 1192 OFFCURVE",
"814 1189 OFFCURVE",
"770 1171 CURVE SMOOTH",
"704 1143 OFFCURVE",
"638 1085 OFFCURVE",
"593 1017 CURVE SMOOTH",
"552 958 OFFCURVE",
"512 879 OFFCURVE",
"471 775 CURVE SMOOTH",
"437 688 OFFCURVE",
"390 543 OFFCURVE",
"342 395 CURVE SMOOTH",
"303 276 OFFCURVE",
"263 154 OFFCURVE",
"228 55 CURVE SMOOTH",
"197 -34 OFFCURVE",
"145 -117 OFFCURVE",
"106 -142 CURVE",
"104 -143 OFFCURVE",
"98 -141 OFFCURVE",
"92 -133 CURVE",
"85 -125 OFFCURVE",
"81 -113 OFFCURVE",
"81 -94 CURVE SMOOTH",
"81 -52 OFFCURVE",
"102 0 OFFCURVE",
"146 57 CURVE SMOOTH",
"213 147 OFFCURVE",
"315 224 OFFCURVE",
"464 295 CURVE SMOOTH",
"517 320 OFFCURVE",
"589 343 OFFCURVE",
"668 368 CURVE SMOOTH",
"756 396 OFFCURVE",
"852 426 OFFCURVE",
"925 462 CURVE SMOOTH",
"1153 574 OFFCURVE",
"1317 724 OFFCURVE",
"1327 735 CURVE",
"1375 782 OFFCURVE",
"1404 836 OFFCURVE",
"1404 895 CURVE SMOOTH",
"1404 981 OFFCURVE",
"1331 1051 OFFCURVE",
"1246 1050 CURVE SMOOTH",
"1182 1048 OFFCURVE",
"1129 1016 OFFCURVE",
"1073 962 CURVE SMOOTH",
"1001 893 OFFCURVE",
"936 791 OFFCURVE",
"885 710 CURVE SMOOTH",
"782 547 OFFCURVE",
"669 366 OFFCURVE",
"669 163 CURVE SMOOTH",
"669 25 OFFCURVE",
"734 -77 OFFCURVE",
"854 -131 CURVE SMOOTH",
"889 -147 OFFCURVE",
"923 -134 OFFCURVE",
"931 -107 CURVE SMOOTH",
"939 -80 OFFCURVE",
"921 -55 OFFCURVE",
"891 -40 CURVE SMOOTH",
"805 0 OFFCURVE",
"767 69 OFFCURVE",
"767 163 CURVE SMOOTH",
"767 338 OFFCURVE",
"865 495 OFFCURVE",
"968 658 CURVE SMOOTH",
"1019 739 OFFCURVE",
"1077 830 OFFCURVE",
"1141 891 CURVE SMOOTH",
"1169 918 OFFCURVE",
"1205 950 OFFCURVE",
"1248 952 CURVE",
"1278 952 OFFCURVE",
"1306 926 OFFCURVE",
"1306 895 CURVE SMOOTH",
"1306 860 OFFCURVE",
"1283 829 OFFCURVE",
"1258 804 CURVE SMOOTH",
"1249 795 OFFCURVE",
"1097 656 OFFCURVE",
"882 550 CURVE SMOOTH",
"815 517 OFFCURVE",
"726 489 OFFCURVE",
"638 461 CURVE SMOOTH",
"559 436 OFFCURVE",
"481 411 OFFCURVE",
"422 384 CURVE SMOOTH",
"281 316 OFFCURVE",
"153 230 OFFCURVE",
"67 116 CURVE SMOOTH",
"8 37 OFFCURVE",
"-17 -35 OFFCURVE",
"-17 -94 CURVE SMOOTH",
"-17 -134 OFFCURVE",
"-5 -169 OFFCURVE",
"15 -194 CURVE SMOOTH",
"48 -236 OFFCURVE",
"108 -256 OFFCURVE",
"158 -225 CURVE SMOOTH"
);
}
);
width = 1047;
}
);
unicode = 0048;
},
{
glyphname = I;
lastChange = "2019-02-08 22:08:22 +0000";
layers = (
{
layerId = master01;
paths = (
{
closed = 1;
nodes = (
"229 -119 OFFCURVE",
"339 30 OFFCURVE",
"514 267 CURVE SMOOTH",
"555 321 OFFCURVE",
"595 376 OFFCURVE",
"636 434 CURVE SMOOTH",
"739 578 OFFCURVE",
"834 710 OFFCURVE",
"942 797 CURVE",
"1051 765 OFFCURVE",
"1118 752 OFFCURVE",
"1185 751 CURVE SMOOTH",
"1186 751 OFFCURVE",
"1187 751 OFFCURVE",
"1189 751 CURVE SMOOTH",
"1238 751 OFFCURVE",
"1268 770 OFFCURVE",
"1284 786 CURVE SMOOTH",
"1312 814 OFFCURVE",
"1324 866 OFFCURVE",
"1293 898 CURVE SMOOTH",
"1262 930 OFFCURVE",
"1188 923 OFFCURVE",
"1187 923 CURVE",
"1129 919 OFFCURVE",
"1076 903 OFFCURVE",
"1022 875 CURVE SMOOTH",
"994 860 OFFCURVE",
"966 841 OFFCURVE",
"938 820 CURVE",
"855 848 OFFCURVE",
"772 875 OFFCURVE",
"680 845 CURVE",
"675 843 OFFCURVE",
"672 838 OFFCURVE",
"674 832 CURVE",
"675 827 OFFCURVE",
"681 824 OFFCURVE",
"686 826 CURVE",
"767 853 OFFCURVE",
"862 825 OFFCURVE",
"920 804 CURVE",
"906 793 OFFCURVE",
"893 781 OFFCURVE",
"879 768 CURVE SMOOTH",
"789 681 OFFCURVE",
"707 567 OFFCURVE",
"619 445 CURVE SMOOTH",
"580 389 OFFCURVE",
"540 334 OFFCURVE",
"498 279 CURVE SMOOTH",
"327 46 OFFCURVE",
"219 -99 OFFCURVE",
"89 -99 CURVE SMOOTH",
"54 -99 OFFCURVE",
"11 -89 OFFCURVE",
"-11 -57 CURVE SMOOTH",
"-28 -33 OFFCURVE",
"-33 2 OFFCURVE",
"-23 44 CURVE",
"-22 49 OFFCURVE",
"-25 55 OFFCURVE",
"-31 56 CURVE SMOOTH",
"-36 57 OFFCURVE",
"-42 54 OFFCURVE",
"-43 48 CURVE",
"-53 1 OFFCURVE",
"-48 -40 OFFCURVE",
"-28 -69 CURVE SMOOTH",
"-3 -105 OFFCURVE",
"45 -119 OFFCURVE",
"90 -119 CURVE SMOOTH"
);
},
{
closed = 1;
nodes = (
"1123 772 OFFCURVE",
"1060 783 OFFCURVE",
"962 812 CURVE",
"1030 864 OFFCURVE",
"1104 897 OFFCURVE",
"1189 903 CURVE",
"1189 903 OFFCURVE",
"1254 910 OFFCURVE",
"1278 884 CURVE SMOOTH",
"1299 861 OFFCURVE",
"1293 822 OFFCURVE",
"1269 800 CURVE",
"1249 780 OFFCURVE",
"1221 770 OFFCURVE",
"1185 771 CURVE SMOOTH"
);
}
);
width = 833;
},
{
layerId = "AF956123-A183-4F86-8774-5A4F8E572774";
paths = (
{
closed = 1;
nodes = (
"355 -119 OFFCURVE",
"411 30 OFFCURVE",
"503 268 CURVE SMOOTH",
"542 368 OFFCURVE",
"560 418 OFFCURVE",
"569 441 CURVE SMOOTH",
"653 665 OFFCURVE",
"748 903 OFFCURVE",
"952 903 CURVE SMOOTH",
"1003 903 OFFCURVE",
"1070 888 OFFCURVE",
"1079 837 CURVE SMOOTH",
"1085 804 OFFCURVE",
"1064 772 OFFCURVE",
"985 772 CURVE SMOOTH",
"931 772 OFFCURVE",
"849 787 OFFCURVE",
"732 820 CURVE SMOOTH",
"709 827 OFFCURVE",
"497 897 OFFCURVE",
"401 876 CURVE SMOOTH",
"370 869 OFFCURVE",
"354 840 OFFCURVE",
"364 812 CURVE SMOOTH",
"373 787 OFFCURVE",
"396 773 OFFCURVE",
"422 780 CURVE SMOOTH",
"453 788 OFFCURVE",
"538 774 OFFCURVE",
"705 726 CURVE",
"827 692 OFFCURVE",
"921 674 OFFCURVE",
"985 674 CURVE SMOOTH",
"1105 674 OFFCURVE",
"1196 743 OFFCURVE",
"1175 854 CURVE SMOOTH",
"1158 952 OFFCURVE",
"1063 1001 OFFCURVE",
"952 1001 CURVE SMOOTH",
"678 1001 OFFCURVE",
"559 693 OFFCURVE",
"474 467 CURVE SMOOTH",
"467 448 OFFCURVE",
"453 413 OFFCURVE",
"412 303 CURVE SMOOTH",
"305 26 OFFCURVE",
"270 -21 OFFCURVE",
"209 -21 CURVE SMOOTH",
"184 -21 OFFCURVE",
"166 -14 OFFCURVE",
"144 5 CURVE SMOOTH",
"125 22 OFFCURVE",
"111 44 OFFCURVE",
"107 61 CURVE SMOOTH",
"102 82 OFFCURVE",
"76 97 OFFCURVE",
"57 97 CURVE SMOOTH",
"32 97 OFFCURVE",
"6 75 OFFCURVE",
"11 43 CURVE SMOOTH",
"17 5 OFFCURVE",
"44 -38 OFFCURVE",
"80 -69 CURVE SMOOTH",
"119 -103 OFFCURVE",
"161 -119 OFFCURVE",
"209 -119 CURVE SMOOTH"
);
}
);
width = 873;
},
{
associatedMasterId = "AF956123-A183-4F86-8774-5A4F8E572774";
layerId = "C83AE131-159B-4220-B443-1641D4B56085";
name = "Dec 23 18, 22:16";
paths = (
{
closed = 0;
nodes = (
"-43 48 LINE",
"-53 1 OFFCURVE",
"-48 -40 OFFCURVE",
"-28 -69 CURVE SMOOTH",
"-3 -105 OFFCURVE",
"45 -119 OFFCURVE",
"90 -119 CURVE SMOOTH",
"229 -119 OFFCURVE",
"339 30 OFFCURVE",
"514 267 CURVE SMOOTH",
"555 321 OFFCURVE",
"595 376 OFFCURVE",
"636 434 CURVE SMOOTH",
"744 585 OFFCURVE",
"849 721 OFFCURVE",
"962 812 CURVE SMOOTH",
"1030 864 OFFCURVE",
"1104 897 OFFCURVE",
"1189 903 CURVE SMOOTH",
"1189 903 OFFCURVE",
"1254 910 OFFCURVE",
"1278 884 CURVE SMOOTH",
"1322 836 OFFCURVE",
"1261 769 OFFCURVE",
"1185 771 CURVE SMOOTH",
"1124 772 OFFCURVE",
"1033 789 OFFCURVE",
"938 820 CURVE SMOOTH",
"855 847 OFFCURVE",
"772 875 OFFCURVE",
"680 845 CURVE"
);
}
);
width = 600;
},
{
associatedMasterId = "AF956123-A183-4F86-8774-5A4F8E572774";
layerId = "EE7A56BE-4F11-4454-87D8-0343200A8489";
name = "Dec 23 18, 22:17";
paths = (
{
closed = 0;
nodes = (
"680 845 LINE",
"778 877 OFFCURVE",
"868 842 OFFCURVE",
"938 820 CURVE SMOOTH",
"1033 790 OFFCURVE",
"1126 771 OFFCURVE",
"1179 771 CURVE SMOOTH",
"1268 771 OFFCURVE",
"1293 825 OFFCURVE",
"1293 848 CURVE SMOOTH",
"1293 882 OFFCURVE",
"1239 903 OFFCURVE",
"1183 903 CURVE SMOOTH",
"1106 903 OFFCURVE",
"1030 864 OFFCURVE",
"963 812 CURVE SMOOTH",
"850 724 OFFCURVE",
"752 594 OFFCURVE",
"636 434 CURVE SMOOTH",
"634 432 OFFCURVE",
"631 425 OFFCURVE",
"514 267 CURVE SMOOTH",
"339 30 OFFCURVE",
"230 -119 OFFCURVE",
"88 -119 CURVE SMOOTH",
"45 -119 OFFCURVE",
"-3 -105 OFFCURVE",
"-28 -69 CURVE SMOOTH",
"-48 -40 OFFCURVE",
"-53 1 OFFCURVE",
"-43 48 CURVE"
);
}
);
width = 600;
},
{
associatedMasterId = "AF956123-A183-4F86-8774-5A4F8E572774";
layerId = "17780704-7F6E-47B9-B704-C5C43658D69F";
name = "Jan 16 19, 23:46";
paths = (
{
closed = 1;
nodes = (
"230 -119 OFFCURVE",
"339 30 OFFCURVE",
"514 267 CURVE SMOOTH",
"631 424 OFFCURVE",
"640 440 OFFCURVE",
"641 441 CURVE",
"805 665 OFFCURVE",
"986 903 OFFCURVE",
"1183 903 CURVE SMOOTH",
"1239 903 OFFCURVE",
"1293 882 OFFCURVE",
"1293 848 CURVE SMOOTH",
"1293 825 OFFCURVE",
"1268 771 OFFCURVE",
"1179 771 CURVE SMOOTH",
"1126 771 OFFCURVE",
"1033 790 OFFCURVE",
"938 820 CURVE SMOOTH",
"844 849 OFFCURVE",
"726 895 OFFCURVE",
"596 872 CURVE SMOOTH",
"565 866 OFFCURVE",
"549 836 OFFCURVE",
"559 808 CURVE SMOOTH",
"567 783 OFFCURVE",
"590 771 OFFCURVE",
"617 776 CURVE SMOOTH",
"717 793 OFFCURVE",
"812 757 OFFCURVE",
"909 726 CURVE SMOOTH",
"1012 694 OFFCURVE",
"1117 673 OFFCURVE",
"1179 673 CURVE SMOOTH",
"1291 673 OFFCURVE",
"1391 744 OFFCURVE",
"1391 848 CURVE SMOOTH",
"1391 946 OFFCURVE",
"1292 1001 OFFCURVE",
"1183 1001 CURVE SMOOTH",
"989 1001 OFFCURVE",
"827 862 OFFCURVE",
"572 510 CURVE SMOOTH",
"435 326 LINE SMOOTH",
"224 38 OFFCURVE",
"159 -21 OFFCURVE",
"88 -21 CURVE SMOOTH",
"52 -21 OFFCURVE",
"38 -4 OFFCURVE",
"39 34 CURVE SMOOTH",
"40 65 OFFCURVE",
"26 89 OFFCURVE",
"-2 96 CURVE SMOOTH",
"-29 102 OFFCURVE",
"-57 79 OFFCURVE",
"-58 43 CURVE SMOOTH",
"-58 -1 OFFCURVE",
"-49 -39 OFFCURVE",
"-28 -69 CURVE SMOOTH",
"-3 -105 OFFCURVE",
"45 -119 OFFCURVE",
"88 -119 CURVE SMOOTH"
);
}
);
width = 1011;
},
{
associatedMasterId = "AF956123-A183-4F86-8774-5A4F8E572774";
layerId = "58AE3841-A6CE-4926-A5C5-9DD42A9A88CD";
name = "Feb 7 19, 00:55";
paths = (
{
closed = 1;
nodes = (
"10 5 OFFCURVE",
"29 -38 OFFCURVE",
"59 -69 CURVE SMOOTH",
"92 -103 OFFCURVE",
"132 -119 OFFCURVE",
"180 -119 CURVE SMOOTH",
"326 -119 OFFCURVE",
"408 30 OFFCURVE",
"542 268 CURVE SMOOTH",
"629 423 OFFCURVE",
"637 440 OFFCURVE",
"638 441 CURVE",
"762 665 OFFCURVE",
"899 903 OFFCURVE",
"1103 903 CURVE SMOOTH",
"1154 903 OFFCURVE",
"1218 888 OFFCURVE",
"1218 837 CURVE SMOOTH",
"1218 804 OFFCURVE",
"1192 772 OFFCURVE",
"1113 772 CURVE SMOOTH",
"1059 772 OFFCURVE",
"979 787 OFFCURVE",
"868 820 CURVE SMOOTH",
"845 827 OFFCURVE",
"629 904 OFFCURVE",
"534 872 CURVE SMOOTH",
"504 862 OFFCURVE",
"487 836 OFFCURVE",
"497 808 CURVE SMOOTH",
"506 783 OFFCURVE",
"528 771 OFFCURVE",
"555 776 CURVE SMOOTH",
"652 793 OFFCURVE",
"753 757 OFFCURVE",
"855 726 CURVE SMOOTH",
"992 684 OFFCURVE",
"1065 674 OFFCURVE",
"1121 674 CURVE SMOOTH",
"1241 674 OFFCURVE",
"1316 737 OFFCURVE",
"1316 832 CURVE SMOOTH",
"1316 955 OFFCURVE",
"1189 1001 OFFCURVE",
"1085 1001 CURVE SMOOTH",
"830 1001 OFFCURVE",
"675 727 OFFCURVE",
"555 511 CURVE SMOOTH",
"452 326 LINE SMOOTH",
"333 112 OFFCURVE",
"258 -21 OFFCURVE",
"158 -21 CURVE SMOOTH",
"126 -21 OFFCURVE",
"107 5 OFFCURVE",
"107 34 CURVE",
"108 65 OFFCURVE",
"94 89 OFFCURVE",
"66 96 CURVE SMOOTH",
"39 103 OFFCURVE",
"11 79 OFFCURVE",
"10 43 CURVE SMOOTH"
);
}
);
width = 1011;
}
);
unicode = 0049;
},
{
glyphname = Iacute;
lastChange = "2019-02-07 00:32:10 +0000";
layers = (
{
layerId = master01;
paths = (
{
closed = 1;
nodes = (
"229 -119 OFFCURVE",
"339 30 OFFCURVE",
"514 267 CURVE SMOOTH",
"555 321 OFFCURVE",
"595 376 OFFCURVE",
"636 434 CURVE SMOOTH",
"739 578 OFFCURVE",
"834 710 OFFCURVE",
"942 797 CURVE",
"1051 765 OFFCURVE",
"1118 752 OFFCURVE",
"1185 751 CURVE SMOOTH",
"1186 751 OFFCURVE",
"1187 751 OFFCURVE",
"1189 751 CURVE SMOOTH",
"1238 751 OFFCURVE",
"1268 770 OFFCURVE",
"1284 786 CURVE SMOOTH",
"1312 814 OFFCURVE",
"1324 866 OFFCURVE",
"1293 898 CURVE SMOOTH",
"1262 930 OFFCURVE",
"1188 923 OFFCURVE",
"1187 923 CURVE",
"1129 919 OFFCURVE",
"1076 903 OFFCURVE",
"1022 875 CURVE SMOOTH",
"994 860 OFFCURVE",
"966 841 OFFCURVE",
"938 820 CURVE",
"855 848 OFFCURVE",
"772 875 OFFCURVE",
"680 845 CURVE",
"675 843 OFFCURVE",
"672 838 OFFCURVE",
"674 832 CURVE",
"675 827 OFFCURVE",
"681 824 OFFCURVE",
"686 826 CURVE",
"767 853 OFFCURVE",
"862 825 OFFCURVE",
"920 804 CURVE",
"906 793 OFFCURVE",
"893 781 OFFCURVE",
"879 768 CURVE SMOOTH",
"789 681 OFFCURVE",
"707 567 OFFCURVE",
"619 445 CURVE SMOOTH",
"580 389 OFFCURVE",
"540 334 OFFCURVE",
"498 279 CURVE SMOOTH",
"327 46 OFFCURVE",
"219 -99 OFFCURVE",
"89 -99 CURVE SMOOTH",
"54 -99 OFFCURVE",
"11 -89 OFFCURVE",
"-11 -57 CURVE SMOOTH",
"-28 -33 OFFCURVE",
"-33 2 OFFCURVE",
"-23 44 CURVE",
"-22 49 OFFCURVE",
"-25 55 OFFCURVE",
"-31 56 CURVE SMOOTH",
"-36 57 OFFCURVE",
"-42 54 OFFCURVE",
"-43 48 CURVE",
"-53 1 OFFCURVE",
"-48 -40 OFFCURVE",
"-28 -69 CURVE SMOOTH",
"-3 -105 OFFCURVE",
"45 -119 OFFCURVE",
"90 -119 CURVE SMOOTH"
);
},
{
closed = 1;
nodes = (
"1123 772 OFFCURVE",
"1060 783 OFFCURVE",
"962 812 CURVE",
"1030 864 OFFCURVE",
"1104 897 OFFCURVE",
"1189 903 CURVE",
"1189 903 OFFCURVE",
"1254 910 OFFCURVE",
"1278 884 CURVE SMOOTH",
"1299 861 OFFCURVE",
"1293 822 OFFCURVE",
"1269 800 CURVE",
"1249 780 OFFCURVE",
"1221 770 OFFCURVE",
"1185 771 CURVE SMOOTH"
);
},
{
closed = 1;
nodes = (
"1094 953 OFFCURVE",
"1255 999 OFFCURVE",
"1400 1091 CURVE",
"1404 1094 OFFCURVE",
"1406 1099 OFFCURVE",
"1403 1104 CURVE",
"1400 1108 OFFCURVE",
"1395 1109 OFFCURVE",
"1390 1106 CURVE SMOOTH",
"1263 1024 OFFCURVE",
"1089 968 OFFCURVE",
"935 988 CURVE",
"930 989 OFFCURVE",
"926 985 OFFCURVE",
"925 981 CURVE",
"924 976 OFFCURVE",
"927 971 OFFCURVE",
"932 970 CURVE"
);
}
);
width = 833;
},
{
components = (
{
name = I;
},
{
name = acute;
transform = "{1, 0, 0, 1, 805, 386}";
}
);
layerId = "AF956123-A183-4F86-8774-5A4F8E572774";
width = 1011;
}
);
unicode = 00CD;
},
{
glyphname = Icircumflex;
lastChange = "2019-02-07 00:32:15 +0000";
layers = (
{
layerId = master01;
paths = (
{
closed = 1;
nodes = (
"229 -119 OFFCURVE",
"339 30 OFFCURVE",
"514 267 CURVE SMOOTH",
"555 321 OFFCURVE",
"595 376 OFFCURVE",
"636 434 CURVE SMOOTH",
"739 578 OFFCURVE",
"834 710 OFFCURVE",
"942 797 CURVE",
"1051 765 OFFCURVE",
"1118 752 OFFCURVE",
"1185 751 CURVE SMOOTH",
"1186 751 OFFCURVE",
"1187 751 OFFCURVE",
"1189 751 CURVE SMOOTH",
"1238 751 OFFCURVE",
"1268 770 OFFCURVE",
"1284 786 CURVE SMOOTH",
"1312 814 OFFCURVE",
"1324 866 OFFCURVE",
"1293 898 CURVE SMOOTH",
"1262 930 OFFCURVE",
"1188 923 OFFCURVE",
"1187 923 CURVE",
"1129 919 OFFCURVE",
"1076 903 OFFCURVE",
"1022 875 CURVE SMOOTH",
"994 860 OFFCURVE",
"966 841 OFFCURVE",
"938 820 CURVE",
"855 848 OFFCURVE",
"772 875 OFFCURVE",
"680 845 CURVE",
"675 843 OFFCURVE",
"672 838 OFFCURVE",
"674 832 CURVE",
"675 827 OFFCURVE",
"681 824 OFFCURVE",
"686 826 CURVE",
"767 853 OFFCURVE",
"862 825 OFFCURVE",
"920 804 CURVE",
"906 793 OFFCURVE",
"893 781 OFFCURVE",
"879 768 CURVE SMOOTH",
"789 681 OFFCURVE",
"707 567 OFFCURVE",
"619 445 CURVE SMOOTH",
"580 389 OFFCURVE",
"540 334 OFFCURVE",
"498 279 CURVE SMOOTH",
"327 46 OFFCURVE",
"219 -99 OFFCURVE",
"89 -99 CURVE SMOOTH",
"54 -99 OFFCURVE",
"11 -89 OFFCURVE",
"-11 -57 CURVE SMOOTH",
"-28 -33 OFFCURVE",
"-33 2 OFFCURVE",
"-23 44 CURVE",
"-22 49 OFFCURVE",
"-25 55 OFFCURVE",
"-31 56 CURVE SMOOTH",
"-36 57 OFFCURVE",
"-42 54 OFFCURVE",
"-43 48 CURVE",
"-53 1 OFFCURVE",
"-48 -40 OFFCURVE",
"-28 -69 CURVE SMOOTH",
"-3 -105 OFFCURVE",
"45 -119 OFFCURVE",
"90 -119 CURVE SMOOTH"
);
},
{
closed = 1;
nodes = (
"1123 772 OFFCURVE",
"1060 783 OFFCURVE",
"962 812 CURVE",
"1030 864 OFFCURVE",
"1104 897 OFFCURVE",
"1189 903 CURVE",
"1189 903 OFFCURVE",
"1254 910 OFFCURVE",
"1278 884 CURVE SMOOTH",
"1299 861 OFFCURVE",
"1293 822 OFFCURVE",
"1269 800 CURVE",
"1249 780 OFFCURVE",
"1221 770 OFFCURVE",
"1185 771 CURVE SMOOTH"
);
},
{
closed = 1;
nodes = (
"1454 905 OFFCURVE",
"1458 909 OFFCURVE",
"1458 914 CURVE SMOOTH",
"1458 919 OFFCURVE",
"1454 923 OFFCURVE",
"1449 923 CURVE SMOOTH",
"1403 923 OFFCURVE",
"1371 944 OFFCURVE",
"1352 986 CURVE SMOOTH",
"1338 1018 OFFCURVE",
"1338 1051 OFFCURVE",
"1338 1052 CURVE SMOOTH",
"1338 1059 OFFCURVE",
"1329 1063 OFFCURVE",
"1324 1060 CURVE SMOOTH",
"1201 984 OFFCURVE",
"1091 963 OFFCURVE",
"1020 956 CURVE SMOOTH",
"943 948 OFFCURVE",
"893 959 OFFCURVE",
"893 959 CURVE",
"888 960 OFFCURVE",
"883 957 OFFCURVE",
"882 952 CURVE SMOOTH",
"881 947 OFFCURVE",
"884 942 OFFCURVE",
"889 941 CURVE",
"891 941 OFFCURVE",
"941 930 OFFCURVE",
"1021 938 CURVE SMOOTH",
"1068 942 OFFCURVE",
"1115 952 OFFCURVE",
"1162 967 CURVE SMOOTH",
"1216 983 OFFCURVE",
"1269 1007 OFFCURVE",
"1321 1037 CURVE",
"1322 1023 OFFCURVE",
"1326 1001 OFFCURVE",
"1336 979 CURVE SMOOTH",
"1357 931 OFFCURVE",
"1396 905 OFFCURVE",
"1449 905 CURVE SMOOTH"
);
}
);
width = 833;
},
{
components = (
{
name = I;
},
{
name = circumflex;
transform = "{1, 0, 0, 1, 632, 319}";
}
);
layerId = "AF956123-A183-4F86-8774-5A4F8E572774";
width = 1011;
}
);
unicode = 00CE;
},
{
glyphname = Idieresis;
lastChange = "2019-02-07 00:32:18 +0000";
layers = (
{
layerId = master01;
paths = (
{
closed = 1;
nodes = (
"229 -119 OFFCURVE",
"339 30 OFFCURVE",
"514 267 CURVE SMOOTH",
"555 321 OFFCURVE",
"595 376 OFFCURVE",
"636 434 CURVE SMOOTH",
"739 578 OFFCURVE",
"834 710 OFFCURVE",
"942 797 CURVE",
"1051 765 OFFCURVE",
"1118 752 OFFCURVE",
"1185 751 CURVE SMOOTH",
"1186 751 OFFCURVE",
"1187 751 OFFCURVE",
"1189 751 CURVE SMOOTH",
"1238 751 OFFCURVE",
"1268 770 OFFCURVE",
"1284 786 CURVE SMOOTH",
"1312 814 OFFCURVE",
"1324 866 OFFCURVE",
"1293 898 CURVE SMOOTH",
"1262 930 OFFCURVE",
"1188 923 OFFCURVE",
"1187 923 CURVE",
"1129 919 OFFCURVE",
"1076 903 OFFCURVE",
"1022 875 CURVE SMOOTH",
"994 860 OFFCURVE",
"966 841 OFFCURVE",
"938 820 CURVE",
"855 848 OFFCURVE",
"772 875 OFFCURVE",
"680 845 CURVE",
"675 843 OFFCURVE",
"672 838 OFFCURVE",
"674 832 CURVE",
"675 827 OFFCURVE",
"681 824 OFFCURVE",
"686 826 CURVE",
"767 853 OFFCURVE",
"862 825 OFFCURVE",
"920 804 CURVE",
"906 793 OFFCURVE",
"893 781 OFFCURVE",
"879 768 CURVE SMOOTH",
"789 681 OFFCURVE",
"707 567 OFFCURVE",
"619 445 CURVE SMOOTH",
"580 389 OFFCURVE",
"540 334 OFFCURVE",
"498 279 CURVE SMOOTH",
"327 46 OFFCURVE",
"219 -99 OFFCURVE",
"89 -99 CURVE SMOOTH",
"54 -99 OFFCURVE",
"11 -89 OFFCURVE",
"-11 -57 CURVE SMOOTH",
"-28 -33 OFFCURVE",
"-33 2 OFFCURVE",
"-23 44 CURVE",
"-22 49 OFFCURVE",
"-25 55 OFFCURVE",
"-31 56 CURVE SMOOTH",
"-36 57 OFFCURVE",
"-42 54 OFFCURVE",
"-43 48 CURVE",
"-53 1 OFFCURVE",
"-48 -40 OFFCURVE",
"-28 -69 CURVE SMOOTH",
"-3 -105 OFFCURVE",
"45 -119 OFFCURVE",
"90 -119 CURVE SMOOTH"
);
},
{
closed = 1;
nodes = (
"1123 772 OFFCURVE",
"1060 783 OFFCURVE",
"962 812 CURVE",
"1030 864 OFFCURVE",
"1104 897 OFFCURVE",
"1189 903 CURVE",
"1189 903 OFFCURVE",
"1254 910 OFFCURVE",
"1278 884 CURVE SMOOTH",
"1299 861 OFFCURVE",
"1293 822 OFFCURVE",
"1269 800 CURVE",
"1249 780 OFFCURVE",
"1221 770 OFFCURVE",
"1185 771 CURVE SMOOTH"
);
},
{
closed = 1;
nodes = (
"1138 934 OFFCURVE",
"1162 958 OFFCURVE",
"1162 988 CURVE SMOOTH",
"1162 1018 OFFCURVE",
"1138 1042 OFFCURVE",
"1108 1042 CURVE SMOOTH",
"1078 1042 OFFCURVE",
"1054 1018 OFFCURVE",
"1054 988 CURVE SMOOTH",
"1054 958 OFFCURVE",
"1078 934 OFFCURVE",
"1108 934 CURVE SMOOTH"
);
},
{
closed = 1;
nodes = (
"1300 934 OFFCURVE",
"1324 958 OFFCURVE",
"1324 988 CURVE SMOOTH",
"1324 1018 OFFCURVE",
"1300 1042 OFFCURVE",
"1270 1042 CURVE SMOOTH",
"1240 1042 OFFCURVE",
"1216 1018 OFFCURVE",
"1216 988 CURVE SMOOTH",
"1216 958 OFFCURVE",
"1240 934 OFFCURVE",
"1270 934 CURVE SMOOTH"
);
}
);
width = 833;
},
{
components = (
{
name = I;
},
{
name = dieresis;
transform = "{1, 0, 0, 1, 722, 305}";
}
);
layerId = "AF956123-A183-4F86-8774-5A4F8E572774";
width = 1011;
}
);
unicode = 00CF;
},
{
glyphname = Igrave;
lastChange = "2019-02-07 00:32:21 +0000";
layers = (
{
layerId = master01;
paths = (
{
closed = 1;
nodes = (
"229 -119 OFFCURVE",
"339 30 OFFCURVE",
"514 267 CURVE SMOOTH",
"555 321 OFFCURVE",
"595 376 OFFCURVE",
"636 434 CURVE SMOOTH",
"739 578 OFFCURVE",
"834 710 OFFCURVE",
"942 797 CURVE",
"1051 765 OFFCURVE",
"1118 752 OFFCURVE",
"1185 751 CURVE SMOOTH",
"1186 751 OFFCURVE",
"1187 751 OFFCURVE",
"1189 751 CURVE SMOOTH",
"1238 751 OFFCURVE",
"1268 770 OFFCURVE",
"1284 786 CURVE SMOOTH",
"1312 814 OFFCURVE",
"1324 866 OFFCURVE",
"1293 898 CURVE SMOOTH",
"1262 930 OFFCURVE",
"1188 923 OFFCURVE",
"1187 923 CURVE",
"1129 919 OFFCURVE",
"1076 903 OFFCURVE",
"1022 875 CURVE SMOOTH",
"994 860 OFFCURVE",
"966 841 OFFCURVE",
"938 820 CURVE",
"855 848 OFFCURVE",
"772 875 OFFCURVE",
"680 845 CURVE",
"675 843 OFFCURVE",
"672 838 OFFCURVE",
"674 832 CURVE",
"675 827 OFFCURVE",
"681 824 OFFCURVE",
"686 826 CURVE",
"767 853 OFFCURVE",
"862 825 OFFCURVE",
"920 804 CURVE",
"906 793 OFFCURVE",
"893 781 OFFCURVE",
"879 768 CURVE SMOOTH",
"789 681 OFFCURVE",
"707 567 OFFCURVE",
"619 445 CURVE SMOOTH",
"580 389 OFFCURVE",
"540 334 OFFCURVE",
"498 279 CURVE SMOOTH",
"327 46 OFFCURVE",
"219 -99 OFFCURVE",
"89 -99 CURVE SMOOTH",
"54 -99 OFFCURVE",
"11 -89 OFFCURVE",
"-11 -57 CURVE SMOOTH",
"-28 -33 OFFCURVE",
"-33 2 OFFCURVE",
"-23 44 CURVE",
"-22 49 OFFCURVE",
"-25 55 OFFCURVE",
"-31 56 CURVE SMOOTH",
"-36 57 OFFCURVE",
"-42 54 OFFCURVE",
"-43 48 CURVE",
"-53 1 OFFCURVE",
"-48 -40 OFFCURVE",
"-28 -69 CURVE SMOOTH",
"-3 -105 OFFCURVE",
"45 -119 OFFCURVE",
"90 -119 CURVE SMOOTH"
);
},
{
closed = 1;
nodes = (
"1123 772 OFFCURVE",
"1060 783 OFFCURVE",
"962 812 CURVE",
"1030 864 OFFCURVE",
"1104 897 OFFCURVE",
"1189 903 CURVE",
"1189 903 OFFCURVE",
"1254 910 OFFCURVE",
"1278 884 CURVE SMOOTH",
"1299 861 OFFCURVE",
"1293 822 OFFCURVE",
"1269 800 CURVE",
"1249 780 OFFCURVE",
"1221 770 OFFCURVE",
"1185 771 CURVE SMOOTH"
);
},
{
closed = 1;
nodes = (
"1238 956 OFFCURVE",
"1258 957 OFFCURVE",
"1278 959 CURVE",
"1283 959 OFFCURVE",
"1287 964 OFFCURVE",
"1287 969 CURVE",
"1286 974 OFFCURVE",
"1282 977 OFFCURVE",
"1277 977 CURVE",
"1144 966 OFFCURVE",
"978 990 OFFCURVE",
"929 1137 CURVE SMOOTH",
"921 1164 OFFCURVE",
"921 1184 OFFCURVE",
"921 1184 CURVE",
"921 1189 OFFCURVE",
"917 1193 OFFCURVE",
"912 1193 CURVE SMOOTH",
"907 1193 OFFCURVE",
"903 1189 OFFCURVE",
"903 1184 CURVE SMOOTH",
"903 1183 OFFCURVE",
"903 1162 OFFCURVE",
"912 1133 CURVE SMOOTH",
"950 1004 OFFCURVE",
"1088 956 OFFCURVE",
"1218 956 CURVE SMOOTH"
);
}
);
width = 833;
},
{
components = (
{
name = I;
},
{
name = grave;
transform = "{1, 0, 0, 1, 869, 364}";
}
);
layerId = "AF956123-A183-4F86-8774-5A4F8E572774";
width = 1011;
}
);
unicode = 00CC;
},
{
glyphname = J;
lastChange = "2019-02-07 00:33:45 +0000";
layers = (
{
layerId = master01;
paths = (
{
closed = 1;
nodes = (
"-240 -402 OFFCURVE",
"-24 -167 OFFCURVE",
"132 2 CURVE",
"242 17 OFFCURVE",
"347 26 OFFCURVE",
"413 130 CURVE",
"445 176 OFFCURVE",
"454 219 OFFCURVE",
"455 221 CURVE",
"456 226 OFFCURVE",
"453 231 OFFCURVE",
"447 233 CURVE",
"442 234 OFFCURVE",
"437 230 OFFCURVE",
"435 225 CURVE",
"435 225 OFFCURVE",
"426 184 OFFCURVE",
"396 140 CURVE SMOOTH",
"338 55 OFFCURVE",
"248 36 OFFCURVE",
"150 24 CURVE",
"266 155 OFFCURVE",
"376 296 OFFCURVE",
"456 405 CURVE SMOOTH",
"577 568 OFFCURVE",
"705 729 OFFCURVE",
"849 835 CURVE",
"1023 787 OFFCURVE",
"1082 778 OFFCURVE",
"1146 780 CURVE SMOOTH",
"1301 786 OFFCURVE",
"1315 850 OFFCURVE",
"1322 869 CURVE",
"1328 898 OFFCURVE",
"1326 920 OFFCURVE",
"1311 939 CURVE SMOOTH",
"1283 974 OFFCURVE",
"1215 978 OFFCURVE",
"1210 978 CURVE",
"1086 984 OFFCURVE",
"966 944 OFFCURVE",
"845 857 CURVE",
"826 862 OFFCURVE",
"805 868 OFFCURVE",
"783 874 CURVE SMOOTH",
"681 903 OFFCURVE",
"597 904 OFFCURVE",
"544 900 CURVE SMOOTH",
"486 895 OFFCURVE",
"452 884 OFFCURVE",
"451 883 CURVE",
"446 882 OFFCURVE",
"443 876 OFFCURVE",
"445 871 CURVE",
"447 865 OFFCURVE",
"452 863 OFFCURVE",
"458 864 CURVE",
"458 864 OFFCURVE",
"491 875 OFFCURVE",
"546 880 CURVE SMOOTH",
"597 884 OFFCURVE",
"679 882 OFFCURVE",
"778 855 CURVE",
"794 850 OFFCURVE",
"810 846 OFFCURVE",
"825 842 CURVE",
"811 832 OFFCURVE",
"798 821 OFFCURVE",
"785 810 CURVE SMOOTH",
"659 704 OFFCURVE",
"545 558 OFFCURVE",
"440 417 CURVE SMOOTH",
"360 308 OFFCURVE",
"245 160 OFFCURVE",
"121 21 CURVE",
"-24 0 OFFCURVE",
"-178 -6 OFFCURVE",
"-328 -69 CURVE SMOOTH",
"-422 -109 OFFCURVE",
"-565 -211 OFFCURVE",
"-547 -335 CURVE SMOOTH",
"-539 -383 OFFCURVE",
"-497 -401 OFFCURVE",
"-450 -402 CURVE SMOOTH"
);
},
{
closed = 1;
nodes = (
"-410 -381 OFFCURVE",
"-512 -407 OFFCURVE",
"-527 -332 CURVE SMOOTH",
"-547 -225 OFFCURVE",
"-408 -125 OFFCURVE",
"-320 -88 CURVE SMOOTH",
"-189 -30 OFFCURVE",
"-46 -21 OFFCURVE",
"101 -2 CURVE",
"81 -24 OFFCURVE",
"60 -46 OFFCURVE",
"40 -67 CURVE SMOOTH",
"-135 -250 OFFCURVE",
"-271 -352 OFFCURVE",
"-379 -375 CURVE SMOOTH"
);
},
{
closed = 1;
nodes = (
"1085 797 OFFCURVE",
"1029 807 OFFCURVE",
"870 850 CURVE",
"973 922 OFFCURVE",
"1085 964 OFFCURVE",
"1209 958 CURVE",
"1209 958 LINE SMOOTH",
"1209 958 OFFCURVE",
"1209 958 OFFCURVE",
"1209 958 CURVE",
"1211 958 OFFCURVE",
"1272 957 OFFCURVE",
"1296 926 CURVE SMOOTH",
"1306 913 OFFCURVE",
"1308 895 OFFCURVE",
"1303 873 CURVE",
"1288 828 OFFCURVE",
"1250 805 OFFCURVE",
"1145 800 CURVE SMOOTH"
);
}
);
width = 609;
},
{
layerId = "AF956123-A183-4F86-8774-5A4F8E572774";
paths = (
{
closed = 1;
nodes = (
"-281 -402 OFFCURVE",
"-134 -276 OFFCURVE",
"90 32 CURVE SMOOTH",
"193 172 OFFCURVE",
"273 312 OFFCURVE",
"331 416 CURVE SMOOTH",
"424 576 OFFCURVE",
"520 737 OFFCURVE",
"643 838 CURVE SMOOTH",
"738 914 OFFCURVE",
"853 958 OFFCURVE",
"959 958 CURVE SMOOTH",
"1053 958 OFFCURVE",
"1109 914 OFFCURVE",
"1100 856 CURVE SMOOTH",
"1095 822 OFFCURVE",
"1061 801 OFFCURVE",
"972 800 CURVE SMOOTH",
"872 799 OFFCURVE",
"771 828 OFFCURVE",
"595 874 CURVE SMOOTH",
"483 904 OFFCURVE",
"360 914 OFFCURVE",
"267 899 CURVE SMOOTH",
"231 894 OFFCURVE",
"217 857 OFFCURVE",
"232 827 CURVE SMOOTH",
"242 807 OFFCURVE",
"259 799 OFFCURVE",
"281 802 CURVE SMOOTH",
"332 810 OFFCURVE",
"436 815 OFFCURVE",
"570 779 CURVE SMOOTH",
"745 733 OFFCURVE",
"859 701 OFFCURVE",
"973 702 CURVE SMOOTH",
"1099 703 OFFCURVE",
"1183 747 OFFCURVE",
"1197 842 CURVE SMOOTH",
"1216 970 OFFCURVE",
"1103 1056 OFFCURVE",
"959 1056 CURVE SMOOTH",
"829 1056 OFFCURVE",
"691 1003 OFFCURVE",
"581 914 CURVE SMOOTH",
"445 802 OFFCURVE",
"339 626 OFFCURVE",
"246 464 CURVE SMOOTH",
"188 361 OFFCURVE",
"111 226 OFFCURVE",
"11 90 CURVE SMOOTH",
"-187 -182 OFFCURVE",
"-318 -304 OFFCURVE",
"-434 -304 CURVE SMOOTH",
"-444 -304 OFFCURVE",
"-448 -296 OFFCURVE",
"-449 -293 CURVE SMOOTH",
"-462 -255 OFFCURVE",
"-400 -201 OFFCURVE",
"-311 -159 CURVE SMOOTH",
"-207 -110 OFFCURVE",
"-43 -93 OFFCURVE",
"96 -77 CURVE SMOOTH",
"273 -57 OFFCURVE",
"362 -15 OFFCURVE",
"413 84 CURVE SMOOTH",
"425 106 OFFCURVE",
"432 129 OFFCURVE",
"436 148 CURVE SMOOTH",
"441 171 OFFCURVE",
"421 194 OFFCURVE",
"397 200 CURVE SMOOTH",
"372 206 OFFCURVE",
"346 193 OFFCURVE",
"340 168 CURVE SMOOTH",
"336 152 OFFCURVE",
"333 142 OFFCURVE",
"326 130 CURVE",
"293 64 OFFCURVE",
"234 37 OFFCURVE",
"83 21 CURVE SMOOTH",
"-55 6 OFFCURVE",
"-233 -14 OFFCURVE",
"-353 -70 CURVE SMOOTH",
"-480 -130 OFFCURVE",
"-577 -220 OFFCURVE",
"-542 -324 CURVE SMOOTH",
"-526 -371 OFFCURVE",
"-483 -402 OFFCURVE",
"-434 -402 CURVE SMOOTH"
);
}
);
width = 599;
},
{
associatedMasterId = "AF956123-A183-4F86-8774-5A4F8E572774";
layerId = "0BE16080-57B9-4621-8CB7-904A407A9D07";
name = "Feb 7 19, 00:58";
paths = (
{
closed = 1;
nodes = (
"-239 -402 OFFCURVE",
"8 -132 OFFCURVE",
"149 24 CURVE SMOOTH",
"276 164 OFFCURVE",
"379 302 OFFCURVE",
"456 405 CURVE SMOOTH",
"577 567 OFFCURVE",
"705 731 OFFCURVE",
"849 834 CURVE SMOOTH",
"1014 952 OFFCURVE",
"1157 958 OFFCURVE",
"1195 958 CURVE SMOOTH",
"1289 958 OFFCURVE",
"1318 921 OFFCURVE",
"1302 873 CURVE SMOOTH",
"1289 833 OFFCURVE",
"1249 801 OFFCURVE",
"1145 800 CURVE SMOOTH",
"1046 799 OFFCURVE",
"951 827 OFFCURVE",
"783 873 CURVE SMOOTH",
"650 911 OFFCURVE",
"531 907 OFFCURVE",
"460 897 CURVE SMOOTH",
"424 892 OFFCURVE",
"408 857 OFFCURVE",
"423 827 CURVE SMOOTH",
"432 807 OFFCURVE",
"451 799 OFFCURVE",
"473 802 CURVE SMOOTH",
"525 810 OFFCURVE",
"629 815 OFFCURVE",
"757 779 CURVE SMOOTH",
"924 733 OFFCURVE",
"1032 701 OFFCURVE",
"1146 702 CURVE SMOOTH",
"1273 703 OFFCURVE",
"1364 747 OFFCURVE",
"1395 842 CURVE SMOOTH",
"1437 970 OFFCURVE",
"1339 1056 OFFCURVE",
"1195 1056 CURVE SMOOTH",
"1065 1056 OFFCURVE",
"917 1003 OFFCURVE",
"792 914 CURVE SMOOTH",
"636 802 OFFCURVE",
"499 626 OFFCURVE",
"377 464 CURVE SMOOTH",
"301 361 OFFCURVE",
"200 226 OFFCURVE",
"76 90 CURVE SMOOTH",
"-170 -182 OFFCURVE",
"-322 -304 OFFCURVE",
"-438 -304 CURVE SMOOTH",
"-448 -304 OFFCURVE",
"-451 -296 OFFCURVE",
"-451 -293 CURVE",
"-457 -255 OFFCURVE",
"-386 -201 OFFCURVE",
"-289 -159 CURVE SMOOTH",
"-177 -110 OFFCURVE",
"-10 -95 OFFCURVE",
"132 -76 CURVE",
"132 -77 LINE",
"314 -57 OFFCURVE",
"409 -15 OFFCURVE",
"477 84 CURVE SMOOTH",
"493 106 OFFCURVE",
"504 129 OFFCURVE",
"512 148 CURVE SMOOTH",
"525 179 OFFCURVE",
"508 209 OFFCURVE",
"478 216 CURVE SMOOTH",
"453 222 OFFCURVE",
"431 208 OFFCURVE",
"421 184 CURVE",
"415 171 OFFCURVE",
"407 155 OFFCURVE",
"396 140 CURVE",
"339 56 OFFCURVE",
"250 38 OFFCURVE",
"157 25 CURVE SMOOTH",
"131 22 OFFCURVE",
"104 18 OFFCURVE",
"75 15 CURVE SMOOTH",
"-56 -1 OFFCURVE",
"-215 -20 OFFCURVE",
"-328 -69 CURVE SMOOTH",
"-445 -120 OFFCURVE",
"-566 -227 OFFCURVE",
"-547 -333 CURVE SMOOTH",
"-538 -383 OFFCURVE",
"-502 -402 OFFCURVE",
"-447 -402 CURVE SMOOTH"
);
}
);
width = 805;
}
);
unicode = 004A;
},
{
glyphname = K;
lastChange = "2019-02-06 23:06:16 +0000";
layers = (
{
layerId = master01;
paths = (
{
closed = 1;
nodes = (
"647 -71 OFFCURVE",
"739 -22 OFFCURVE",
"783 22 CURVE SMOOTH",
"786 25 OFFCURVE",
"786 31 OFFCURVE",
"783 34 CURVE SMOOTH",
"779 38 OFFCURVE",
"774 38 OFFCURVE",
"770 35 CURVE",
"729 -7 OFFCURVE",
"650 -50 OFFCURVE",
"601 -3 CURVE SMOOTH",
"580 16 OFFCURVE",
"575 42 OFFCURVE",
"575 67 CURVE SMOOTH",
"575 92 OFFCURVE",
"580 122 OFFCURVE",
"585 154 CURVE SMOOTH",
"591 186 OFFCURVE",
"596 222 OFFCURVE",
"596 260 CURVE SMOOTH",
"596 280 OFFCURVE",
"594 301 OFFCURVE",
"590 323 CURVE SMOOTH",
"581 373 OFFCURVE",
"558 416 OFFCURVE",
"532 451 CURVE",
"598 465 OFFCURVE",
"664 491 OFFCURVE",
"727 525 CURVE SMOOTH",
"822 575 OFFCURVE",
"913 642 OFFCURVE",
"990 709 CURVE SMOOTH",
"1023 737 OFFCURVE",
"1057 769 OFFCURVE",
"1089 794 CURVE SMOOTH",
"1105 807 OFFCURVE",
"1121 817 OFFCURVE",
"1136 825 CURVE",
"1160 836 OFFCURVE",
"1182 839 OFFCURVE",
"1205 831 CURVE",
"1228 820 OFFCURVE",
"1240 800 OFFCURVE",
"1240 776 CURVE SMOOTH",
"1240 764 OFFCURVE",
"1237 753 OFFCURVE",
"1234 744 CURVE",
"1233 740 OFFCURVE",
"1233 734 OFFCURVE",
"1239 732 CURVE",
"1243 731 OFFCURVE",
"1248 732 OFFCURVE",
"1250 737 CURVE SMOOTH",
"1252 742 OFFCURVE",
"1258 756 OFFCURVE",
"1258 776 CURVE SMOOTH",
"1258 808 OFFCURVE",
"1240 836 OFFCURVE",
"1212 847 CURVE SMOOTH",
"1183 859 OFFCURVE",
"1154 853 OFFCURVE",
"1128 841 CURVE SMOOTH",
"1103 829 OFFCURVE",
"1078 809 OFFCURVE",
"1053 788 CURVE SMOOTH",
"1028 767 OFFCURVE",
"1003 743 OFFCURVE",
"979 722 CURVE SMOOTH",
"902 657 OFFCURVE",
"812 590 OFFCURVE",
"719 541 CURVE SMOOTH",
"653 506 OFFCURVE",
"586 479 OFFCURVE",
"519 467 CURVE",
"495 497 OFFCURVE",
"464 525 OFFCURVE",
"432 547 CURVE SMOOTH",
"421 555 OFFCURVE",
"408 562 OFFCURVE",
"396 568 CURVE",
"454 646 OFFCURVE",
"511 719 OFFCURVE",
"569 780 CURVE SMOOTH",
"595 807 OFFCURVE",
"620 832 OFFCURVE",
"647 854 CURVE",
"722 839 OFFCURVE",
"785 828 OFFCURVE",
"819 826 CURVE SMOOTH",
"867 823 OFFCURVE",
"921 831 OFFCURVE",
"944 871 CURVE SMOOTH",
"956 892 OFFCURVE",
"955 923 OFFCURVE",
"943 942 CURVE SMOOTH",
"927 968 OFFCURVE",
"896 973 OFFCURVE",
"871 973 CURVE",
"814 971 OFFCURVE",
"760 952 OFFCURVE",
"708 921 CURVE SMOOTH",
"686 907 OFFCURVE",
"663 891 OFFCURVE",
"642 873 CURVE",
"637 874 OFFCURVE",
"632 875 OFFCURVE",
"628 876 CURVE",
"543 893 OFFCURVE",
"445 915 OFFCURVE",
"355 935 CURVE SMOOTH",
"304 946 OFFCURVE",
"264 951 OFFCURVE",
"231 951 CURVE SMOOTH",
"203 951 OFFCURVE",
"180 947 OFFCURVE",
"163 941 CURVE",
"137 933 OFFCURVE",
"121 918 OFFCURVE",
"113 904 CURVE SMOOTH",
"104 888 OFFCURVE",
"103 877 OFFCURVE",
"104 867 CURVE",
"105 862 OFFCURVE",
"109 858 OFFCURVE",
"114 859 CURVE",
"119 859 OFFCURVE",
"123 864 OFFCURVE",
"122 869 CURVE",
"121 893 OFFCURVE",
"135 907 OFFCURVE",
"150 916 CURVE SMOOTH",
"165 925 OFFCURVE",
"191 933 OFFCURVE",
"231 933 CURVE SMOOTH",
"262 933 OFFCURVE",
"301 928 OFFCURVE",
"351 917 CURVE SMOOTH",
"441 897 OFFCURVE",
"539 876 OFFCURVE",
"624 859 CURVE",
"576 816 OFFCURVE",
"529 765 OFFCURVE",
"482 708 CURVE SMOOTH",
"447 666 OFFCURVE",
"413 622 OFFCURVE",
"379 576 CURVE",
"359 585 OFFCURVE",
"335 591 OFFCURVE",
"313 591 CURVE SMOOTH",
"277 591 OFFCURVE",
"244 568 OFFCURVE",
"244 532 CURVE SMOOTH",
"244 494 OFFCURVE",
"278 480 OFFCURVE",
"298 466 CURVE",
"285 449 OFFCURVE",
"272 431 OFFCURVE",
"260 414 CURVE SMOOTH",
"167 288 OFFCURVE",
"93 186 OFFCURVE",
"26 115 CURVE SMOOTH",
"-7 80 OFFCURVE",
"-39 53 OFFCURVE",
"-70 34 CURVE SMOOTH",
"-101 16 OFFCURVE",
"-132 7 OFFCURVE",
"-164 7 CURVE SMOOTH",
"-171 7 OFFCURVE",
"-178 7 OFFCURVE",
"-185 8 CURVE SMOOTH",
"-217 12 OFFCURVE",
"-239 23 OFFCURVE",
"-254 39 CURVE SMOOTH",
"-268 55 OFFCURVE",
"-276 76 OFFCURVE",
"-276 103 CURVE SMOOTH",
"-276 115 OFFCURVE",
"-275 129 OFFCURVE",
"-271 143 CURVE",
"-270 148 OFFCURVE",
"-273 152 OFFCURVE",
"-278 153 CURVE SMOOTH",
"-283 154 OFFCURVE",
"-288 151 OFFCURVE",
"-289 147 CURVE",
"-292 131 OFFCURVE",
"-294 117 OFFCURVE",
"-294 103 CURVE SMOOTH",
"-294 73 OFFCURVE",
"-285 46 OFFCURVE",
"-267 26 CURVE SMOOTH",
"-249 7 OFFCURVE",
"-222 -6 OFFCURVE",
"-187 -10 CURVE SMOOTH",
"-179 -11 OFFCURVE",
"-172 -11 OFFCURVE",
"-164 -11 CURVE",
"-164 -11 OFFCURVE",
"-164 -11 OFFCURVE",
"-164 -11 CURVE",
"-128 -11 OFFCURVE",
"-94 -1 OFFCURVE",
"-61 19 CURVE SMOOTH",
"-11 48 OFFCURVE",
"38 97 OFFCURVE",
"92 162 CURVE SMOOTH",
"146 228 OFFCURVE",
"204 309 OFFCURVE",
"274 403 CURVE SMOOTH",
"288 422 OFFCURVE",
"302 440 OFFCURVE",
"315 459 CURVE",
"354 446 OFFCURVE",
"394 440 OFFCURVE",
"434 440 CURVE SMOOTH",
"460 440 OFFCURVE",
"486 442 OFFCURVE",
"512 447 CURVE",
"539 412 OFFCURVE",
"564 369 OFFCURVE",
"573 320 CURVE SMOOTH",
"577 299 OFFCURVE",
"578 279 OFFCURVE",
"578 260 CURVE SMOOTH",
"578 223 OFFCURVE",
"573 189 OFFCURVE",
"567 157 CURVE SMOOTH",
"562 125 OFFCURVE",
"557 95 OFFCURVE",
"557 67 CURVE SMOOTH",
"557 32 OFFCURVE",
"566 5 OFFCURVE",
"589 -16 CURVE SMOOTH"
);
},
{
closed = 1;
nodes = (
"289 490 OFFCURVE",
"262 509 OFFCURVE",
"262 532 CURVE SMOOTH",
"262 560 OFFCURVE",
"290 574 OFFCURVE",
"313 574 CURVE SMOOTH",
"333 574 OFFCURVE",
"351 568 OFFCURVE",
"368 561 CURVE",
"348 535 OFFCURVE",
"328 508 OFFCURVE",
"309 481 CURVE"
);
},
{
closed = 1;
nodes = (
"397 458 OFFCURVE",
"361 463 OFFCURVE",
"326 474 CURVE",
"346 501 OFFCURVE",
"365 528 OFFCURVE",
"385 554 CURVE",
"398 548 OFFCURVE",
"410 540 OFFCURVE",
"422 532 CURVE SMOOTH",
"438 521 OFFCURVE",
"469 497 OFFCURVE",
"499 463 CURVE",
"477 460 OFFCURVE",
"455 458 OFFCURVE",
"434 458 CURVE SMOOTH"
);
},
{
closed = 1;
nodes = (
"790 846 OFFCURVE",
"733 856 OFFCURVE",
"665 869 CURVE",
"682 882 OFFCURVE",
"700 895 OFFCURVE",
"717 905 CURVE SMOOTH",
"768 936 OFFCURVE",
"819 954 OFFCURVE",
"871 955 CURVE",
"895 954 OFFCURVE",
"916 951 OFFCURVE",
"928 933 CURVE",
"940 913 OFFCURVE",
"935 885 OFFCURVE",
"921 869 CURVE",
"895 843 OFFCURVE",
"853 842 OFFCURVE",
"821 844 CURVE SMOOTH"
);
}
);
width = 898;
},
{
layerId = "AF956123-A183-4F86-8774-5A4F8E572774";
paths = (
{
closed = 1;
nodes = (
"49 -11 OFFCURVE",
"115 63 OFFCURVE",
"180 162 CURVE SMOOTH",
"227 235 OFFCURVE",
"328 423 OFFCURVE",
"362 480 CURVE SMOOTH",
"404 553 OFFCURVE",
"478 689 OFFCURVE",
"548 780 CURVE SMOOTH",
"584 825 OFFCURVE",
"625 872 OFFCURVE",
"674 905 CURVE SMOOTH",
"719 936 OFFCURVE",
"767 956 OFFCURVE",
"819 956 CURVE SMOOTH",
"878 956 OFFCURVE",
"913 910 OFFCURVE",
"884 869 CURVE SMOOTH",
"865 841 OFFCURVE",
"821 842 OFFCURVE",
"789 844 CURVE SMOOTH",
"737 847 OFFCURVE",
"623 870 OFFCURVE",
"593 876 CURVE SMOOTH",
"482 898 OFFCURVE",
"228 951 OFFCURVE",
"145 951 CURVE SMOOTH",
"51 951 OFFCURVE",
"-11 903 OFFCURVE",
"-6 829 CURVE SMOOTH",
"-4 802 OFFCURVE",
"18 777 OFFCURVE",
"46 781 CURVE SMOOTH",
"73 785 OFFCURVE",
"103 807 OFFCURVE",
"93 833 CURVE SMOOTH",
"89 843 OFFCURVE",
"105 853 OFFCURVE",
"145 853 CURVE SMOOTH",
"218 853 OFFCURVE",
"462 802 OFFCURVE",
"574 780 CURVE SMOOTH",
"604 774 OFFCURVE",
"724 750 OFFCURVE",
"783 746 CURVE SMOOTH",
"859 741 OFFCURVE",
"924 755 OFFCURVE",
"965 813 CURVE SMOOTH",
"1041 922 OFFCURVE",
"954 1054 OFFCURVE",
"819 1054 CURVE SMOOTH",
"752 1054 OFFCURVE",
"684 1031 OFFCURVE",
"619 986 CURVE SMOOTH",
"559 946 OFFCURVE",
"508 887 OFFCURVE",
"471 841 CURVE SMOOTH",
"396 743 OFFCURVE",
"318 601 OFFCURVE",
"277 529 CURVE SMOOTH",
"228 443 OFFCURVE",
"176 344 OFFCURVE",
"94 215 CURVE SMOOTH",
"37 123 OFFCURVE",
"-1 87 OFFCURVE",
"-46 87 CURVE SMOOTH",
"-99 87 OFFCURVE",
"-123 106 OFFCURVE",
"-130 144 CURVE SMOOTH",
"-132 156 OFFCURVE",
"-132 166 OFFCURVE",
"-132 178 CURVE SMOOTH",
"-132 206 OFFCURVE",
"-167 213 OFFCURVE",
"-181 213 CURVE SMOOTH",
"-205 213 OFFCURVE",
"-228 199 OFFCURVE",
"-230 179 CURVE SMOOTH",
"-232 160 OFFCURVE",
"-230 145 OFFCURVE",
"-227 127 CURVE SMOOTH",
"-211 37 OFFCURVE",
"-142 -11 OFFCURVE",
"-46 -11 CURVE SMOOTH"
);
},
{
closed = 1;
nodes = (
"670 -65 OFFCURVE",
"744 -36 OFFCURVE",
"795 6 CURVE SMOOTH",
"819 26 OFFCURVE",
"820 58 OFFCURVE",
"800 79 CURVE SMOOTH",
"782 98 OFFCURVE",
"754 99 OFFCURVE",
"732 81 CURVE SMOOTH",
"698 53 OFFCURVE",
"674 52 OFFCURVE",
"645 72 CURVE SMOOTH",
"623 87 OFFCURVE",
"622 101 OFFCURVE",
"619 163 CURVE SMOOTH",
"618 187 OFFCURVE",
"616 240 OFFCURVE",
"609 271 CURVE SMOOTH",
"594 359 OFFCURVE",
"557 430 OFFCURVE",
"485 505 CURVE SMOOTH",
"400 596 OFFCURVE",
"305 663 OFFCURVE",
"221 663 CURVE SMOOTH",
"117 663 OFFCURVE",
"39 583 OFFCURVE",
"57 479 CURVE SMOOTH",
"78 359 OFFCURVE",
"206 296 OFFCURVE",
"349 296 CURVE SMOOTH",
"549 296 OFFCURVE",
"793 407 OFFCURVE",
"940 565 CURVE SMOOTH",
"995 625 OFFCURVE",
"1054 699 OFFCURVE",
"1139 664 CURVE SMOOTH",
"1178 647 OFFCURVE",
"1192 624 OFFCURVE",
"1194 586 CURVE SMOOTH",
"1195 551 OFFCURVE",
"1194 515 OFFCURVE",
"1242 515 CURVE SMOOTH",
"1288 515 OFFCURVE",
"1300 559 OFFCURVE",
"1289 619 CURVE SMOOTH",
"1279 678 OFFCURVE",
"1244 726 OFFCURVE",
"1177 754 CURVE SMOOTH",
"1024 818 OFFCURVE",
"921 689 OFFCURVE",
"868 632 CURVE SMOOTH",
"744 499 OFFCURVE",
"528 394 OFFCURVE",
"349 394 CURVE SMOOTH",
"285 394 OFFCURVE",
"168 415 OFFCURVE",
"154 496 CURVE SMOOTH",
"144 553 OFFCURVE",
"197 565 OFFCURVE",
"221 565 CURVE SMOOTH",
"278 565 OFFCURVE",
"361 494 OFFCURVE",
"414 438 CURVE SMOOTH",
"470 379 OFFCURVE",
"500 328 OFFCURVE",
"512 255 CURVE SMOOTH",
"517 226 OFFCURVE",
"521 166 OFFCURVE",
"521 158 CURVE SMOOTH",
"523 91 OFFCURVE",
"523 37 OFFCURVE",
"589 -9 CURVE SMOOTH"
);
}
);
width = 993;
},
{
associatedMasterId = "AF956123-A183-4F86-8774-5A4F8E572774";
layerId = "0CCE62EE-FDDC-4ED4-9B35-AD17DFA46A46";
name = "Dec 23 18, 22:35";
paths = (
{
closed = 1;
nodes = (
"-213 187 OFFCURVE",
"-230 208 OFFCURVE",
"-257 212 CURVE SMOOTH",
"-284 216 OFFCURVE",
"-310 201 OFFCURVE",
"-315 179 CURVE SMOOTH",
"-319 160 OFFCURVE",
"-321 144 OFFCURVE",
"-321 127 CURVE SMOOTH",
"-321 37 OFFCURVE",
"-260 -11 OFFCURVE",
"-164 -11 CURVE SMOOTH",
"-69 -11 OFFCURVE",
"10 63 OFFCURVE",
"92 162 CURVE SMOOTH",
"139 219 OFFCURVE",
"255 377 OFFCURVE",
"330 480 CURVE SMOOTH",
"385 553 OFFCURVE",
"484 690 OFFCURVE",
"569 780 CURVE SMOOTH",
"613 825 OFFCURVE",
"664 873 OFFCURVE",
"717 905 CURVE SMOOTH",
"768 936 OFFCURVE",
"819 956 OFFCURVE",
"871 956 CURVE SMOOTH",
"930 956 OFFCURVE",
"957 910 OFFCURVE",
"921 869 CURVE SMOOTH",
"897 841 OFFCURVE",
"853 842 OFFCURVE",
"821 844 CURVE SMOOTH",
"770 847 OFFCURVE",
"667 869 OFFCURVE",
"631 876 CURVE SMOOTH",
"524 898 OFFCURVE",
"280 951 OFFCURVE",
"196 951 CURVE SMOOTH",
"94 951 OFFCURVE",
"21 909 OFFCURVE",
"26 821 CURVE",
"29 794 OFFCURVE",
"49 770 OFFCURVE",
"77 774 CURVE SMOOTH",
"104 778 OFFCURVE",
"127 798 OFFCURVE",
"124 826 CURVE SMOOTH",
"122 846 OFFCURVE",
"147 853 OFFCURVE",
"196 853 CURVE SMOOTH",
"268 853 OFFCURVE",
"508 801 OFFCURVE",
"612 780 CURVE SMOOTH",
"660 770 OFFCURVE",
"788 746 OFFCURVE",
"815 744 CURVE SMOOTH",
"888 739 OFFCURVE",
"951 754 OFFCURVE",
"995 805 CURVE SMOOTH",
"1087 910 OFFCURVE",
"1013 1054 OFFCURVE",
"871 1054 CURVE SMOOTH",
"806 1054 OFFCURVE",
"737 1032 OFFCURVE",
"666 989 CURVE SMOOTH",
"604 951 OFFCURVE",
"544 895 OFFCURVE",
"498 848 CURVE SMOOTH",
"412 757 OFFCURVE",
"315 624 OFFCURVE",
"251 538 CURVE SMOOTH",
"161 416 OFFCURVE",
"63 283 OFFCURVE",
"17 225 CURVE",
"-67 124 OFFCURVE",
"-119 87 OFFCURVE",
"-164 87 CURVE SMOOTH",
"-213 87 OFFCURVE",
"-223 99 OFFCURVE",
"-223 127 CURVE SMOOTH",
"-223 138 OFFCURVE",
"-222 146 OFFCURVE",
"-219 160 CURVE SMOOTH"
);
}
);
width = 600;
},
{
associatedMasterId = "AF956123-A183-4F86-8774-5A4F8E572774";
layerId = "53F0FCC5-DD83-481B-93BA-7C6E631EBF5D";
name = "Feb 7 19, 01:01";
paths = (
{
closed = 1;
nodes = (
"21 -11 OFFCURVE",
"100 63 OFFCURVE",
"182 162 CURVE SMOOTH",
"231 221 OFFCURVE",
"342 374 OFFCURVE",
"420 480 CURVE SMOOTH",
"475 553 OFFCURVE",
"573 689 OFFCURVE",
"659 780 CURVE SMOOTH",
"703 825 OFFCURVE",
"752 872 OFFCURVE",
"807 905 CURVE SMOOTH",
"858 936 OFFCURVE",
"909 956 OFFCURVE",
"961 956 CURVE SMOOTH",
"1020 956 OFFCURVE",
"1047 910 OFFCURVE",
"1011 869 CURVE SMOOTH",
"987 841 OFFCURVE",
"943 842 OFFCURVE",
"911 844 CURVE SMOOTH",
"860 847 OFFCURVE",
"750 870 OFFCURVE",
"721 876 CURVE SMOOTH",
"614 898 OFFCURVE",
"369 951 OFFCURVE",
"286 951 CURVE SMOOTH",
"184 951 OFFCURVE",
"109 909 OFFCURVE",
"116 821 CURVE SMOOTH",
"118 794 OFFCURVE",
"139 770 OFFCURVE",
"167 774 CURVE SMOOTH",
"194 778 OFFCURVE",
"217 798 OFFCURVE",
"214 826 CURVE SMOOTH",
"212 846 OFFCURVE",
"237 853 OFFCURVE",
"286 853 CURVE SMOOTH",
"358 853 OFFCURVE",
"598 801 OFFCURVE",
"702 780 CURVE SMOOTH",
"750 770 OFFCURVE",
"879 746 OFFCURVE",
"905 744 CURVE SMOOTH",
"978 739 OFFCURVE",
"1041 754 OFFCURVE",
"1085 805 CURVE SMOOTH",
"1177 910 OFFCURVE",
"1103 1054 OFFCURVE",
"961 1054 CURVE SMOOTH",
"896 1054 OFFCURVE",
"827 1032 OFFCURVE",
"756 989 CURVE SMOOTH",
"694 951 OFFCURVE",
"633 895 OFFCURVE",
"588 848 CURVE SMOOTH",
"502 757 OFFCURVE",
"412 634 OFFCURVE",
"341 538 CURVE SMOOTH",
"251 416 OFFCURVE",
"150 279 OFFCURVE",
"107 225 CURVE SMOOTH",
"23 124 OFFCURVE",
"-29 87 OFFCURVE",
"-74 87 CURVE SMOOTH",
"-123 87 OFFCURVE",
"-133 99 OFFCURVE",
"-133 127 CURVE SMOOTH",
"-133 138 OFFCURVE",
"-132 146 OFFCURVE",
"-129 160 CURVE SMOOTH",
"-123 187 OFFCURVE",
"-140 208 OFFCURVE",
"-167 212 CURVE SMOOTH",
"-194 216 OFFCURVE",
"-220 201 OFFCURVE",
"-225 179 CURVE SMOOTH",
"-229 160 OFFCURVE",
"-231 145 OFFCURVE",
"-231 127 CURVE SMOOTH",
"-231 37 OFFCURVE",
"-170 -11 OFFCURVE",
"-74 -11 CURVE SMOOTH"
);
},
{
closed = 1;
nodes = (
"632 -65 OFFCURVE",
"712 -36 OFFCURVE",
"770 6 CURVE SMOOTH",
"795 24 OFFCURVE",
"795 57 OFFCURVE",
"775 78 CURVE SMOOTH",
"757 97 OFFCURVE",
"730 97 OFFCURVE",
"707 80 CURVE SMOOTH",
"671 55 OFFCURVE",
"642 52 OFFCURVE",
"622 68 CURVE",
"610 77 OFFCURVE",
"608 78 OFFCURVE",
"619 144 CURVE SMOOTH",
"624 181 OFFCURVE",
"629 225 OFFCURVE",
"629 255 CURVE SMOOTH",
"629 345 OFFCURVE",
"603 419 OFFCURVE",
"543 497 CURVE SMOOTH",
"470 592 OFFCURVE",
"381 663 OFFCURVE",
"294 663 CURVE SMOOTH",
"196 663 OFFCURVE",
"117 594 OFFCURVE",
"117 496 CURVE SMOOTH",
"117 367 OFFCURVE",
"243 296 OFFCURVE",
"392 296 CURVE SMOOTH",
"591 296 OFFCURVE",
"850 407 OFFCURVE",
"1019 560 CURVE SMOOTH",
"1084 619 OFFCURVE",
"1164 700 OFFCURVE",
"1244 665 CURVE SMOOTH",
"1267 655 OFFCURVE",
"1274 644 OFFCURVE",
"1274 619 CURVE SMOOTH",
"1274 607 OFFCURVE",
"1269 589 OFFCURVE",
"1268 586 CURVE SMOOTH",
"1260 563 OFFCURVE",
"1261 528 OFFCURVE",
"1294 518 CURVE SMOOTH",
"1318 511 OFFCURVE",
"1346 517 OFFCURVE",
"1357 544 CURVE",
"1361 552 OFFCURVE",
"1372 580 OFFCURVE",
"1372 619 CURVE SMOOTH",
"1372 678 OFFCURVE",
"1346 726 OFFCURVE",
"1284 754 CURVE SMOOTH",
"1142 818 OFFCURVE",
"1016 689 OFFCURVE",
"953 632 CURVE SMOOTH",
"806 499 OFFCURVE",
"571 394 OFFCURVE",
"392 394 CURVE SMOOTH",
"328 394 OFFCURVE",
"215 415 OFFCURVE",
"215 496 CURVE SMOOTH",
"215 553 OFFCURVE",
"270 565 OFFCURVE",
"294 565 CURVE SMOOTH",
"351 565 OFFCURVE",
"422 494 OFFCURVE",
"465 438 CURVE SMOOTH",
"510 379 OFFCURVE",
"531 328 OFFCURVE",
"531 255 CURVE SMOOTH",
"531 220 OFFCURVE",
"526 188 OFFCURVE",
"522 158 CURVE SMOOTH",
"513 91 OFFCURVE",
"503 37 OFFCURVE",
"561 -9 CURVE SMOOTH"
);
}
);
width = 1072;
}
);
unicode = 004B;
},
{
glyphname = L;
lastChange = "2019-02-07 00:33:45 +0000";
layers = (
{
layerId = master01;
paths = (
{
closed = 1;
nodes = (
"773 -243 OFFCURVE",
"826 -230 OFFCURVE",
"856 -184 CURVE",
"880 -142 OFFCURVE",
"874 -98 OFFCURVE",
"845 -57 CURVE SMOOTH",
"832 -39 OFFCURVE",
"819 -30 OFFCURVE",
"818 -29 CURVE",
"814 -26 OFFCURVE",
"809 -27 OFFCURVE",
"806 -31 CURVE SMOOTH",
"803 -35 OFFCURVE",
"803 -40 OFFCURVE",
"807 -44 CURVE",
"809 -45 OFFCURVE",
"820 -54 OFFCURVE",
"832 -69 CURVE",
"855 -101 OFFCURVE",
"861 -138 OFFCURVE",
"841 -175 CURVE",
"817 -212 OFFCURVE",
"773 -224 OFFCURVE",
"727 -225 CURVE SMOOTH",
"676 -225 OFFCURVE",
"615 -209 OFFCURVE",
"549 -172 CURVE SMOOTH",
"452 -118 OFFCURVE",
"398 -58 OFFCURVE",
"351 -6 CURVE",
"345 0 OFFCURVE",
"340 7 OFFCURVE",
"334 13 CURVE",
"373 41 OFFCURVE",
"414 77 OFFCURVE",
"456 120 CURVE SMOOTH",
"519 185 OFFCURVE",
"585 267 OFFCURVE",
"655 361 CURVE SMOOTH",
"756 497 OFFCURVE",
"842 634 OFFCURVE",
"934 738 CURVE SMOOTH",
"965 773 OFFCURVE",
"996 804 OFFCURVE",
"1029 830 CURVE",
"1053 821 OFFCURVE",
"1074 813 OFFCURVE",
"1093 806 CURVE SMOOTH",
"1130 793 OFFCURVE",
"1162 784 OFFCURVE",
"1204 781 CURVE SMOOTH",
"1229 780 OFFCURVE",
"1255 781 OFFCURVE",
"1281 793 CURVE SMOOTH",
"1304 804 OFFCURVE",
"1317 821 OFFCURVE",
"1323 835 CURVE",
"1328 848 OFFCURVE",
"1334 874 OFFCURVE",
"1317 901 CURVE",
"1300 925 OFFCURVE",
"1272 934 OFFCURVE",
"1241 933 CURVE SMOOTH",
"1177 930 OFFCURVE",
"1120 911 OFFCURVE",
"1068 879 CURVE SMOOTH",
"1054 870 OFFCURVE",
"1040 861 OFFCURVE",
"1026 850 CURVE",
"1006 858 OFFCURVE",
"983 866 OFFCURVE",
"957 874 CURVE SMOOTH",
"923 885 OFFCURVE",
"891 889 OFFCURVE",
"862 889 CURVE SMOOTH",
"777 889 OFFCURVE",
"719 855 OFFCURVE",
"718 854 CURVE",
"714 852 OFFCURVE",
"712 846 OFFCURVE",
"715 842 CURVE",
"717 838 OFFCURVE",
"722 836 OFFCURVE",
"727 839 CURVE",
"730 840 OFFCURVE",
"785 871 OFFCURVE",
"862 871 CURVE SMOOTH",
"889 871 OFFCURVE",
"919 867 OFFCURVE",
"951 857 CURVE SMOOTH",
"973 850 OFFCURVE",
"992 843 OFFCURVE",
"1009 837 CURVE",
"954 791 OFFCURVE",
"903 732 OFFCURVE",
"852 665 CURVE SMOOTH",
"783 576 OFFCURVE",
"716 473 OFFCURVE",
"641 372 CURVE SMOOTH",
"548 246 OFFCURVE",
"462 144 OFFCURVE",
"381 73 CURVE SMOOTH",
"361 56 OFFCURVE",
"341 40 OFFCURVE",
"322 26 CURVE",
"308 40 OFFCURVE",
"295 53 OFFCURVE",
"281 66 CURVE",
"235 103 OFFCURVE",
"179 127 OFFCURVE",
"116 129 CURVE SMOOTH",
"76 129 OFFCURVE",
"33 112 OFFCURVE",
"18 71 CURVE SMOOTH",
"-12 -15 OFFCURVE",
"85 -54 OFFCURVE",
"159 -54 CURVE SMOOTH",
"196 -54 OFFCURVE",
"234 -43 OFFCURVE",
"273 -24 CURVE",
"288 -16 OFFCURVE",
"304 -8 OFFCURVE",
"319 3 CURVE",
"336 -16 OFFCURVE",
"355 -37 OFFCURVE",
"375 -59 CURVE SMOOTH",
"415 -101 OFFCURVE",
"465 -146 OFFCURVE",
"540 -188 CURVE SMOOTH",
"608 -226 OFFCURVE",
"673 -243 OFFCURVE",
"727 -243 CURVE SMOOTH"
);
},
{
closed = 1;
nodes = (
"111 -36 OFFCURVE",
"37 -20 OFFCURVE",
"30 39 CURVE",
"30 86 OFFCURVE",
"69 110 OFFCURVE",
"116 111 CURVE SMOOTH",
"171 111 OFFCURVE",
"225 87 OFFCURVE",
"269 52 CURVE SMOOTH",
"282 41 OFFCURVE",
"294 29 OFFCURVE",
"307 16 CURVE",
"293 7 OFFCURVE",
"279 -1 OFFCURVE",
"265 -8 CURVE SMOOTH",
"228 -26 OFFCURVE",
"193 -36 OFFCURVE",
"159 -36 CURVE SMOOTH"
);
},
{
closed = 1;
nodes = (
"1165 802 OFFCURVE",
"1135 810 OFFCURVE",
"1099 823 CURVE SMOOTH",
"1083 829 OFFCURVE",
"1066 835 OFFCURVE",
"1046 843 CURVE",
"1056 850 OFFCURVE",
"1067 857 OFFCURVE",
"1077 864 CURVE",
"1128 894 OFFCURVE",
"1181 913 OFFCURVE",
"1242 915 CURVE SMOOTH",
"1263 915 OFFCURVE",
"1287 910 OFFCURVE",
"1302 891 CURVE",
"1316 868 OFFCURVE",
"1312 843 OFFCURVE",
"1295 825 CURVE SMOOTH",
"1275 804 OFFCURVE",
"1244 798 OFFCURVE",
"1205 799 CURVE"
);
}
);
width = 833;
},
{
layerId = "AF956123-A183-4F86-8774-5A4F8E572774";
paths = (
{
closed = 1;
nodes = (
"1075 -243 OFFCURVE",
"1160 -203 OFFCURVE",
"1198 -119 CURVE",
"1240 -15 OFFCURVE",
"1191 87 OFFCURVE",
"1094 169 CURVE SMOOTH",
"1073 187 OFFCURVE",
"1046 181 OFFCURVE",
"1031 160 CURVE SMOOTH",
"1015 138 OFFCURVE",
"1014 110 OFFCURVE",
"1037 89 CURVE SMOOTH",
"1068 61 OFFCURVE",
"1136 -7 OFFCURVE",
"1108 -80 CURVE",
"1085 -128 OFFCURVE",
"1032 -145 OFFCURVE",
"968 -145 CURVE SMOOTH",
"799 -145 OFFCURVE",
"651 -20 OFFCURVE",
"560 51 CURVE SMOOTH",
"450 139 OFFCURVE",
"334 232 OFFCURVE",
"153 232 CURVE SMOOTH",
"76 232 OFFCURVE",
"9 208 OFFCURVE",
"-9 130 CURVE SMOOTH",
"-39 -8 OFFCURVE",
"155 -54 OFFCURVE",
"232 -54 CURVE SMOOTH",
"383 -54 OFFCURVE",
"488 4 OFFCURVE",
"572 89 CURVE SMOOTH",
"645 165 OFFCURVE",
"702 262 OFFCURVE",
"759 361 CURVE SMOOTH",
"786 409 OFFCURVE",
"812 458 OFFCURVE",
"836 505 CURVE SMOOTH",
"883 593 OFFCURVE",
"926 675 OFFCURVE",
"971 738 CURVE SMOOTH",
"1011 794 OFFCURVE",
"1054 837 OFFCURVE",
"1092 863 CURVE SMOOTH",
"1138 894 OFFCURVE",
"1192 915 OFFCURVE",
"1245 915 CURVE SMOOTH",
"1271 915 OFFCURVE",
"1294 910 OFFCURVE",
"1312 891 CURVE",
"1330 868 OFFCURVE",
"1331 843 OFFCURVE",
"1317 825 CURVE SMOOTH",
"1301 804 OFFCURVE",
"1271 798 OFFCURVE",
"1232 799 CURVE",
"1166 804 OFFCURVE",
"1097 831 OFFCURVE",
"1046 849 CURVE SMOOTH",
"984 871 OFFCURVE",
"936 889 OFFCURVE",
"863 889 CURVE SMOOTH",
"737 889 OFFCURVE",
"666 844 OFFCURVE",
"663 843 CURVE",
"646 836 OFFCURVE",
"636 820 OFFCURVE",
"636 802 CURVE SMOOTH",
"636 769 OFFCURVE",
"663 738 OFFCURVE",
"713 760 CURVE SMOOTH",
"740 772 OFFCURVE",
"792 791 OFFCURVE",
"863 791 CURVE SMOOTH",
"918 791 OFFCURVE",
"950 779 OFFCURVE",
"1013 757 CURVE SMOOTH",
"1063 739 OFFCURVE",
"1146 707 OFFCURVE",
"1227 701 CURVE",
"1298 699 OFFCURVE",
"1357 716 OFFCURVE",
"1395 766 CURVE",
"1394 765 LINE",
"1439 822 OFFCURVE",
"1433 899 OFFCURVE",
"1386 955 CURVE SMOOTH",
"1351 995 OFFCURVE",
"1302 1013 OFFCURVE",
"1245 1013 CURVE SMOOTH",
"1177 1013 OFFCURVE",
"1102 988 OFFCURVE",
"1037 944 CURVE",
"989 911 OFFCURVE",
"935 856 OFFCURVE",
"891 795 CURVE SMOOTH",
"842 726 OFFCURVE",
"796 638 OFFCURVE",
"749 550 CURVE SMOOTH",
"724 501 OFFCURVE",
"698 453 OFFCURVE",
"674 409 CURVE SMOOTH",
"617 311 OFFCURVE",
"567 225 OFFCURVE",
"502 157 CURVE SMOOTH",
"424 79 OFFCURVE",
"341 44 OFFCURVE",
"232 44 CURVE SMOOTH",
"156 44 OFFCURVE",
"82 81 OFFCURVE",
"87 109 CURVE",
"91 125 OFFCURVE",
"103 134 OFFCURVE",
"153 134 CURVE SMOOTH",
"300 134 OFFCURVE",
"389 62 OFFCURVE",
"499 -26 CURVE SMOOTH",
"589 -96 OFFCURVE",
"763 -243 OFFCURVE",
"968 -243 CURVE SMOOTH"
);
}
);
width = 996;
},
{
associatedMasterId = "AF956123-A183-4F86-8774-5A4F8E572774";
layerId = "ED98DBDC-7AE2-4E76-8D04-2DCAD9AC12CD";
name = "Dec 23 18, 23:10";
paths = (
{
closed = 0;
nodes = (
"882 9 LINE",
"885 7 OFFCURVE",
"899 -4 OFFCURVE",
"914 -24 CURVE",
"944 -65 OFFCURVE",
"952 -113 OFFCURVE",
"926 -160 CURVE",
"895 -208 OFFCURVE",
"839 -225 OFFCURVE",
"775 -225 CURVE SMOOTH",
"651 -225 OFFCURVE",
"553 -160 OFFCURVE",
"464 -85 CURVE SMOOTH",
"347 14 OFFCURVE",
"246 200 OFFCURVE",
"55 200 CURVE SMOOTH",
"-12 200 OFFCURVE",
"-73 179 OFFCURVE",
"-100 112 CURVE SMOOTH",
"-148 -8 OFFCURVE",
"26 -54 OFFCURVE",
"103 -54 CURVE SMOOTH",
"254 -54 OFFCURVE",
"355 17 OFFCURVE",
"456 120 CURVE SMOOTH",
"519 185 OFFCURVE",
"585 267 OFFCURVE",
"655 361 CURVE SMOOTH",
"758 500 OFFCURVE",
"848 641 OFFCURVE",
"934 738 CURVE SMOOTH",
"984 794 OFFCURVE",
"1034 837 OFFCURVE",
"1077 863 CURVE SMOOTH",
"1128 894 OFFCURVE",
"1186 915 OFFCURVE",
"1239 915 CURVE SMOOTH",
"1265 915 OFFCURVE",
"1287 910 OFFCURVE",
"1302 891 CURVE",
"1316 868 OFFCURVE",
"1312 843 OFFCURVE",
"1295 825 CURVE SMOOTH",
"1275 804 OFFCURVE",
"1244 798 OFFCURVE",
"1205 799 CURVE",
"1165 802 OFFCURVE",
"1136 810 OFFCURVE",
"1098 823 CURVE SMOOTH",
"1000 856 OFFCURVE",
"951 889 OFFCURVE",
"852 889 CURVE SMOOTH",
"726 889 OFFCURVE",
"624 835 OFFCURVE",
"622 833 CURVE"
);
}
);
width = 600;
},
{
associatedMasterId = "AF956123-A183-4F86-8774-5A4F8E572774";
layerId = "C57336A3-DF8B-4E07-8E06-93DE6816C468";
name = "Feb 7 19, 01:06";
paths = (
{
closed = 1;
nodes = (
"1029 -243 OFFCURVE",
"1113 -206 OFFCURVE",
"1161 -131 CURVE",
"1220 -28 OFFCURVE",
"1179 100 OFFCURVE",
"1086 171 CURVE SMOOTH",
"1065 187 OFFCURVE",
"1040 182 OFFCURVE",
"1026 162 CURVE SMOOTH",
"1011 140 OFFCURVE",
"1009 116 OFFCURVE",
"1030 95 CURVE SMOOTH",
"1054 71 OFFCURVE",
"1121 -1 OFFCURVE",
"1077 -80 CURVE",
"1046 -128 OFFCURVE",
"990 -145 OFFCURVE",
"926 -145 CURVE SMOOTH",
"757 -145 OFFCURVE",
"631 -20 OFFCURVE",
"553 51 CURVE SMOOTH",
"458 139 OFFCURVE",
"358 232 OFFCURVE",
"177 232 CURVE SMOOTH",
"100 232 OFFCURVE",
"29 208 OFFCURVE",
"-2 130 CURVE SMOOTH",
"-57 -8 OFFCURVE",
"129 -54 OFFCURVE",
"206 -54 CURVE SMOOTH",
"357 -54 OFFCURVE",
"472 4 OFFCURVE",
"571 89 CURVE SMOOTH",
"658 165 OFFCURVE",
"732 262 OFFCURVE",
"806 361 CURVE SMOOTH",
"842 409 OFFCURVE",
"876 458 OFFCURVE",
"909 505 CURVE SMOOTH",
"971 593 OFFCURVE",
"1029 675 OFFCURVE",
"1085 738 CURVE SMOOTH",
"1135 794 OFFCURVE",
"1185 837 OFFCURVE",
"1228 863 CURVE SMOOTH",
"1279 894 OFFCURVE",
"1337 915 OFFCURVE",
"1390 915 CURVE SMOOTH",
"1416 915 OFFCURVE",
"1438 910 OFFCURVE",
"1453 891 CURVE",
"1467 868 OFFCURVE",
"1463 843 OFFCURVE",
"1446 825 CURVE SMOOTH",
"1426 804 OFFCURVE",
"1395 798 OFFCURVE",
"1356 799 CURVE",
"1291 804 OFFCURVE",
"1227 831 OFFCURVE",
"1179 849 CURVE SMOOTH",
"1121 871 OFFCURVE",
"1076 889 OFFCURVE",
"1003 889 CURVE SMOOTH",
"877 889 OFFCURVE",
"798 844 OFFCURVE",
"795 843 CURVE SMOOTH",
"771 833 OFFCURVE",
"762 802 OFFCURVE",
"778 779 CURVE",
"789 758 OFFCURVE",
"811 757 OFFCURVE",
"842 764 CURVE SMOOTH",
"851 766 OFFCURVE",
"967 791 OFFCURVE",
"1003 791 CURVE SMOOTH",
"1057 791 OFFCURVE",
"1086 780 OFFCURVE",
"1144 757 CURVE",
"1278 710 OFFCURVE",
"1288 705 OFFCURVE",
"1351 701 CURVE",
"1419 699 OFFCURVE",
"1476 715 OFFCURVE",
"1517 757 CURVE SMOOTH",
"1567 810 OFFCURVE",
"1574 886 OFFCURVE",
"1534 947 CURVE",
"1500 993 OFFCURVE",
"1449 1013 OFFCURVE",
"1390 1013 CURVE SMOOTH",
"1323 1013 OFFCURVE",
"1246 989 OFFCURVE",
"1177 947 CURVE SMOOTH",
"1126 916 OFFCURVE",
"1066 863 OFFCURVE",
"1012 803 CURVE SMOOTH",
"952 736 OFFCURVE",
"891 649 OFFCURVE",
"829 561 CURVE SMOOTH",
"801 521 OFFCURVE",
"772 480 OFFCURVE",
"728 420 CURVE SMOOTH",
"654 321 OFFCURVE",
"586 233 OFFCURVE",
"507 163 CURVE SMOOTH",
"410 80 OFFCURVE",
"318 44 OFFCURVE",
"206 44 CURVE SMOOTH",
"136 44 OFFCURVE",
"80 71 OFFCURVE",
"89 94 CURVE SMOOTH",
"100 121 OFFCURVE",
"123 134 OFFCURVE",
"177 134 CURVE SMOOTH",
"319 134 OFFCURVE",
"393 68 OFFCURVE",
"487 -21 CURVE SMOOTH",
"596 -124 OFFCURVE",
"735 -243 OFFCURVE",
"926 -243 CURVE SMOOTH"
);
}
);
width = 1131;
}
);
unicode = 004C;
},
{
glyphname = Lslash;
lastChange = "2018-12-25 11:47:40 +0000";
layers = (
{
layerId = master01;
paths = (
{
closed = 1;
nodes = (
"773 -243 OFFCURVE",
"826 -230 OFFCURVE",
"856 -184 CURVE",
"880 -142 OFFCURVE",
"874 -98 OFFCURVE",
"845 -57 CURVE SMOOTH",
"832 -39 OFFCURVE",
"819 -30 OFFCURVE",
"818 -29 CURVE",
"814 -26 OFFCURVE",
"809 -27 OFFCURVE",
"806 -31 CURVE SMOOTH",
"803 -35 OFFCURVE",
"803 -40 OFFCURVE",
"807 -44 CURVE",
"809 -45 OFFCURVE",
"820 -54 OFFCURVE",
"832 -69 CURVE",
"855 -101 OFFCURVE",
"861 -138 OFFCURVE",
"841 -175 CURVE",
"817 -212 OFFCURVE",
"773 -224 OFFCURVE",
"727 -225 CURVE SMOOTH",
"676 -225 OFFCURVE",
"615 -209 OFFCURVE",
"549 -172 CURVE SMOOTH",
"452 -118 OFFCURVE",
"398 -58 OFFCURVE",
"351 -6 CURVE",
"345 0 OFFCURVE",
"340 7 OFFCURVE",
"334 13 CURVE",
"373 41 OFFCURVE",
"414 77 OFFCURVE",
"456 120 CURVE SMOOTH",
"519 185 OFFCURVE",
"585 267 OFFCURVE",
"655 361 CURVE SMOOTH",
"756 497 OFFCURVE",
"842 634 OFFCURVE",
"934 738 CURVE SMOOTH",
"965 773 OFFCURVE",
"996 804 OFFCURVE",
"1029 830 CURVE",
"1053 821 OFFCURVE",
"1074 813 OFFCURVE",
"1093 806 CURVE SMOOTH",
"1130 793 OFFCURVE",
"1162 784 OFFCURVE",
"1204 781 CURVE SMOOTH",
"1229 780 OFFCURVE",
"1255 781 OFFCURVE",
"1281 793 CURVE SMOOTH",
"1304 804 OFFCURVE",
"1317 821 OFFCURVE",
"1323 835 CURVE",
"1328 848 OFFCURVE",
"1334 874 OFFCURVE",
"1317 901 CURVE",
"1300 925 OFFCURVE",
"1272 934 OFFCURVE",
"1241 933 CURVE SMOOTH",
"1177 930 OFFCURVE",
"1120 911 OFFCURVE",
"1068 879 CURVE SMOOTH",
"1054 870 OFFCURVE",
"1040 861 OFFCURVE",
"1026 850 CURVE",
"1006 858 OFFCURVE",
"983 866 OFFCURVE",
"957 874 CURVE SMOOTH",
"923 885 OFFCURVE",
"891 889 OFFCURVE",
"862 889 CURVE SMOOTH",
"777 889 OFFCURVE",
"719 855 OFFCURVE",
"718 854 CURVE",
"714 852 OFFCURVE",
"712 846 OFFCURVE",
"715 842 CURVE",
"717 838 OFFCURVE",
"722 836 OFFCURVE",
"727 839 CURVE",
"730 840 OFFCURVE",
"785 871 OFFCURVE",
"862 871 CURVE SMOOTH",
"889 871 OFFCURVE",
"919 867 OFFCURVE",
"951 857 CURVE SMOOTH",
"973 850 OFFCURVE",
"992 843 OFFCURVE",
"1009 837 CURVE",
"954 791 OFFCURVE",
"903 732 OFFCURVE",
"852 665 CURVE SMOOTH",
"783 576 OFFCURVE",
"716 473 OFFCURVE",
"641 372 CURVE SMOOTH",
"548 246 OFFCURVE",
"462 144 OFFCURVE",
"381 73 CURVE SMOOTH",
"361 56 OFFCURVE",
"341 40 OFFCURVE",
"322 26 CURVE",
"308 40 OFFCURVE",
"295 53 OFFCURVE",
"281 66 CURVE",
"235 103 OFFCURVE",
"179 127 OFFCURVE",
"116 129 CURVE SMOOTH",
"76 129 OFFCURVE",
"33 112 OFFCURVE",
"18 71 CURVE SMOOTH",
"-12 -15 OFFCURVE",
"85 -54 OFFCURVE",
"159 -54 CURVE SMOOTH",
"196 -54 OFFCURVE",
"234 -43 OFFCURVE",
"273 -24 CURVE",
"288 -16 OFFCURVE",
"304 -8 OFFCURVE",
"319 3 CURVE",
"336 -16 OFFCURVE",
"355 -37 OFFCURVE",
"375 -59 CURVE SMOOTH",
"415 -101 OFFCURVE",
"465 -146 OFFCURVE",
"540 -188 CURVE SMOOTH",
"608 -226 OFFCURVE",
"673 -243 OFFCURVE",
"727 -243 CURVE SMOOTH"
);
},
{
closed = 1;
nodes = (
"111 -36 OFFCURVE",
"37 -20 OFFCURVE",
"30 39 CURVE",
"30 86 OFFCURVE",
"69 110 OFFCURVE",
"116 111 CURVE SMOOTH",
"171 111 OFFCURVE",
"225 87 OFFCURVE",
"269 52 CURVE SMOOTH",
"282 41 OFFCURVE",
"294 29 OFFCURVE",
"307 16 CURVE",
"293 7 OFFCURVE",
"279 -1 OFFCURVE",
"265 -8 CURVE SMOOTH",
"228 -26 OFFCURVE",
"193 -36 OFFCURVE",
"159 -36 CURVE SMOOTH"
);
},
{
closed = 1;
nodes = (
"926 488 LINE",
"931 491 OFFCURVE",
"932 495 OFFCURVE",
"930 500 CURVE SMOOTH",
"928 505 OFFCURVE",
"922 507 OFFCURVE",
"918 504 CURVE",
"370 248 LINE SMOOTH",
"366 246 OFFCURVE",
"363 240 OFFCURVE",
"366 236 CURVE",
"368 232 OFFCURVE",
"373 229 OFFCURVE",
"378 232 CURVE"
);
},
{
closed = 1;
nodes = (
"1165 802 OFFCURVE",
"1135 810 OFFCURVE",
"1099 823 CURVE SMOOTH",
"1083 829 OFFCURVE",
"1066 835 OFFCURVE",
"1046 843 CURVE",
"1056 850 OFFCURVE",
"1067 857 OFFCURVE",
"1077 864 CURVE",
"1128 894 OFFCURVE",
"1181 913 OFFCURVE",
"1242 915 CURVE SMOOTH",
"1263 915 OFFCURVE",
"1287 910 OFFCURVE",
"1302 891 CURVE",
"1316 868 OFFCURVE",
"1312 843 OFFCURVE",
"1295 825 CURVE SMOOTH",
"1275 804 OFFCURVE",
"1244 798 OFFCURVE",
"1205 799 CURVE"
);
}
);
width = 833;
},
{
components = (
{
name = L;
}
);
layerId = "AF956123-A183-4F86-8774-5A4F8E572774";
paths = (
{
closed = 1;
nodes = (
"1167 513 LINE SMOOTH",
"1201 521 OFFCURVE",
"1222 548 OFFCURVE",
"1216 576 CURVE",
"1208 602 OFFCURVE",
"1176 616 OFFCURVE",
"1143 608 CURVE SMOOTH",
"339 413 LINE SMOOTH",
"304 404 OFFCURVE",
"284 377 OFFCURVE",
"291 351 CURVE SMOOTH",
"298 323 OFFCURVE",
"328 308 OFFCURVE",
"363 317 CURVE SMOOTH"
);
}
);
width = 1131;
}
);
unicode = 0141;
},
